NotoSerifArmenian.glyphspackage
{
glyphname = hyphen;
kernLeft = hyphen;
kernRight = hyphen;
layers = (
{
layerId = m001;
shapes = (
{
closed = 1;
nodes = (
(285,259,l),
(285,287,l),
(25,287,l),
(25,259,l)
);
}
);
userData = {
com.schriftgestaltung.Glyphs.subCategory = Dash;
};
width = 310;
},
{
layerId = m003;
shapes = (
{
closed = 1;
nodes = (
(285,235,l),
(285,310,l),
(25,310,l),
(25,235,l)
);
}
);
userData = {
com.schriftgestaltung.Glyphs.subCategory = Dash;
};
width = 310;
},
{
layerId = m005;
shapes = (
{
closed = 1;
nodes = (
(285,209,l),
(285,336,l),
(25,336,l),
(25,209,l)
);
}
);
userData = {
com.schriftgestaltung.Glyphs.subCategory = Dash;
};
width = 310;
},
{
layerId = m006;
shapes = (
{
closed = 1;
nodes = (
(216,259,l),
(216,287,l),
(20,287,l),
(20,259,l)
);
}
);
userData = {
com.schriftgestaltung.Glyphs.subCategory = Dash;
};
width = 236;
},
{
layerId = m007;
shapes = (
{
closed = 1;
nodes = (
(226,236,l),
(226,309,l),
(20,309,l),
(20,236,l)
);
}
);
userData = {
com.schriftgestaltung.Glyphs.subCategory = Dash;
};
width = 246;
},
{
layerId = m009;
shapes = (
{
closed = 1;
nodes = (
(238,216,l),
(238,329,l),
(21,329,l),
(21,216,l)
);
}
);
userData = {
com.schriftgestaltung.Glyphs.subCategory = Dash;
};
width = 259;
}
);
unicode = 45;
}
{
category = Mark;
glyphname = gravecomb;
layers = (
{
anchors = (
{
name = _top;
pos = (239,536);
},
{
name = top;
pos = (239,766);
}
);
layerId = m005;
shapes = (
{
closed = 1;
nodes = (
(338,606,l),
(338,619,l),
(309,657,o),
(255,721,o),
(234,766,c),
(40,766,l),
(40,756,l),
(65,721,o),
(178,642,o),
(248,606,c)
);
}
);
width = 378;
},
{
anchors = (
{
name = _top;
pos = (186,536);
},
{
name = top;
pos = (186,766);
}
);
layerId = m003;
shapes = (
{
closed = 1;
nodes = (
(234,606,l),
(234,619,l),
(205,657,o),
(168,721,o),
(147,766,c),
(40,766,l),
(40,756,l),
(65,721,o),
(143,642,o),
(196,606,c)
);
}
);
width = 274;
},
{
anchors = (
{
name = _top;
pos = (199,536);
},
{
name = top;
pos = (199,766);
}
);
layerId = m009;
shapes = (
{
closed = 1;
nodes = (
(289,606,l),
(289,619,l),
(265,657,o),
(219,721,o),
(202,766,c),
(40,766,l),
(40,756,l),
(61,721,o),
(155,642,o),
(213,606,c)
);
}
);
width = 329;
},
{
anchors = (
{
name = _top;
pos = (75,536);
},
{
name = top;
pos = (75,766);
}
);
layerId = m006;
shapes = (
{
closed = 1;
nodes = (
(151,606,l),
(151,619,l),
(128,657,o),
(99,721,o),
(83,766,c),
(40,766,l),
(40,756,l),
(58,721,o),
(111,642,o),
(144,606,c)
);
}
);
width = 191;
},
{
anchors = (
{
name = _top;
pos = (150,536);
},
{
name = top;
pos = (150,766);
}
);
layerId = m001;
shapes = (
{
closed = 1;
nodes = (
(178,606,l),
(178,619,l),
(149,657,o),
(104,721,o),
(83,766,c),
(40,766,l),
(40,756,l),
(65,721,o),
(135,642,o),
(176,606,c)
);
}
);
width = 218;
},
{
anchors = (
{
name = _top;
pos = (163,536);
},
{
name = top;
pos = (163,766);
}
);
layerId = m007;
shapes = (
{
closed = 1;
nodes = (
(211,606,l),
(211,619,l),
(188,657,o),
(151,721,o),
(135,766,c),
(40,766,l),
(40,756,l),
(60,721,o),
(130,642,o),
(175,606,c)
);
}
);
width = 251;
}
);
script = "";
subCategory = Nonspacing;
unicode = 768;
}
{
category = Mark;
glyphname = acutecomb;
layers = (
{
anchors = (
{
name = _top;
pos = (139,536);
},
{
name = top;
pos = (139,766);
}
);
layerId = m005;
shapes = (
{
closed = 1;
nodes = (
(40,606,l),
(130,606,l),
(200,642,o),
(313,721,o),
(338,756,c),
(338,766,l),
(144,766,l),
(123,721,o),
(69,657,o),
(40,619,c)
);
}
);
width = 378;
},
{
anchors = (
{
name = _top;
pos = (88,536);
},
{
name = top;
pos = (88,766);
}
);
layerId = m003;
shapes = (
{
closed = 1;
nodes = (
(40,606,l),
(78,606,l),
(131,642,o),
(209,721,o),
(234,756,c),
(234,766,l),
(127,766,l),
(106,721,o),
(69,657,o),
(40,619,c)
);
}
);
width = 274;
},
{
anchors = (
{
name = _top;
pos = (130,536);
},
{
name = top;
pos = (130,766);
}
);
layerId = m009;
shapes = (
{
closed = 1;
nodes = (
(40,606,l),
(115,606,l),
(174,644,o),
(268,721,o),
(289,756,c),
(289,766,l),
(127,766,l),
(110,721,o),
(65,660,o),
(40,619,c)
);
}
);
width = 329;
},
{
anchors = (
{
name = _top;
pos = (116,536);
},
{
name = top;
pos = (116,766);
}
);
layerId = m006;
shapes = (
{
closed = 1;
nodes = (
(40,606,l),
(45,606,l),
(83,653,o),
(132,721,o),
(151,756,c),
(151,766,l),
(106,766,l),
(92,721,o),
(70,678,o),
(40,619,c)
);
}
);
width = 191;
},
{
anchors = (
{
name = _top;
pos = (68,536);
},
{
name = top;
pos = (68,766);
}
);
layerId = m001;
shapes = (
{
closed = 1;
nodes = (
(40,606,l),
(42,606,l),
(83,642,o),
(153,721,o),
(178,756,c),
(178,766,l),
(135,766,l),
(114,721,o),
(69,657,o),
(40,619,c)
);
}
);
width = 218;
},
{
anchors = (
{
name = _top;
pos = (88,536);
},
{
name = top;
pos = (88,766);
}
);
layerId = m007;
shapes = (
{
closed = 1;
nodes = (
(40,606,l),
(75,606,l),
(123,649,o),
(191,721,o),
(211,756,c),
(211,766,l),
(115,766,l),
(100,721,o),
(68,670,o),
(40,619,c)
);
}
);
width = 251;
}
);
script = "";
subCategory = Nonspacing;
unicode = 769;
}
{
category = Mark;
glyphname = circumflexcomb;
layers = (
{
anchors = (
{
name = _top;
pos = (239,536);
},
{
name = top;
pos = (239,766);
}
);
layerId = m005;
shapes = (
{
closed = 1;
nodes = (
(40,606,l),
(131,606,l),
(152,628,o),
(209,673,o),
(239,696,c),
(269,673,o),
(327,628,o),
(348,606,c),
(439,606,l),
(439,619,l),
(408,657,o),
(343,721,o),
(322,766,c),
(157,766,l),
(136,721,o),
(71,657,o),
(40,619,c)
);
}
);
width = 479;
},
{
anchors = (
{
name = _top;
pos = (186,536);
},
{
name = top;
pos = (186,766);
}
);
layerId = m003;
shapes = (
{
closed = 1;
nodes = (
(40,606,l),
(79,606,l),
(117,628,o),
(157,664,o),
(187,696,c),
(217,664,o),
(258,628,o),
(296,606,c),
(335,606,l),
(335,619,l),
(304,657,o),
(256,721,o),
(235,766,c),
(140,766,l),
(119,721,o),
(71,657,o),
(40,619,c)
);
}
);
width = 375;
},
{
anchors = (
{
name = _top;
pos = (206,536);
},
{
name = top;
pos = (206,766);
}
);
layerId = m009;
shapes = (
{
closed = 1;
nodes = (
(40,606,l),
(116,606,l),
(134,631,o),
(179,672,o),
(206,699,c),
(231,675,o),
(286,623,o),
(297,606,c),
(373,606,l),
(373,619,l),
(347,657,o),
(293,721,o),
(275,766,c),
(138,766,l),
(120,721,o),
(66,657,o),
(40,619,c)
);
}
);
width = 413;
},
{
anchors = (
{
name = _top;
pos = (130,536);
},
{
name = top;
pos = (130,766);
}
);
layerId = m006;
shapes = (
{
closed = 1;
nodes = (
(40,606,l),
(46,606,l),
(82,645,o),
(106,673,o),
(130,721,c),
(152,673,o),
(175,645,o),
(212,606,c),
(218,606,l),
(218,619,l),
(194,657,o),
(166,721,o),
(149,766,c),
(108,766,l),
(93,721,o),
(63,657,o),
(40,619,c)
);
}
);
width = 258;
},
{
anchors = (
{
name = _top;
pos = (150,536);
},
{
name = top;
pos = (150,766);
}
);
layerId = m001;
shapes = (
{
closed = 1;
nodes = (
(40,606,l),
(47,606,l),
(97,656,o),
(119,687,o),
(149,736,c),
(179,687,o),
(202,656,o),
(252,606,c),
(259,606,l),
(259,619,l),
(228,657,o),
(183,721,o),
(167,766,c),
(132,766,l),
(116,721,o),
(71,657,o),
(40,619,c)
);
}
);
width = 299;
},
{
anchors = (
{
name = _top;
pos = (163,536);
},
{
name = top;
pos = (163,766);
}
);
layerId = m007;
shapes = (
{
closed = 1;
nodes = (
(40,606,l),
(77,606,l),
(105,639,o),
(139,673,o),
(163,712,c),
(187,673,o),
(221,639,o),
(249,606,c),
(286,606,l),
(286,619,l),
(261,657,o),
(222,721,o),
(205,766,c),
(122,766,l),
(105,721,o),
(65,657,o),
(40,619,c)
);
}
);
width = 326;
}
);
script = "";
subCategory = Nonspacing;
unicode = 770;
}
{
category = Mark;
glyphname = macroncomb;
layers = (
{
anchors = (
{
name = _top;
pos = (185,536);
},
{
name = top;
pos = (185,692);
}
);
layerId = m005;
shapes = (
{
closed = 1;
nodes = (
(330,599,l),
(330,692,l),
(40,692,l),
(40,599,l)
);
}
);
width = 370;
},
{
anchors = (
{
name = _top;
pos = (185,536);
},
{
name = top;
pos = (185,675);
}
);
layerId = m003;
shapes = (
{
closed = 1;
nodes = (
(330,616,l),
(330,675,l),
(40,675,l),
(40,616,l)
);
}
);
width = 370;
},
{
anchors = (
{
name = _top;
pos = (161,536);
},
{
name = top;
pos = (161,687);
}
);
layerId = m009;
shapes = (
{
closed = 1;
nodes = (
(282,604,l),
(282,687,l),
(40,687,l),
(40,604,l)
);
}
);
width = 322;
},
{
anchors = (
{
name = _top;
pos = (150,536);
},
{
name = top;
pos = (150,660);
}
);
layerId = m006;
shapes = (
{
closed = 1;
nodes = (
(260,632,l),
(260,660,l),
(40,660,l),
(40,632,l)
);
}
);
width = 300;
},
{
anchors = (
{
name = _top;
pos = (185,536);
},
{
name = top;
pos = (185,663);
}
);
layerId = m001;
shapes = (
{
closed = 1;
nodes = (
(330,638,l),
(330,663,l),
(40,663,l),
(40,638,l)
);
}
);
width = 370;
},
{
anchors = (
{
name = _top;
pos = (155,536);
},
{
name = top;
pos = (155,674);
}
);
layerId = m007;
shapes = (
{
closed = 1;
nodes = (
(269,617,l),
(269,674,l),
(40,674,l),
(40,617,l)
);
}
);
width = 309;
}
);
script = "";
subCategory = Nonspacing;
unicode = 772;
}
{
glyphname = dieresiscomb;
layers = (
{
anchors = (
{
name = _top;
pos = (3,536);
}
);
layerId = m001;
shapes = (
{
closed = 1;
nodes = (
(98,658,o),
(106,666,o),
(106,698,cs),
(106,729,o),
(98,738,o),
(83,738,cs),
(69,738,o),
(60,729,o),
(60,698,cs),
(60,666,o),
(69,658,o),
(83,658,cs)
);
},
{
closed = 1;
nodes = (
(-63,658,o),
(-55,666,o),
(-55,698,cs),
(-55,729,o),
(-63,738,o),
(-78,738,cs),
(-92,738,o),
(-101,729,o),
(-101,698,cs),
(-101,666,o),
(-92,658,o),
(-78,658,cs)
);
}
);
userData = {
com.schriftgestaltung.Glyphs.category = Mark;
com.schriftgestaltung.Glyphs.subCategory = Nonspacing;
};
width = 0;
},
{
anchors = (
{
name = _top;
pos = (0,536);
}
);
layerId = m003;
shapes = (
{
closed = 1;
nodes = (
(123,632,o),
(146,647,o),
(146,688,cs),
(146,730,o),
(123,744,o),
(95,744,cs),
(66,744,o),
(44,730,o),
(44,688,cs),
(44,647,o),
(66,632,o),
(95,632,cs)
);
},
{
closed = 1;
nodes = (
(-67,632,o),
(-44,647,o),
(-44,688,cs),
(-44,730,o),
(-67,744,o),
(-95,744,cs),
(-124,744,o),
(-146,730,o),
(-146,688,cs),
(-146,647,o),
(-124,632,o),
(-95,632,cs)
);
}
);
userData = {
com.schriftgestaltung.Glyphs.category = Mark;
com.schriftgestaltung.Glyphs.subCategory = Nonspacing;
};
width = 0;
},
{
anchors = (
{
name = _top;
pos = (-2,536);
}
);
layerId = m005;
shapes = (
{
closed = 1;
nodes = (
(142,614,o),
(180,634,o),
(180,688,cs),
(180,743,o),
(142,762,o),
(107,762,cs),
(68,762,o),
(32,743,o),
(32,688,cs),
(32,634,o),
(68,614,o),
(107,614,cs)
);
},
{
closed = 1;
nodes = (
(-74,614,o),
(-36,634,o),
(-36,688,cs),
(-36,743,o),
(-74,762,o),
(-111,762,cs),
(-148,762,o),
(-184,743,o),
(-184,688,cs),
(-184,634,o),
(-148,614,o),
(-111,614,cs)
);
}
);
userData = {
com.schriftgestaltung.Glyphs.category = Mark;
com.schriftgestaltung.Glyphs.subCategory = Nonspacing;
};
width = 0;
},
{
anchors = (
{
name = _top;
pos = (2,536);
}
);
layerId = m006;
shapes = (
{
closed = 1;
nodes = (
(84,662,o),
(91,670,o),
(91,698,cs),
(91,728,o),
(84,736,o),
(68,736,cs),
(52,736,o),
(45,728,o),
(45,698,cs),
(45,670,o),
(52,662,o),
(68,662,cs)
);
},
{
closed = 1;
nodes = (
(-49,662,o),
(-42,670,o),
(-42,698,cs),
(-42,728,o),
(-49,736,o),
(-65,736,cs),
(-82,736,o),
(-87,728,o),
(-87,698,cs),
(-87,670,o),
(-82,662,o),
(-65,662,cs)
);
}
);
userData = {
com.schriftgestaltung.Glyphs.category = Mark;
com.schriftgestaltung.Glyphs.subCategory = Nonspacing;
};
width = 0;
},
{
anchors = (
{
name = _top;
pos = (1,536);
}
);
layerId = m007;
shapes = (
{
closed = 1;
nodes = (
(94,640,o),
(114,653,o),
(114,692,cs),
(114,732,o),
(94,745,o),
(72,745,cs),
(48,745,o),
(29,732,o),
(29,692,cs),
(29,653,o),
(48,640,o),
(72,640,cs)
);
},
{
closed = 1;
nodes = (
(-50,640,o),
(-29,653,o),
(-29,692,cs),
(-29,732,o),
(-50,745,o),
(-72,745,cs),
(-95,745,o),
(-113,732,o),
(-113,692,cs),
(-113,653,o),
(-95,640,o),
(-72,640,cs)
);
}
);
userData = {
com.schriftgestaltung.Glyphs.category = Mark;
com.schriftgestaltung.Glyphs.subCategory = Nonspacing;
};
width = 0;
},
{
anchors = (
{
name = _top;
pos = (-2,536);
}
);
layerId = m009;
shapes = (
{
closed = 1;
nodes = (
(119,621,o),
(151,639,o),
(151,689,cs),
(151,740,o),
(119,758,o),
(90,758,cs),
(57,758,o),
(27,740,o),
(27,689,cs),
(27,639,o),
(57,621,o),
(90,621,cs)
);
},
{
closed = 1;
nodes = (
(-63,621,o),
(-31,639,o),
(-31,689,cs),
(-31,740,o),
(-63,758,o),
(-94,758,cs),
(-125,758,o),
(-155,740,o),
(-155,689,cs),
(-155,639,o),
(-125,621,o),
(-94,621,cs)
);
}
);
userData = {
com.schriftgestaltung.Glyphs.category = Mark;
com.schriftgestaltung.Glyphs.subCategory = Nonspacing;
};
width = 0;
}
);
unicode = 776;
}
{
glyphname = uni0531;
kernLeft = uni0531;
layers = (
{
anchors = (
{
name = top;
pos = (319,714);
}
);
layerId = m001;
shapes = (
{
closed = 1;
nodes = (
(464,694,l),
(514,694,o),
(520,683,o),
(520,606,cs),
(520,219,ls),
(520,106,o),
(458,15,o),
(317,15,cs),
(193,15,o),
(117,76,o),
(117,210,cs),
(117,714,l),
(33,714,l),
(33,694,l),
(83,694,o),
(89,683,o),
(89,606,cs),
(89,214,ls),
(89,51,o),
(181,-10,o),
(319,-10,cs),
(474,-10,o),
(548,88,o),
(548,218,cs),
(548,714,l),
(464,714,l)
);
},
{
closed = 1;
nodes = (
(530,190,l),
(546,197,o),
(565,200,o),
(590,200,cs),
(635,200,o),
(661,176,o),
(661,116,cs),
(661,0,l),
(689,0,l),
(689,115,ls),
(689,201,o),
(650,225,o),
(590,225,cs),
(566,225,o),
(547,222,o),
(530,217,c)
);
}
);
width = 707;
},
{
anchors = (
{
name = top;
pos = (359,714);
}
);
layerId = m003;
shapes = (
{
closed = 1;
nodes = (
(466,677,l),
(510,677,o),
(516,666,o),
(516,603,cs),
(516,207,ls),
(516,106,o),
(464,37,o),
(358,37,cs),
(259,37,o),
(201,92,o),
(201,203,cs),
(201,714,l),
(50,714,l),
(50,677,l),
(94,677,o),
(100,666,o),
(100,603,cs),
(100,219,ls),
(100,64,o),
(199,-10,o),
(359,-10,cs),
(526,-10,o),
(617,80,o),
(617,221,cs),
(617,714,l),
(466,714,l)
);
},
{
closed = 1;
nodes = (
(599,189,l),
(609,193,o),
(628,196,o),
(643,196,cs),
(690,196,o),
(708,177,o),
(708,100,cs),
(708,0,l),
(804,0,l),
(804,98,ls),
(804,210,o),
(759,247,o),
(662,247,cs),
(640,247,o),
(620,243,o),
(600,239,c)
);
}
);
width = 833;
},
{
anchors = (
{
name = top;
pos = (395,714);
}
);
layerId = m005;
shapes = (
{
closed = 1;
nodes = (
(454,654,l),
(489,654,o),
(495,645,o),
(495,598,cs),
(495,192,ls),
(495,106,o),
(456,66,o),
(396,66,cs),
(329,66,o),
(294,113,o),
(294,195,cs),
(294,714,l),
(57,714,l),
(57,654,l),
(93,654,o),
(100,645,o),
(100,598,cs),
(100,225,ls),
(100,80,o),
(206,-10,o),
(395,-10,cs),
(578,-10,o),
(689,69,o),
(689,224,cs),
(689,714,l),
(454,714,l)
);
},
{
closed = 1;
nodes = (
(673,187,l),
(676,188,o),
(694,190,o),
(696,190,cs),
(746,190,o),
(753,177,o),
(753,79,cs),
(753,0,l),
(937,0,l),
(937,75,ls),
(937,221,o),
(884,275,o),
(741,275,cs),
(720,275,o),
(701,271,o),
(676,268,c)
);
}
);
width = 957;
},
{
anchors = (
{
name = top;
pos = (263,714);
}
);
layerId = m006;
shapes = (
{
closed = 1;
nodes = (
(355,694,l),
(405,694,o),
(411,683,o),
(411,607,cs),
(411,202,ls),
(411,114,o),
(372,15,o),
(260,15,cs),
(172,15,o),
(114,74,o),
(114,210,cs),
(114,714,l),
(36,714,l),
(36,694,l),
(82,694,o),
(86,683,o),
(86,609,cs),
(86,214,ls),
(86,55,o),
(156,-10,o),
(259,-10,cs),
(382,-10,o),
(439,89,o),
(439,200,cs),
(439,714,l),
(355,714,l)
);
},
{
closed = 1;
nodes = (
(432,190,l),
(444,197,o),
(459,200,o),
(478,200,cs),
(512,200,o),
(532,176,o),
(532,116,cs),
(532,0,l),
(560,0,l),
(560,115,ls),
(560,201,o),
(529,225,o),
(480,225,cs),
(461,225,o),
(446,222,o),
(432,217,c)
);
}
);
width = 578;
},
{
anchors = (
{
name = top;
pos = (281,714);
}
);
layerId = m007;
shapes = (
{
closed = 1;
nodes = (
(358,679,l),
(403,679,o),
(413,669,o),
(413,599,cs),
(413,206,ls),
(413,113,o),
(376,37,o),
(280,37,cs),
(198,37,o),
(148,80,o),
(148,210,cs),
(148,714,l),
(33,714,l),
(33,679,l),
(77,679,o),
(84,669,o),
(84,600,cs),
(84,215,ls),
(84,55,o),
(161,-10,o),
(279,-10,cs),
(417,-10,o),
(477,87,o),
(477,204,cs),
(477,714,l),
(358,714,l)
);
},
{
closed = 1;
nodes = (
(470,183,l),
(480,189,o),
(495,192,o),
(510,192,cs),
(545,192,o),
(562,170,o),
(562,108,cs),
(562,0,l),
(625,0,l),
(625,107,ls),
(625,205,o),
(591,235,o),
(525,235,cs),
(502,235,o),
(487,232,o),
(471,227,c)
);
}
);
width = 643;
},
{
anchors = (
{
name = top;
pos = (334,714);
}
);
layerId = m009;
shapes = (
{
closed = 1;
nodes = (
(367,658,l),
(397,658,o),
(421,651,o),
(421,599,cs),
(421,216,ls),
(421,111,o),
(388,64,o),
(337,64,cs),
(273,64,o),
(247,99,o),
(247,210,cs),
(247,714,l),
(26,714,l),
(26,658,l),
(66,658,o),
(80,653,o),
(80,599,cs),
(80,218,ls),
(80,54,o),
(176,-10,o),
(336,-10,cs),
(519,-10,o),
(588,80,o),
(588,214,cs),
(588,714,l),
(367,714,l)
);
},
{
closed = 1;
nodes = (
(579,188,l),
(584,190,o),
(597,192,o),
(603,192,cs),
(641,192,o),
(649,177,o),
(649,87,cs),
(649,0,l),
(813,0,l),
(813,84,ls),
(813,217,o),
(767,264,o),
(655,264,cs),
(620,264,o),
(603,260,o),
(581,257,c)
);
}
);
width = 829;
}
);
note = uni0531;
unicode = 1329;
}
{
glyphname = uni0532;
layers = (
{
layerId = m001;
shapes = (
{
closed = 1;
nodes = (
(166,20,l),
(116,20,o),
(110,31,o),
(110,108,cs),
(110,495,ls),
(110,608,o),
(172,699,o),
(313,699,cs),
(437,699,o),
(513,638,o),
(513,504,cs),
(513,408,l),
(541,408,l),
(541,500,ls),
(541,663,o),
(449,724,o),
(311,724,cs),
(156,724,o),
(82,626,o),
(82,496,cs),
(82,0,l),
(166,0,l)
);
},
{
closed = 1;
nodes = (
(531,317,l),
(531,342,l),
(101,342,l),
(101,317,l)
);
}
);
width = 613;
},
{
layerId = m003;
shapes = (
{
closed = 1;
nodes = (
(252,37,l),
(208,37,o),
(202,48,o),
(202,111,cs),
(202,507,ls),
(202,608,o),
(254,677,o),
(360,677,cs),
(458,677,o),
(516,622,o),
(516,511,cs),
(516,411,l),
(617,411,l),
(617,495,ls),
(617,650,o),
(519,724,o),
(359,724,cs),
(191,724,o),
(101,634,o),
(101,493,cs),
(101,0,l),
(252,0,l)
);
},
{
closed = 1;
nodes = (
(608,300,l),
(608,345,l),
(193,345,l),
(193,300,l)
);
}
);
width = 683;
},
{
layerId = m005;
shapes = (
{
closed = 1;
nodes = (
(335,60,l),
(299,60,o),
(293,69,o),
(293,116,cs),
(293,522,ls),
(293,608,o),
(332,648,o),
(393,648,cs),
(459,648,o),
(494,601,o),
(494,519,cs),
(494,416,l),
(688,416,l),
(688,489,ls),
(688,634,o),
(582,724,o),
(393,724,cs),
(210,724,o),
(99,645,o),
(99,490,cs),
(99,0,l),
(335,0,l)
);
},
{
closed = 1;
nodes = (
(679,278,l),
(679,348,l),
(283,348,l),
(283,278,l)
);
}
);
width = 748;
},
{
layerId = m006;
shapes = (
{
closed = 1;
nodes = (
(168,20,l),
(118,20,o),
(112,31,o),
(112,107,cs),
(112,512,ls),
(112,600,o),
(151,699,o),
(263,699,cs),
(351,699,o),
(409,640,o),
(409,504,cs),
(409,410,l),
(437,410,l),
(437,500,ls),
(437,659,o),
(367,724,o),
(264,724,cs),
(141,724,o),
(84,625,o),
(84,514,cs),
(84,0,l),
(168,0,l)
);
},
{
closed = 1;
nodes = (
(429,317,l),
(429,342,l),
(99,342,l),
(99,317,l)
);
}
);
width = 499;
},
{
layerId = m007;
shapes = (
{
closed = 1;
nodes = (
(201,35,l),
(157,35,o),
(146,45,o),
(146,115,cs),
(146,508,ls),
(146,601,o),
(183,677,o),
(280,677,cs),
(361,677,o),
(411,634,o),
(411,504,cs),
(411,413,l),
(475,413,l),
(475,499,ls),
(475,659,o),
(399,724,o),
(281,724,cs),
(142,724,o),
(82,627,o),
(82,510,cs),
(82,0,l),
(201,0,l)
);
},
{
closed = 1;
nodes = (
(467,300,l),
(467,343,l),
(132,343,l),
(132,300,l)
);
}
);
width = 535;
},
{
layerId = m009;
shapes = (
{
closed = 1;
nodes = (
(299,56,l),
(269,56,o),
(245,63,o),
(245,115,cs),
(245,498,ls),
(245,603,o),
(278,650,o),
(329,650,cs),
(393,650,o),
(419,615,o),
(419,504,cs),
(419,420,l),
(586,420,l),
(586,496,ls),
(586,660,o),
(491,724,o),
(331,724,cs),
(148,724,o),
(78,634,o),
(78,500,cs),
(78,0,l),
(299,0,l)
);
},
{
closed = 1;
nodes = (
(578,283,l),
(578,347,l),
(227,347,l),
(227,283,l)
);
}
);
width = 640;
}
);
note = uni0532;
unicode = 1330;
}
{
glyphname = uni0533;
kernRight = uni0534;
layers = (
{
layerId = m001;
shapes = (
{
closed = 1;
nodes = (
(505,0,l),
(505,20,l),
(445,20,o),
(439,31,o),
(439,108,cs),
(439,530,ls),
(439,652,o),
(388,724,o),
(252,724,cs),
(118,724,o),
(46,655,o),
(46,518,cs),
(46,386,o),
(154,316,o),
(293,316,cs),
(411,316,l),
(411,0,l)
);
},
{
closed = 1;
nodes = (
(176,341,o),
(74,398,o),
(74,517,cs),
(74,637,o),
(130,699,o),
(253,699,cs),
(378,699,o),
(411,628,o),
(411,530,cs),
(411,341,l),
(293,341,ls)
);
},
{
closed = 1;
nodes = (
(562,316,l),
(562,341,l),
(431,341,l),
(431,316,l)
);
}
);
width = 567;
},
{
layerId = m003;
shapes = (
{
closed = 1;
nodes = (
(599,0,l),
(599,37,l),
(551,37,o),
(544,48,o),
(544,111,cs),
(544,508,ls),
(544,645,o),
(464,724,o),
(305,724,cs),
(146,724,o),
(57,647,o),
(57,509,cs),
(57,373,o),
(162,300,o),
(323,300,cs),
(443,300,l),
(443,0,l)
);
},
{
closed = 1;
nodes = (
(227,344,o),
(158,391,o),
(158,509,cs),
(158,627,o),
(207,677,o),
(305,677,cs),
(404,677,o),
(443,617,o),
(443,522,cs),
(443,344,l),
(323,344,ls)
);
},
{
closed = 1;
nodes = (
(704,300,l),
(704,344,l),
(536,344,l),
(536,300,l)
);
}
);
width = 711;
},
{
layerId = m005;
shapes = (
{
closed = 1;
nodes = (
(710,0,l),
(710,60,l),
(677,60,o),
(670,69,o),
(670,116,cs),
(670,480,ls),
(670,637,o),
(552,724,o),
(362,724,cs),
(174,724,o),
(62,637,o),
(62,498,cs),
(62,357,o),
(164,280,o),
(351,280,cs),
(476,280,l),
(476,0,l)
);
},
{
closed = 1;
nodes = (
(284,350,o),
(256,381,o),
(256,498,cs),
(256,614,o),
(297,648,o),
(362,648,cs),
(428,648,o),
(476,604,o),
(476,512,cs),
(476,350,l),
(351,350,ls)
);
},
{
closed = 1;
nodes = (
(874,280,l),
(874,350,l),
(659,350,l),
(659,280,l)
);
}
);
width = 878;
},
{
layerId = m006;
shapes = (
{
closed = 1;
nodes = (
(451,0,l),
(451,20,l),
(405,20,o),
(401,31,o),
(401,105,cs),
(401,500,ls),
(401,659,o),
(331,724,o),
(228,724,cs),
(105,724,o),
(48,630,o),
(48,519,cs),
(48,408,o),
(105,317,o),
(228,317,cs),
(373,317,l),
(373,0,l)
);
},
{
closed = 1;
nodes = (
(115,342,o),
(76,433,o),
(76,519,cs),
(76,605,o),
(115,699,o),
(227,699,cs),
(315,699,o),
(373,640,o),
(373,504,cs),
(373,342,l),
(227,342,ls)
);
},
{
closed = 1;
nodes = (
(511,317,l),
(511,342,l),
(388,342,l),
(388,317,l)
);
}
);
width = 517;
},
{
layerId = m007;
shapes = (
{
closed = 1;
nodes = (
(490,0,l),
(490,35,l),
(446,35,o),
(439,45,o),
(439,114,cs),
(439,499,ls),
(439,659,o),
(362,724,o),
(244,724,cs),
(107,724,o),
(46,631,o),
(46,514,cs),
(46,393,o),
(108,309,o),
(244,309,cs),
(375,309,l),
(375,0,l)
);
},
{
closed = 1;
nodes = (
(146,351,o),
(110,425,o),
(110,514,cs),
(110,604,o),
(147,677,o),
(244,677,cs),
(325,677,o),
(375,634,o),
(375,504,cs),
(375,351,l),
(244,351,ls)
);
},
{
closed = 1;
nodes = (
(564,309,l),
(564,351,l),
(426,351,l),
(426,309,l)
);
}
);
width = 569;
},
{
layerId = m009;
shapes = (
{
closed = 1;
nodes = (
(604,0,l),
(604,56,l),
(564,56,o),
(550,61,o),
(550,115,cs),
(550,496,ls),
(550,660,o),
(451,724,o),
(291,724,cs),
(113,724,o),
(42,634,o),
(42,500,cs),
(42,352,o),
(119,285,o),
(291,285,cs),
(383,285,l),
(383,0,l)
);
},
{
closed = 1;
nodes = (
(238,349,o),
(209,403,o),
(209,498,cs),
(209,603,o),
(242,650,o),
(293,650,cs),
(357,650,o),
(383,615,o),
(383,504,cs),
(383,349,l),
(293,349,ls)
);
},
{
closed = 1;
nodes = (
(714,285,l),
(714,349,l),
(533,349,l),
(533,285,l)
);
}
);
width = 718;
}
);
note = uni0533;
unicode = 1331;
}
{
glyphname = uni0534;
kernLeft = uni0534;
kernRight = uni0534;
layers = (
{
layerId = m001;
shapes = (
{
closed = 1;
nodes = (
(100,368,l),
(100,495,ls),
(100,608,o),
(152,699,o),
(283,699,cs),
(397,699,o),
(463,638,o),
(463,504,cs),
(463,0,l),
(547,0,l),
(547,20,l),
(497,20,o),
(491,31,o),
(491,108,cs),
(491,500,ls),
(491,663,o),
(409,724,o),
(281,724,cs),
(136,724,o),
(72,626,o),
(72,496,cs),
(72,368,l)
);
},
{
closed = 1;
nodes = (
(632,317,l),
(632,342,l),
(472,342,l),
(472,317,l)
);
}
);
width = 637;
},
{
layerId = m003;
shapes = (
{
closed = 1;
nodes = (
(167,355,l),
(167,507,ls),
(167,608,o),
(215,677,o),
(316,677,cs),
(410,677,o),
(464,622,o),
(464,511,cs),
(464,0,l),
(615,0,l),
(615,37,l),
(571,37,o),
(565,48,o),
(565,111,cs),
(565,495,ls),
(565,650,o),
(471,724,o),
(315,724,cs),
(152,724,o),
(66,634,o),
(66,493,cs),
(66,355,l)
);
},
{
closed = 1;
nodes = (
(732,301,l),
(732,345,l),
(551,345,l),
(551,301,l)
);
}
);
width = 739;
},
{
layerId = m005;
shapes = (
{
closed = 1;
nodes = (
(254,337,l),
(254,522,ls),
(254,608,o),
(296,648,o),
(359,648,cs),
(428,648,o),
(466,601,o),
(466,519,cs),
(466,0,l),
(704,0,l),
(704,60,l),
(668,60,o),
(660,69,o),
(660,116,cs),
(660,489,ls),
(660,634,o),
(552,724,o),
(360,724,cs),
(174,724,o),
(60,645,o),
(60,490,cs),
(60,337,l)
);
},
{
closed = 1;
nodes = (
(859,280,l),
(859,350,l),
(652,350,l),
(652,280,l)
);
}
);
width = 863;
},
{
layerId = m006;
shapes = (
{
closed = 1;
nodes = (
(90,370,l),
(90,512,ls),
(90,600,o),
(129,699,o),
(241,699,cs),
(329,699,o),
(387,640,o),
(387,504,cs),
(387,0,l),
(465,0,l),
(465,20,l),
(419,20,o),
(415,31,o),
(415,105,cs),
(415,500,ls),
(415,659,o),
(345,724,o),
(242,724,cs),
(119,724,o),
(62,625,o),
(62,514,cs),
(62,370,l)
);
},
{
closed = 1;
nodes = (
(525,317,l),
(525,342,l),
(400,342,l),
(400,317,l)
);
}
);
width = 531;
},
{
layerId = m007;
shapes = (
{
closed = 1;
nodes = (
(124,362,l),
(124,508,ls),
(124,601,o),
(161,677,o),
(258,677,cs),
(339,677,o),
(389,634,o),
(389,504,cs),
(389,0,l),
(504,0,l),
(504,35,l),
(460,35,o),
(453,45,o),
(453,114,cs),
(453,499,ls),
(453,659,o),
(376,724,o),
(258,724,cs),
(119,724,o),
(60,627,o),
(60,510,cs),
(60,362,l)
);
},
{
closed = 1;
nodes = (
(578,301,l),
(578,344,l),
(438,344,l),
(438,301,l)
);
}
);
width = 583;
},
{
layerId = m009;
shapes = (
{
closed = 1;
nodes = (
(221,340,l),
(221,498,ls),
(221,603,o),
(254,650,o),
(305,650,cs),
(369,650,o),
(395,615,o),
(395,504,cs),
(395,0,l),
(616,0,l),
(616,56,l),
(576,56,o),
(562,61,o),
(562,115,cs),
(562,496,ls),
(562,660,o),
(463,724,o),
(303,724,cs),
(120,724,o),
(54,634,o),
(54,500,cs),
(54,340,l)
);
},
{
closed = 1;
nodes = (
(726,285,l),
(726,349,l),
(545,349,l),
(545,285,l)
);
}
);
width = 730;
}
);
note = uni0534;
unicode = 1332;
}
{
glyphname = uni0535;
kernLeft = uni0531;
layers = (
{
layerId = m001;
shapes = (
{
closed = 1;
nodes = (
(434,-10,o),
(521,51,o),
(521,214,cs),
(521,306,l),
(493,306,l),
(493,210,ls),
(493,76,o),
(422,15,o),
(307,15,cs),
(176,15,o),
(116,106,o),
(116,219,cs),
(116,714,l),
(33,714,l),
(33,694,l),
(80,694,o),
(88,683,o),
(88,606,cs),
(88,218,ls),
(88,88,o),
(160,-10,o),
(305,-10,cs)
);
},
{
closed = 1;
nodes = (
(511,457,l),
(511,482,l),
(107,482,l),
(107,457,l)
);
}
);
width = 573;
},
{
layerId = m003;
shapes = (
{
closed = 1;
nodes = (
(509,-10,o),
(605,63,o),
(605,219,cs),
(605,299,l),
(504,299,l),
(504,203,ls),
(504,93,o),
(448,37,o),
(354,37,cs),
(252,37,o),
(201,105,o),
(201,207,cs),
(201,714,l),
(50,714,l),
(50,677,l),
(93,677,o),
(100,666,o),
(100,603,cs),
(100,221,ls),
(100,80,o),
(189,-10,o),
(353,-10,cs)
);
},
{
closed = 1;
nodes = (
(597,444,l),
(597,488,l),
(191,488,l),
(191,444,l)
);
}
);
width = 670;
},
{
layerId = m005;
shapes = (
{
closed = 1;
nodes = (
(590,-10,o),
(697,79,o),
(697,225,cs),
(697,291,l),
(503,291,l),
(503,195,ls),
(503,109,o),
(466,66,o),
(399,66,cs),
(334,66,o),
(295,105,o),
(295,192,cs),
(295,714,l),
(57,714,l),
(57,654,l),
(94,654,o),
(101,645,o),
(101,598,cs),
(101,224,ls),
(101,70,o),
(212,-10,o),
(399,-10,cs)
);
},
{
closed = 1;
nodes = (
(693,426,l),
(693,496,l),
(284,496,l),
(284,426,l)
);
}
);
width = 753;
},
{
layerId = m006;
shapes = (
{
closed = 1;
nodes = (
(382,-10,o),
(439,89,o),
(439,200,cs),
(439,307,l),
(411,307,l),
(411,202,ls),
(411,114,o),
(372,15,o),
(260,15,cs),
(172,15,o),
(114,74,o),
(114,210,cs),
(114,714,l),
(36,714,l),
(36,694,l),
(82,694,o),
(86,683,o),
(86,609,cs),
(86,214,ls),
(86,55,o),
(156,-10,o),
(259,-10,cs)
);
},
{
closed = 1;
nodes = (
(429,457,l),
(429,482,l),
(99,482,l),
(99,457,l)
);
}
);
width = 491;
},
{
layerId = m007;
shapes = (
{
closed = 1;
nodes = (
(418,-10,o),
(477,87,o),
(477,204,cs),
(477,302,l),
(413,302,l),
(413,216,ls),
(413,123,o),
(376,37,o),
(280,37,cs),
(198,37,o),
(148,90,o),
(148,220,cs),
(148,714,l),
(33,714,l),
(33,679,l),
(77,679,o),
(84,669,o),
(84,600,cs),
(84,215,ls),
(84,55,o),
(161,-10,o),
(279,-10,cs)
);
},
{
closed = 1;
nodes = (
(467,441,l),
(467,484,l),
(132,484,l),
(132,441,l)
);
}
);
width = 529;
},
{
layerId = m009;
shapes = (
{
closed = 1;
nodes = (
(521,-10,o),
(588,80,o),
(588,214,cs),
(588,289,l),
(421,289,l),
(421,216,ls),
(421,111,o),
(388,64,o),
(337,64,cs),
(273,64,o),
(247,99,o),
(247,210,cs),
(247,714,l),
(26,714,l),
(26,658,l),
(66,658,o),
(80,653,o),
(80,599,cs),
(80,218,ls),
(80,54,o),
(178,-10,o),
(338,-10,cs)
);
},
{
closed = 1;
nodes = (
(578,427,l),
(578,491,l),
(227,491,l),
(227,427,l)
);
}
);
width = 636;
}
);
note = uni0535;
unicode = 1333;
}
{
glyphname = uni0536;
kernLeft = uni0541;
kernRight = uni0536;
layers = (
{
layerId = m001;
shapes = (
{
closed = 1;
nodes = (
(416,285,o),
(487,382,o),
(487,507,cs),
(487,631,o),
(423,728,o),
(266,728,cs),
(120,728,o),
(35,642,o),
(35,507,cs),
(35,380,o),
(109,285,o),
(260,285,cs)
);
},
{
closed = 1;
nodes = (
(74,0,l),
(74,179,l),
(46,179,l),
(46,0,l)
);
},
{
closed = 1;
nodes = (
(508,0,l),
(508,13,ls),
(508,99,o),
(459,123,o),
(399,123,cs),
(60,123,l),
(60,98,l),
(399,98,ls),
(444,98,o),
(480,74,o),
(480,14,cs),
(480,0,l)
);
},
{
closed = 1;
nodes = (
(263,100,o),
(487,224,o),
(487,507,c),
(462,507,l),
(462,248,o),
(256,123,o),
(71,123,c),
(71,100,l)
);
},
{
closed = 1;
nodes = (
(126,310,o),
(63,391,o),
(63,507,cs),
(63,630,o),
(136,703,o),
(266,703,cs),
(405,703,o),
(459,616,o),
(459,507,cs),
(459,392,o),
(399,310,o),
(260,310,cs)
);
}
);
width = 535;
},
{
layerId = m003;
shapes = (
{
closed = 1;
nodes = (
(451,281,o),
(551,371,o),
(551,495,cs),
(551,637,o),
(458,725,o),
(300,725,cs),
(146,725,o),
(45,639,o),
(45,500,cs),
(45,369,o),
(142,281,o),
(289,281,cs)
);
},
{
closed = 1;
nodes = (
(155,0,l),
(155,191,l),
(57,191,l),
(57,0,l)
);
},
{
closed = 1;
nodes = (
(575,0,l),
(575,14,ls),
(575,105,o),
(521,138,o),
(426,138,cs),
(106,138,l),
(106,94,l),
(389,94,ls),
(446,94,o),
(474,73,o),
(474,17,cs),
(474,0,l)
);
},
{
closed = 1;
nodes = (
(358,107,o),
(551,231,o),
(551,495,c),
(456,495,l),
(456,241,o),
(313,138,o),
(150,138,c),
(150,99,l)
);
},
{
closed = 1;
nodes = (
(202,329,o),
(151,398,o),
(151,500,cs),
(151,611,o),
(208,678,o),
(300,678,cs),
(398,678,o),
(445,606,o),
(445,506,cs),
(445,399,o),
(394,329,o),
(297,329,cs)
);
}
);
width = 611;
},
{
layerId = m005;
shapes = (
{
closed = 1;
nodes = (
(477,276,o),
(615,355,o),
(615,480,cs),
(615,644,o),
(485,722,o),
(326,722,cs),
(161,722,o),
(40,634,o),
(40,492,cs),
(40,354,o),
(166,276,o),
(308,276,cs)
);
},
{
closed = 1;
nodes = (
(241,0,l),
(241,207,l),
(55,207,l),
(55,0,l)
);
},
{
closed = 1;
nodes = (
(643,0,l),
(643,14,ls),
(643,113,o),
(584,158,o),
(444,158,cs),
(148,158,l),
(148,88,l),
(361,88,ls),
(432,88,o),
(449,73,o),
(449,20,cs),
(449,0,l)
);
},
{
closed = 1;
nodes = (
(464,115,o),
(615,241,o),
(615,480,c),
(431,480,l),
(431,233,o),
(369,158,o),
(235,158,c),
(235,97,l)
);
},
{
closed = 1;
nodes = (
(281,352,o),
(246,406,o),
(246,492,cs),
(246,588,o),
(282,646,o),
(326,646,cs),
(372,646,o),
(410,593,o),
(410,506,cs),
(410,407,o),
(370,352,o),
(328,352,cs)
);
}
);
width = 673;
},
{
layerId = m006;
shapes = (
{
closed = 1;
nodes = (
(330,285,o),
(387,382,o),
(387,507,cs),
(387,631,o),
(336,728,o),
(215,728,cs),
(102,728,o),
(35,642,o),
(35,507,cs),
(35,380,o),
(94,285,o),
(210,285,cs)
);
},
{
closed = 1;
nodes = (
(71,0,l),
(71,179,l),
(43,179,l),
(43,0,l)
);
},
{
closed = 1;
nodes = (
(404,0,l),
(404,13,ls),
(404,99,o),
(370,123,o),
(317,123,cs),
(57,123,l),
(57,98,l),
(313,98,ls),
(358,98,o),
(376,74,o),
(376,14,cs),
(376,0,l)
);
},
{
closed = 1;
nodes = (
(218,100,o),
(387,224,o),
(387,507,c),
(362,507,l),
(362,248,o),
(209,123,o),
(69,123,c),
(69,100,l)
);
},
{
closed = 1;
nodes = (
(111,310,o),
(63,391,o),
(63,507,cs),
(63,630,o),
(118,703,o),
(215,703,cs),
(318,703,o),
(359,616,o),
(359,507,cs),
(359,392,o),
(313,310,o),
(210,310,cs)
);
}
);
width = 432;
},
{
layerId = m007;
shapes = (
{
closed = 1;
nodes = (
(353,283,o),
(427,372,o),
(427,501,cs),
(427,634,o),
(359,727,o),
(233,727,cs),
(112,727,o),
(35,640,o),
(35,504,cs),
(35,374,o),
(107,283,o),
(226,283,c)
);
},
{
closed = 1;
nodes = (
(107,0,l),
(107,185,l),
(45,185,l),
(45,0,l)
);
},
{
closed = 1;
nodes = (
(446,0,l),
(446,13,ls),
(446,102,o),
(407,131,o),
(337,131,cs),
(76,131,l),
(76,88,l),
(315,88,ls),
(365,88,o),
(382,66,o),
(382,15,cs),
(382,0,l)
);
},
{
closed = 1;
nodes = (
(267,95,o),
(427,228,o),
(427,501,c),
(365,501,l),
(365,245,o),
(239,131,o),
(104,131,c),
(104,91,l)
);
},
{
closed = 1;
nodes = (
(146,326,o),
(102,394,o),
(102,504,cs),
(102,621,o),
(151,684,o),
(234,684,cs),
(321,684,o),
(360,611,o),
(360,507,cs),
(360,395,o),
(317,326,o),
(231,326,c)
);
}
);
width = 473;
},
{
layerId = m009;
shapes = (
{
closed = 1;
nodes = (
(420,278,o),
(541,367,o),
(541,484,cs),
(541,642,o),
(427,723,o),
(287,723,cs),
(142,723,o),
(36,636,o),
(36,494,cs),
(36,358,o),
(127,278,o),
(272,278,cs)
);
},
{
closed = 1;
nodes = (
(209,0,l),
(209,203,l),
(49,203,l),
(49,0,l)
);
},
{
closed = 1;
nodes = (
(565,0,l),
(565,14,ls),
(565,111,o),
(513,152,o),
(392,152,cs),
(129,152,l),
(129,88,l),
(321,88,ls),
(383,88,o),
(398,71,o),
(398,17,cs),
(398,0,l)
);
},
{
closed = 1;
nodes = (
(405,108,o),
(541,238,o),
(541,484,c),
(372,484,l),
(372,235,o),
(323,152,o),
(203,152,c),
(203,92,l)
);
},
{
closed = 1;
nodes = (
(244,346,o),
(213,394,o),
(213,494,cs),
(213,605,o),
(246,655,o),
(287,655,cs),
(330,655,o),
(364,607,o),
(364,506,cs),
(364,395,o),
(329,346,o),
(289,346,cs)
);
}
);
width = 592;
}
);
note = uni0536;
unicode = 1334;
}
{
glyphname = uni0537;
kernRight = uni0537;
layers = (
{
layerId = m001;
shapes = (
{
closed = 1;
nodes = (
(116,714,l),
(33,714,l),
(33,694,l),
(80,694,o),
(88,683,o),
(88,606,cs),
(88,0,l),
(116,20,l)
);
},
{
closed = 1;
nodes = (
(411,457,l),
(411,482,l),
(107,482,l),
(107,457,l)
);
},
{
closed = 1;
nodes = (
(237,90,o),
(155,67,o),
(88,25,c),
(88,0,l),
(157,41,o),
(235,65,o),
(297,65,cs),
(359,65,o),
(387,44,o),
(387,-36,cs),
(387,-62,l),
(415,-62,l),
(415,-37,ls),
(415,63,o),
(371,90,o),
(297,90,cs)
);
}
);
width = 461;
},
{
layerId = m003;
shapes = (
{
closed = 1;
nodes = (
(201,714,l),
(50,714,l),
(50,677,l),
(93,677,o),
(100,666,o),
(100,603,cs),
(100,0,l),
(201,34,l)
);
},
{
closed = 1;
nodes = (
(494,444,l),
(494,488,l),
(161,488,l),
(161,444,l)
);
},
{
closed = 1;
nodes = (
(282,98,o),
(200,78,o),
(100,35,c),
(100,0,l),
(170,29,o),
(262,52,o),
(312,52,cs),
(376,52,o),
(400,31,o),
(400,-34,cs),
(400,-62,l),
(501,-62,l),
(501,-38,ls),
(501,60,o),
(450,98,o),
(348,98,cs)
);
}
);
width = 556;
},
{
layerId = m005;
shapes = (
{
closed = 1;
nodes = (
(295,714,l),
(57,714,l),
(57,654,l),
(94,654,o),
(101,645,o),
(101,598,cs),
(101,0,l),
(295,52,l)
);
},
{
closed = 1;
nodes = (
(584,426,l),
(584,496,l),
(215,496,l),
(215,426,l)
);
},
{
closed = 1;
nodes = (
(323,116,o),
(241,99,o),
(100,55,c),
(100,0,l),
(172,20,o),
(261,36,o),
(315,36,cs),
(382,36,o),
(402,15,o),
(402,-32,cs),
(402,-62,l),
(596,-62,l),
(596,-35,ls),
(596,63,o),
(535,116,o),
(398,116,cs)
);
}
);
width = 649;
},
{
layerId = m006;
shapes = (
{
closed = 1;
nodes = (
(114,714,l),
(36,714,l),
(36,694,l),
(82,694,o),
(86,683,o),
(86,609,cs),
(86,0,l),
(114,30,l)
);
},
{
closed = 1;
nodes = (
(339,457,l),
(339,482,l),
(99,482,l),
(99,457,l)
);
},
{
closed = 1;
nodes = (
(203,90,o),
(140,67,o),
(86,25,c),
(86,0,l),
(139,41,o),
(200,65,o),
(247,65,cs),
(295,65,o),
(316,44,o),
(316,-36,cs),
(316,-62,l),
(344,-62,l),
(344,-37,ls),
(344,63,o),
(309,90,o),
(250,90,cs)
);
}
);
width = 392;
},
{
layerId = m007;
shapes = (
{
closed = 1;
nodes = (
(148,714,l),
(33,714,l),
(33,679,l),
(77,679,o),
(84,669,o),
(84,600,cs),
(84,0,l),
(148,40,l)
);
},
{
closed = 1;
nodes = (
(383,441,l),
(383,484,l),
(132,484,l),
(132,441,l)
);
},
{
closed = 1;
nodes = (
(221,106,o),
(156,85,o),
(84,42,c),
(84,0,l),
(140,36,o),
(207,59,o),
(253,59,cs),
(303,59,o),
(324,38,o),
(324,-35,cs),
(324,-62,l),
(388,-62,l),
(388,-36,ls),
(388,74,o),
(348,106,o),
(273,106,cs)
);
}
);
width = 434;
},
{
layerId = m009;
shapes = (
{
closed = 1;
nodes = (
(247,714,l),
(26,714,l),
(26,658,l),
(66,658,o),
(80,653,o),
(80,599,cs),
(80,0,l),
(247,70,l)
);
},
{
closed = 1;
nodes = (
(508,427,l),
(508,491,l),
(227,491,l),
(227,427,l)
);
},
{
closed = 1;
nodes = (
(275,114,o),
(203,97,o),
(80,53,c),
(80,0,l),
(144,22,o),
(228,40,o),
(271,40,cs),
(329,40,o),
(347,19,o),
(347,-32,cs),
(347,-62,l),
(514,-62,l),
(514,-32,ls),
(514,65,o),
(460,114,o),
(342,114,cs)
);
}
);
width = 556;
}
);
note = uni0537;
unicode = 1335;
}
{
glyphname = uni0538;
kernLeft = uni0548;
layers = (
{
layerId = m001;
shapes = (
{
closed = 1;
nodes = (
(146,724,o),
(82,626,o),
(82,496,cs),
(82,0,l),
(110,0,l),
(110,495,ls),
(110,608,o),
(162,699,o),
(293,699,cs),
(407,699,o),
(474,638,o),
(474,504,cs),
(474,358,l),
(502,358,l),
(502,500,ls),
(502,663,o),
(419,724,o),
(291,724,cs)
);
},
{
closed = 1;
nodes = (
(512,0,l),
(512,25,l),
(101,25,l),
(101,0,l)
);
}
);
width = 584;
},
{
layerId = m003;
shapes = (
{
closed = 1;
nodes = (
(187,724,o),
(101,634,o),
(101,493,cs),
(101,0,l),
(202,0,l),
(202,507,ls),
(202,608,o),
(250,677,o),
(351,677,cs),
(445,677,o),
(499,622,o),
(499,511,cs),
(499,353,l),
(600,353,l),
(600,495,ls),
(600,650,o),
(506,724,o),
(350,724,cs)
);
},
{
closed = 1;
nodes = (
(616,0,l),
(616,45,l),
(193,45,l),
(193,0,l)
);
}
);
width = 682;
},
{
layerId = m005;
shapes = (
{
closed = 1;
nodes = (
(213,724,o),
(99,645,o),
(99,490,cs),
(99,0,l),
(293,0,l),
(293,522,ls),
(293,608,o),
(335,648,o),
(398,648,cs),
(467,648,o),
(505,601,o),
(505,519,cs),
(505,347,l),
(699,347,l),
(699,489,ls),
(699,634,o),
(591,724,o),
(399,724,cs)
);
},
{
closed = 1;
nodes = (
(722,0,l),
(722,70,l),
(283,70,l),
(283,0,l)
);
}
);
width = 782;
},
{
layerId = m006;
shapes = (
{
closed = 1;
nodes = (
(141,724,o),
(84,625,o),
(84,514,cs),
(84,0,l),
(112,0,l),
(112,512,ls),
(112,600,o),
(151,699,o),
(263,699,cs),
(351,699,o),
(409,640,o),
(409,504,cs),
(409,410,l),
(437,410,l),
(437,500,ls),
(437,659,o),
(367,724,o),
(264,724,cs)
);
},
{
closed = 1;
nodes = (
(429,0,l),
(429,25,l),
(99,25,l),
(99,0,l)
);
}
);
width = 499;
},
{
layerId = m007;
shapes = (
{
closed = 1;
nodes = (
(142,724,o),
(82,627,o),
(82,510,cs),
(82,0,l),
(146,0,l),
(146,508,ls),
(146,601,o),
(183,677,o),
(280,677,cs),
(361,677,o),
(411,634,o),
(411,504,cs),
(411,413,l),
(475,413,l),
(475,499,ls),
(475,659,o),
(399,724,o),
(281,724,cs)
);
},
{
closed = 1;
nodes = (
(467,0,l),
(467,43,l),
(132,43,l),
(132,0,l)
);
}
);
width = 535;
},
{
layerId = m009;
shapes = (
{
closed = 1;
nodes = (
(148,724,o),
(78,634,o),
(78,500,cs),
(78,0,l),
(245,0,l),
(245,498,ls),
(245,603,o),
(278,650,o),
(329,650,cs),
(393,650,o),
(419,615,o),
(419,504,cs),
(419,420,l),
(586,420,l),
(586,496,ls),
(586,660,o),
(491,724,o),
(331,724,cs)
);
},
{
closed = 1;
nodes = (
(578,0,l),
(578,64,l),
(227,64,l),
(227,0,l)
);
}
);
width = 640;
}
);
note = uni0538;
unicode = 1336;
}
{
glyphname = uni0539;
kernLeft = uni0548;
kernRight = uni0543;
layers = (
{
layerId = m001;
shapes = (
{
closed = 1;
nodes = (
(166,20,l),
(116,20,o),
(110,31,o),
(110,108,cs),
(110,495,ls),
(110,611,o),
(173,699,o),
(339,699,cs),
(485,699,o),
(566,624,o),
(566,448,c),
(594,448,l),
(594,648,o),
(497,724,o),
(337,724,cs),
(158,724,o),
(82,626,o),
(82,496,cs),
(82,0,l),
(166,0,l)
);
},
{
closed = 1;
nodes = (
(566,430,l),
(566,229,o),
(516,163,o),
(424,163,cs),
(343,163,o),
(300,211,o),
(300,297,cs),
(300,401,o),
(372,430,o),
(474,430,cs)
);
},
{
closed = 1;
nodes = (
(474,455,ls),
(353,455,o),
(272,414,o),
(272,297,cs),
(272,188,o),
(330,138,o),
(424,138,cs),
(534,138,o),
(594,213,o),
(594,430,c),
(698,430,l),
(698,455,l)
);
}
);
width = 704;
},
{
layerId = m003;
shapes = (
{
closed = 1;
nodes = (
(252,37,l),
(208,37,o),
(202,48,o),
(202,111,cs),
(202,492,ls),
(202,608,o),
(266,677,o),
(401,677,cs),
(529,677,o),
(601,617,o),
(601,453,c),
(702,453,l),
(702,644,o),
(590,724,o),
(400,724,cs),
(203,724,o),
(101,634,o),
(101,493,cs),
(101,0,l),
(252,0,l)
);
},
{
closed = 1;
nodes = (
(601,425,l),
(601,225,o),
(571,176,o),
(501,176,cs),
(438,176,o),
(413,219,o),
(413,299,cs),
(413,388,o),
(465,425,o),
(529,425,cs)
);
},
{
closed = 1;
nodes = (
(521,470,ls),
(396,470,o),
(319,413,o),
(319,305,cs),
(319,191,o),
(378,132,o),
(500,132,cs),
(632,132,o),
(702,213,o),
(702,425,c),
(790,425,l),
(790,470,l)
);
}
);
width = 798;
},
{
layerId = m005;
shapes = (
{
closed = 1;
nodes = (
(335,60,l),
(299,60,o),
(293,69,o),
(293,116,cs),
(293,489,ls),
(293,608,o),
(357,648,o),
(454,648,cs),
(559,648,o),
(619,607,o),
(619,459,c),
(813,459,l),
(813,638,o),
(683,724,o),
(455,724,cs),
(235,724,o),
(99,645,o),
(99,490,cs),
(99,0,l),
(335,0,l)
);
},
{
closed = 1;
nodes = (
(619,418,l),
(619,218,o),
(614,194,o),
(571,194,cs),
(539,194,o),
(530,219,o),
(530,301,cs),
(530,370,o),
(544,418,o),
(578,418,cs)
);
},
{
closed = 1;
nodes = (
(543,488,ls),
(412,488,o),
(353,413,o),
(353,315,cs),
(353,196,o),
(414,124,o),
(571,124,cs),
(730,124,o),
(813,225,o),
(813,418,c),
(881,418,l),
(881,488,l)
);
}
);
width = 885;
},
{
layerId = m006;
shapes = (
{
closed = 1;
nodes = (
(168,20,l),
(118,20,o),
(112,31,o),
(112,107,cs),
(112,512,ls),
(112,620,o),
(155,699,o),
(262,699,cs),
(367,699,o),
(429,640,o),
(429,450,c),
(457,450,l),
(457,659,o),
(383,724,o),
(263,724,cs),
(145,724,o),
(84,645,o),
(84,514,cs),
(84,0,l),
(168,0,l)
);
},
{
closed = 1;
nodes = (
(429,430,l),
(429,229,o),
(392,163,o),
(323,163,cs),
(262,163,o),
(231,215,o),
(231,297,cs),
(231,401,o),
(291,430,o),
(367,430,cs)
);
},
{
closed = 1;
nodes = (
(366,455,ls),
(269,455,o),
(204,414,o),
(204,297,cs),
(204,188,o),
(248,138,o),
(323,138,cs),
(410,138,o),
(457,207,o),
(457,430,c),
(527,430,l),
(527,455,l)
);
}
);
width = 533;
},
{
layerId = m007;
shapes = (
{
closed = 1;
nodes = (
(201,35,l),
(157,35,o),
(146,45,o),
(146,115,cs),
(146,508,ls),
(146,621,o),
(192,677,o),
(302,677,cs),
(400,677,o),
(458,630,o),
(458,456,c),
(522,454,l),
(522,655,o),
(436,724,o),
(304,724,cs),
(150,724,o),
(82,637,o),
(82,510,cs),
(82,0,l),
(201,0,l)
);
},
{
closed = 1;
nodes = (
(458,419,l),
(458,218,o),
(430,180,o),
(368,180,cs),
(314,180,o),
(290,217,o),
(290,298,cs),
(290,394,o),
(338,419,o),
(424,419,cs)
);
},
{
closed = 1;
nodes = (
(416,462,ls),
(292,462,o),
(230,414,o),
(230,301,cs),
(230,195,o),
(277,135,o),
(368,135,cs),
(468,135,o),
(522,199,o),
(522,419,c),
(589,419,l),
(589,462,l)
);
}
);
width = 595;
},
{
layerId = m009;
shapes = (
{
closed = 1;
nodes = (
(299,56,l),
(269,56,o),
(245,63,o),
(245,115,cs),
(245,498,ls),
(245,603,o),
(301,650,o),
(387,650,cs),
(496,650,o),
(540,600,o),
(540,474,c),
(707,464,l),
(707,643,o),
(589,724,o),
(391,724,cs),
(165,724,o),
(78,634,o),
(78,500,cs),
(78,0,l),
(299,0,l)
);
},
{
closed = 1;
nodes = (
(540,419,l),
(540,219,o),
(535,189,o),
(495,189,cs),
(460,189,o),
(457,223,o),
(457,301,cs),
(457,375,o),
(471,419,o),
(504,419,cs)
);
},
{
closed = 1;
nodes = (
(474,483,ls),
(358,483,o),
(305,413,o),
(305,312,cs),
(305,194,o),
(359,126,o),
(496,126,cs),
(635,126,o),
(707,220,o),
(707,419,c),
(768,419,l),
(768,483,l)
);
}
);
width = 772;
}
);
note = uni0539;
unicode = 1337;
}
{
glyphname = uni053A;
kernLeft = uni053A;
kernRight = uni053A;
layers = (
{
layerId = m001;
shapes = (
{
closed = 1;
nodes = (
(398,-10,o),
(449,73,o),
(449,212,cs),
(449,714,l),
(355,714,l),
(355,694,l),
(415,694,o),
(421,683,o),
(421,606,cs),
(421,458,l),
(320,458,ls),
(154,458,o),
(46,378,o),
(46,226,cs),
(46,69,o),
(118,-10,o),
(252,-10,cs)
);
},
{
closed = 1;
nodes = (
(130,15,o),
(74,99,o),
(74,227,cs),
(74,366,o),
(176,433,o),
(320,433,cs),
(421,433,l),
(421,212,ls),
(421,98,o),
(388,15,o),
(253,15,cs)
);
},
{
closed = 1;
nodes = (
(441,433,l),
(572,433,l),
(572,458,l),
(441,458,l)
);
}
);
width = 577;
},
{
layerId = m003;
shapes = (
{
closed = 1;
nodes = (
(456,-10,o),
(530,79,o),
(530,224,cs),
(530,714,l),
(375,714,l),
(375,677,l),
(423,677,o),
(429,666,o),
(429,603,cs),
(429,462,l),
(333,462,ls),
(161,462,o),
(50,374,o),
(50,229,cs),
(50,71,o),
(134,-10,o),
(292,-10,cs)
);
},
{
closed = 1;
nodes = (
(201,37,o),
(157,97,o),
(157,230,cs),
(157,356,o),
(238,418,o),
(345,418,cs),
(430,418,l),
(430,210,ls),
(430,108,o),
(396,37,o),
(296,37,cs)
);
},
{
closed = 1;
nodes = (
(521,418,l),
(661,418,l),
(661,462,l),
(521,462,l)
);
}
);
width = 669;
},
{
layerId = m005;
shapes = (
{
closed = 1;
nodes = (
(520,-10,o),
(624,87,o),
(624,239,cs),
(624,714,l),
(390,714,l),
(390,654,l),
(423,654,o),
(430,645,o),
(430,598,cs),
(430,468,l),
(339,468,ls),
(159,468,o),
(45,369,o),
(45,234,cs),
(45,74,o),
(144,-10,o),
(333,-10,cs)
);
},
{
closed = 1;
nodes = (
(280,66,o),
(252,94,o),
(252,233,cs),
(252,344,o),
(305,398,o),
(365,398,cs),
(430,398,l),
(430,207,ls),
(430,120,o),
(396,66,o),
(339,66,cs)
);
},
{
closed = 1;
nodes = (
(614,398,l),
(765,398,l),
(765,468,l),
(614,468,l)
);
}
);
width = 769;
},
{
layerId = m006;
shapes = (
{
closed = 1;
nodes = (
(331,-10,o),
(401,55,o),
(401,214,cs),
(401,714,l),
(323,714,l),
(323,694,l),
(369,694,o),
(373,683,o),
(373,609,cs),
(373,457,l),
(248,457,ls),
(105,457,o),
(48,353,o),
(48,225,cs),
(48,98,o),
(105,-10,o),
(228,-10,cs)
);
},
{
closed = 1;
nodes = (
(115,15,o),
(76,125,o),
(76,225,cs),
(76,326,o),
(115,432,o),
(247,432,cs),
(373,432,l),
(373,223,ls),
(373,73,o),
(315,15,o),
(227,15,cs)
);
},
{
closed = 1;
nodes = (
(388,432,l),
(511,432,l),
(511,457,l),
(388,457,l)
);
}
);
width = 517;
},
{
layerId = m007;
shapes = (
{
closed = 1;
nodes = (
(362,-10,o),
(439,55,o),
(439,215,cs),
(439,714,l),
(324,714,l),
(324,679,l),
(369,679,o),
(375,669,o),
(375,600,cs),
(375,459,l),
(244,459,ls),
(108,459,o),
(46,373,o),
(46,227,cs),
(46,95,o),
(107,-10,o),
(244,-10,cs)
);
},
{
closed = 1;
nodes = (
(147,37,o),
(110,123,o),
(110,227,cs),
(110,340,o),
(146,416,o),
(244,416,cs),
(375,416,l),
(375,224,ls),
(375,81,o),
(325,37,o),
(244,37,cs)
);
},
{
closed = 1;
nodes = (
(426,416,l),
(556,416,l),
(556,459,l),
(426,459,l)
);
}
);
width = 561;
},
{
layerId = m009;
shapes = (
{
closed = 1;
nodes = (
(451,-10,o),
(550,54,o),
(550,218,cs),
(550,714,l),
(329,714,l),
(329,658,l),
(369,658,o),
(383,653,o),
(383,599,cs),
(383,465,l),
(313,465,ls),
(119,465,o),
(42,403,o),
(42,232,cs),
(42,87,o),
(113,-10,o),
(291,-10,cs)
);
},
{
closed = 1;
nodes = (
(242,64,o),
(209,108,o),
(209,234,cs),
(209,361,o),
(238,401,o),
(315,401,cs),
(383,401,l),
(383,227,ls),
(383,103,o),
(353,64,o),
(293,64,cs)
);
},
{
closed = 1;
nodes = (
(533,401,l),
(684,401,l),
(684,465,l),
(533,465,l)
);
}
);
width = 688;
}
);
note = uni053A;
unicode = 1338;
}
{
color = 10;
glyphname = uni053B;
kernLeft = uni0538;
layers = (
{
layerId = m001;
shapes = (
{
closed = 1;
nodes = (
(117,433,o),
(177,529,o),
(290,529,cs),
(389,529,o),
(451,468,o),
(451,374,cs),
(451,267,l),
(479,267,l),
(479,374,ls),
(479,493,o),
(402,554,o),
(288,554,cs),
(210,554,o),
(150,509,o),
(117,434,c),
(114,434,l),
(116,466,o),
(117,499,o),
(117,531,cs),
(117,714,l),
(33,714,l),
(33,694,l),
(83,694,o),
(89,688,o),
(89,611,cs),
(89,0,l),
(173,0,l),
(173,20,l),
(123,20,o),
(117,26,o),
(117,103,cs),
(117,325,ls)
);
}
);
width = 530;
},
{
layerId = m003;
shapes = (
{
closed = 1;
nodes = (
(209,422,o),
(260,507,o),
(360,507,cs),
(436,507,o),
(483,464,o),
(483,355,cs),
(483,271,l),
(584,271,l),
(584,346,ls),
(584,491,o),
(516,557,o),
(382,557,cs),
(295,557,o),
(245,520,o),
(211,463,c),
(205,462,l),
(208,492,o),
(209,524,o),
(209,556,cs),
(209,714,l),
(58,714,l),
(58,677,l),
(102,677,o),
(108,668,o),
(108,605,cs),
(108,0,l),
(260,0,l),
(260,37,l),
(216,37,o),
(209,46,o),
(209,109,cs),
(209,318,l)
);
}
);
width = 649;
},
{
associatedMasterId = m003;
attr = {
coordinates = (
152,
100
);
};
background = {
shapes = (
{
closed = 1;
nodes = (
(264.68,414.46,o),
(308.72,490.18,o),
(398.86,490.18,cs),
(458.62,490.18,o),
(493.44,461.1,o),
(493.44,341.08,cs),
(493.44,273.9,l),
(648.38,273.9,l),
(648.38,325.7,ls),
(648.38,489.26,o),
(587.34,559.9,o),
(438.84,559.9,cs),
(345.46,559.9,o),
(301.84,528.7,o),
(267.84,483.88,c),
(260.1,482.88,l),
(263.68,511.72,o),
(264.68,541.98,o),
(264.68,573.98,cs),
(264.68,714,l),
(63.8,714,l),
(63.8,663.66,l),
(103.16,663.66,o),
(109.74,653.5,o),
(109.74,600.36,cs),
(109.74,0,l),
(311.04,0,l),
(311.04,50.34,l),
(272.26,50.34,o),
(264.68,60.5,o),
(264.68,113.64,cs),
(264.68,312.2,ls)
);
}
);
};
layerId = "8e22c46b-39bb-4f2e-aac7-772e313c34ad";
name = "SemiBold (intermediate)";
shapes = (
{
closed = 1;
nodes = (
(268,414,o),
(311,489,o),
(401,489,cs),
(460,489,o),
(494,461,o),
(494,340,cs),
(494,274,l),
(652,274,l),
(652,325,ls),
(652,489,o),
(591,560,o),
(442,560,cs),
(348,560,o),
(305,529,o),
(271,485,c),
(263,484,l),
(267,513,o),
(268,543,o),
(268,575,cs),
(268,714,l),
(64,714,l),
(64,663,l),
(103,663,o),
(110,653,o),
(110,600,cs),
(110,0,l),
(314,0,l),
(314,51,l),
(275,51,o),
(268,61,o),
(268,114,cs),
(268,312,ls)
);
}
);
width = 720;
},
{
layerId = m005;
shapes = (
{
closed = 1;
nodes = (
(305,409,o),
(344,478,o),
(427,478,cs),
(475,478,o),
(501,459,o),
(501,331,cs),
(501,276,l),
(695,276,l),
(695,311,ls),
(695,488,o),
(639,562,o),
(480,562,cs),
(382,562,o),
(343,535,o),
(309,499,c),
(300,498,l),
(304,526,o),
(305,555,o),
(305,587,cs),
(305,714,l),
(68,714,l),
(68,654,l),
(104,654,o),
(111,643,o),
(111,597,cs),
(111,0,l),
(348,0,l),
(348,60,l),
(313,60,o),
(305,71,o),
(305,117,cs),
(305,308,ls)
);
}
);
width = 752;
},
{
layerId = m006;
shapes = (
{
closed = 1;
nodes = (
(114,458,o),
(176,529,o),
(265,529,cs),
(341,529,o),
(382,484,o),
(382,379,cs),
(382,263,l),
(408,263,l),
(408,391,ls),
(408,496,o),
(360,554,o),
(267,554,cs),
(209,554,o),
(149,528,o),
(116,462,c),
(112,462,l),
(113,482,o),
(114,503,o),
(114,524,cs),
(114,714,l),
(36,714,l),
(36,694,l),
(82,694,o),
(86,683,o),
(86,609,cs),
(86,0,l),
(164,0,l),
(164,20,l),
(118,20,o),
(114,31,o),
(114,105,cs),
(114,391,ls)
);
}
);
width = 460;
},
{
layerId = m007;
shapes = (
{
closed = 1;
nodes = (
(148,445,o),
(202,504,o),
(279,504,cs),
(349,504,o),
(383,468,o),
(383,375,cs),
(383,266,l),
(446,266,l),
(446,384,ls),
(446,497,o),
(393,554,o),
(297,554,cs),
(240,554,o),
(183,529,o),
(150,467,c),
(146,467,l),
(147,488,o),
(148,510,o),
(148,532,cs),
(148,714,l),
(33,714,l),
(33,679,l),
(77,679,o),
(84,669,o),
(84,600,cs),
(84,0,l),
(199,0,l),
(199,35,l),
(157,35,o),
(148,45,o),
(148,114,cs),
(148,373,ls)
);
}
);
width = 497;
},
{
layerId = m009;
shapes = (
{
closed = 1;
nodes = (
(247,403,o),
(278,458,o),
(321,458,cs),
(374,458,o),
(389,423,o),
(389,362,cs),
(389,276,l),
(556,276,l),
(556,364,ls),
(556,498,o),
(494,554,o),
(384,554,cs),
(329,554,o),
(283,531,o),
(247,482,c),
(243,482,l),
(245,506,o),
(247,530,o),
(247,554,cs),
(247,714,l),
(26,714,l),
(26,658,l),
(66,658,o),
(80,653,o),
(80,599,cs),
(80,0,l),
(301,0,l),
(301,56,l),
(271,56,o),
(247,63,o),
(247,115,cs),
(247,316,ls)
);
}
);
width = 604;
}
);
note = uni053B;
unicode = 1339;
}
{
glyphname = uni053C;
kernLeft = uni0538;
layers = (
{
layerId = m001;
shapes = (
{
closed = 1;
nodes = (
(389,87,l),
(389,32,o),
(382,25,o),
(330,25,cs),
(117,25,l),
(117,714,l),
(33,714,l),
(33,694,l),
(83,694,o),
(89,688,o),
(89,611,cs),
(89,0,l),
(414,0,l),
(414,87,l)
);
}
);
width = 424;
},
{
layerId = m003;
shapes = (
{
closed = 1;
nodes = (
(467,99,l),
(467,53,o),
(463,45,o),
(417,45,cs),
(209,45,l),
(209,714,l),
(58,714,l),
(58,677,l),
(102,677,o),
(108,668,o),
(108,605,cs),
(108,0,l),
(509,0,l),
(509,99,l)
);
}
);
width = 519;
},
{
layerId = m005;
shapes = (
{
closed = 1;
nodes = (
(545,115,l),
(545,81,o),
(542,70,o),
(505,70,cs),
(305,70,l),
(305,714,l),
(68,714,l),
(68,654,l),
(104,654,o),
(111,643,o),
(111,597,cs),
(111,0,l),
(609,0,l),
(609,115,l)
);
}
);
width = 618;
},
{
layerId = m006;
shapes = (
{
closed = 1;
nodes = (
(321,87,l),
(321,32,o),
(316,25,o),
(277,25,cs),
(114,25,l),
(114,714,l),
(36,714,l),
(36,694,l),
(79,694,o),
(86,688,o),
(86,611,cs),
(86,0,l),
(342,0,l),
(342,87,l)
);
}
);
width = 352;
},
{
layerId = m007;
shapes = (
{
closed = 1;
nodes = (
(351,101,l),
(351,51,o),
(346,43,o),
(309,43,cs),
(148,43,l),
(148,714,l),
(33,714,l),
(33,679,l),
(76,679,o),
(84,672,o),
(84,602,cs),
(84,0,l),
(386,0,l),
(386,101,l)
);
}
);
width = 396;
},
{
layerId = m009;
shapes = (
{
closed = 1;
nodes = (
(460,111,l),
(460,74,o),
(458,64,o),
(424,64,cs),
(247,64,l),
(247,714,l),
(26,714,l),
(26,661,l),
(68,661,o),
(80,650,o),
(80,599,cs),
(80,0,l),
(515,0,l),
(515,111,l)
);
}
);
width = 523;
}
);
note = uni053C;
unicode = 1340;
}
{
color = 10;
glyphname = uni053D;
kernLeft = uni0538;
layers = (
{
layerId = m001;
shapes = (
{
closed = 1;
nodes = (
(117,714,l),
(33,714,l),
(33,694,l),
(83,694,o),
(89,688,o),
(89,611,cs),
(89,0,l),
(173,0,l),
(173,20,l),
(123,20,o),
(117,26,o),
(117,103,cs)
);
},
{
closed = 1;
nodes = (
(517,540,o),
(523,533,o),
(523,473,cs),
(523,331,ls),
(523,228,o),
(493,189,o),
(410,189,cs),
(344,189,o),
(303,220,o),
(303,331,cs),
(303,560,l),
(99,560,l),
(99,535,l),
(275,535,l),
(275,331,ls),
(275,210,o),
(323,164,o),
(410,164,cs),
(508,164,o),
(551,217,o),
(551,334,cs),
(551,560,l),
(465,560,l),
(465,540,l)
);
}
);
width = 602;
},
{
layerId = m003;
shapes = (
{
closed = 1;
nodes = (
(209,714,l),
(58,714,l),
(58,677,l),
(102,677,o),
(108,668,o),
(108,605,cs),
(108,0,l),
(260,0,l),
(260,37,l),
(216,37,o),
(209,46,o),
(209,109,cs)
);
},
{
closed = 1;
nodes = (
(631,521,o),
(643,513,o),
(643,467,cs),
(643,335,ls),
(643,245,o),
(618,206,o),
(548,206,cs),
(486,206,o),
(457,241,o),
(457,335,cs),
(457,560,l),
(188,560,l),
(188,515,l),
(356,515,l),
(356,335,ls),
(356,214,o),
(433,160,o),
(548,160,cs),
(668,160,o),
(744,218,o),
(744,336,cs),
(744,560,l),
(589,560,l),
(589,521,l)
);
}
);
width = 811;
},
{
associatedMasterId = m003;
attr = {
coordinates = (
152,
100
);
};
background = {
shapes = (
{
closed = 1;
nodes = (
(264.68,714,l),
(63.8,714,l),
(63.8,663.66,l),
(103.16,663.66,o),
(109.74,653.5,o),
(109.74,600.36,cs),
(109.74,0,l),
(311.04,0,l),
(311.04,50.34,l),
(272.26,50.34,o),
(264.68,60.5,o),
(264.68,113.64,cs)
);
},
{
closed = 1;
nodes = (
(697.7,507.66,o),
(713.76,498.5,o),
(713.76,462.94,cs),
(713.76,338.48,ls),
(713.76,257.18,o),
(692.82,219.34,o),
(632.68,219.34,cs),
(573.58,219.34,o),
(552.7,257.24,o),
(552.7,338.48,cs),
(552.7,560,l),
(241.94,560,l),
(241.94,500.5,l),
(397.76,500.5,l),
(397.76,337.9,ls),
(397.76,217.48,o),
(491.58,157.1,o),
(632.68,157.1,cs),
(774.72,157.1,o),
(868.7,218,o),
(868.7,337.74,cs),
(868.7,560,l),
(663.24,560,l),
(663.24,507.66,l)
);
}
);
};
layerId = "3a0921e6-092d-45cc-92d4-e3916f573718";
name = "SemiBold (intermediate)";
shapes = (
{
closed = 1;
nodes = (
(268,714,l),
(64,714,l),
(64,663,l),
(103,663,o),
(110,653,o),
(110,600,cs),
(110,0,l),
(314,0,l),
(314,51,l),
(275,51,o),
(268,61,o),
(268,114,cs)
);
},
{
closed = 1;
nodes = (
(708,507,o),
(724,498,o),
(724,463,cs),
(724,339,ls),
(724,258,o),
(703,220,o),
(644,220,cs),
(585,220,o),
(564,258,o),
(564,339,cs),
(564,560,l),
(245,560,l),
(245,499,l),
(406,499,l),
(406,338,ls),
(406,218,o),
(507,157,o),
(644,157,cs),
(781,157,o),
(882,218,o),
(882,338,cs),
(882,560,l),
(674,560,l),
(674,507,l)
);
}
);
width = 944;
},
{
layerId = m005;
shapes = (
{
closed = 1;
nodes = (
(305,714,l),
(68,714,l),
(68,654,l),
(104,654,o),
(111,643,o),
(111,597,cs),
(111,0,l),
(348,0,l),
(348,60,l),
(313,60,o),
(305,71,o),
(305,117,cs)
);
},
{
closed = 1;
nodes = (
(746,498,o),
(765,488,o),
(765,460,cs),
(765,341,ls),
(765,266,o),
(747,229,o),
(694,229,cs),
(637,229,o),
(622,269,o),
(622,341,cs),
(622,560,l),
(281,560,l),
(281,490,l),
(428,490,l),
(428,340,ls),
(428,220,o),
(534,155,o),
(694,155,cs),
(852,155,o),
(959,218,o),
(959,339,cs),
(959,560,l),
(717,560,l),
(717,498,l)
);
}
);
width = 1018;
},
{
layerId = m006;
shapes = (
{
closed = 1;
nodes = (
(114,714,l),
(36,714,l),
(36,694,l),
(82,694,o),
(86,683,o),
(86,609,cs),
(86,0,l),
(164,0,l),
(164,20,l),
(118,20,o),
(114,31,o),
(114,105,cs)
);
},
{
closed = 1;
nodes = (
(425,540,o),
(430,533,o),
(430,473,cs),
(430,331,ls),
(430,228,o),
(408,189,o),
(345,189,cs),
(295,189,o),
(264,220,o),
(264,331,cs),
(264,560,l),
(102,560,l),
(102,535,l),
(236,535,l),
(236,331,ls),
(236,206,o),
(276,164,o),
(345,164,cs),
(422,164,o),
(458,213,o),
(458,334,cs),
(458,560,l),
(386,560,l),
(386,540,l)
);
}
);
width = 510;
},
{
layerId = m007;
shapes = (
{
closed = 1;
nodes = (
(148,714,l),
(33,714,l),
(33,679,l),
(77,679,o),
(84,669,o),
(84,600,cs),
(84,0,l),
(199,0,l),
(199,35,l),
(157,35,o),
(148,45,o),
(148,114,cs)
);
},
{
closed = 1;
nodes = (
(481,525,o),
(489,517,o),
(489,464,cs),
(489,333,ls),
(489,236,o),
(468,207,o),
(409,207,cs),
(359,207,o),
(333,231,o),
(333,333,cs),
(333,560,l),
(133,560,l),
(133,517,l),
(269,517,l),
(269,333,ls),
(269,209,o),
(324,162,o),
(409,162,cs),
(500,162,o),
(553,214,o),
(553,335,cs),
(553,560,l),
(445,560,l),
(445,525,l)
);
}
);
width = 604;
},
{
layerId = m009;
shapes = (
{
closed = 1;
nodes = (
(245,714,l),
(26,714,l),
(26,658,l),
(66,658,o),
(78,653,o),
(78,599,cs),
(78,0,l),
(299,0,l),
(299,56,l),
(269,56,o),
(245,63,o),
(245,115,cs)
);
},
{
closed = 1;
nodes = (
(641,504,o),
(658,494,o),
(658,461,cs),
(658,339,ls),
(658,260,o),
(642,223,o),
(594,223,cs),
(544,223,o),
(530,262,o),
(530,339,cs),
(530,560,l),
(223,560,l),
(223,496,l),
(363,496,l),
(363,338,ls),
(363,218,o),
(463,157,o),
(594,157,cs),
(723,157,o),
(825,218,o),
(825,339,cs),
(825,560,l),
(615,560,l),
(615,504,l)
);
}
);
width = 873;
}
);
note = uni053D;
unicode = 1341;
}
{
color = 10;
glyphname = uni053E;
kernLeft = uni053E;
layers = (
{
layerId = m001;
shapes = (
{
closed = 1;
nodes = (
(85,616,o),
(50,651,o),
(50,714,c),
(25,714,l),
(25,635,o),
(67,596,o),
(191,563,cs),
(417,502,o),
(488,379,o),
(488,230,cs),
(488,96,o),
(396,15,o),
(271,15,cs),
(115,15,o),
(58,91,o),
(58,244,cs),
(58,440,o),
(262,704,o),
(376,704,cs),
(413,704,o),
(441,693,o),
(442,620,c),
(456,620,o),
(469,626,o),
(469,646,cs),
(469,700,o),
(434,729,o),
(376,729,cs),
(245,729,o),
(30,449,o),
(30,244,cs),
(30,74,o),
(98,-10,o),
(271,-10,cs),
(414,-10,o),
(516,79,o),
(516,230,cs),
(516,394,o),
(434,525,o),
(205,585,cs)
);
}
);
width = 558;
},
{
layerId = m003;
shapes = (
{
closed = 1;
nodes = (
(164,623,o),
(136,659,o),
(136,714,c),
(39,714,l),
(39,630,o),
(92,588,o),
(226,564,cs),
(425,528,o),
(517,407,o),
(517,256,cs),
(517,115,o),
(444,37,o),
(337,37,cs),
(209,37,o),
(162,118,o),
(162,252,cs),
(162,443,o),
(337,675,o),
(462,675,cs),
(512,675,o),
(543,650,o),
(544,576,c),
(594,576,o),
(631,598,o),
(631,634,cs),
(631,692,o),
(583,726,o),
(498,726,cs),
(291,726,o),
(56,454,o),
(56,255,cs),
(56,87,o),
(141,-10,o),
(337,-10,cs),
(505,-10,o),
(624,98,o),
(624,256,cs),
(624,428,o),
(491,560,o),
(266,603,cs)
);
}
);
width = 678;
},
{
associatedMasterId = m003;
attr = {
coordinates = (
152,
100
);
};
background = {
shapes = (
{
closed = 1;
nodes = (
(205.76,616.04,o),
(183.56,653.2,o),
(183.56,714,c),
(32.62,714,l),
(32.62,626.52,o),
(94.9,567.7,o),
(234.7,548.92,cs),
(448.78,520.46,o),
(521.64,427.3,o),
(521.64,275.14,cs),
(521.64,128.34,o),
(463.14,53.82,o),
(369.48,53.82,cs),
(262.36,53.82,o),
(222.9,137.72,o),
(222.9,258.38,cs),
(222.9,452.28,o),
(375.86,653.54,o),
(509.56,653.54,cs),
(568.84,653.54,o),
(601.58,618.68,o),
(602,543.52,c),
(678.68,543.52,o),
(734.24,577.12,o),
(734.24,625.3,cs),
(734.24,685.62,o),
(675.8,724.26,o),
(571.08,724.26,cs),
(308.4,724.26,o),
(58.32,457.48,o),
(58.32,263.7,cs),
(58.32,97.44,o),
(155.5,-10,o),
(369.48,-10,cs),
(555.46,-10,o),
(686.64,111.34,o),
(686.64,275.72,cs),
(686.64,451.78,o),
(544.94,557.68,o),
(293.84,600.68,cs)
);
}
);
};
layerId = "e6118178-b17d-446d-8713-4b8a62b32ea5";
name = "SemiBold (intermediate)";
shapes = (
{
closed = 1;
nodes = (
(208,625,o),
(186,665,o),
(186,714,c),
(32,714,l),
(32,626,o),
(95,576,o),
(235,557,cs),
(414,533,o),
(522,428,o),
(522,276,cs),
(522,129,o),
(464,55,o),
(371,55,cs),
(265,55,o),
(226,139,o),
(226,259,cs),
(226,453,o),
(378,652,o),
(512,652,cs),
(572,652,o),
(605,617,o),
(605,542,c),
(683,542,o),
(740,576,o),
(740,625,cs),
(740,685,o),
(681,724,o),
(575,724,cs),
(309,724,o),
(58,458,o),
(58,264,cs),
(58,98,o),
(156,-10,o),
(371,-10,cs),
(558,-10,o),
(690,112,o),
(690,277,cs),
(690,454,o),
(518,572,o),
(295,610,cs)
);
}
);
width = 746;
},
{
layerId = m005;
shapes = (
{
closed = 1;
nodes = (
(236,611,o),
(218,649,o),
(218,714,c),
(28,714,l),
(28,624,o),
(97,553,o),
(241,538,cs),
(466,515,o),
(525,442,o),
(525,289,cs),
(525,138,o),
(477,66,o),
(393,66,cs),
(301,66,o),
(267,152,o),
(267,263,cs),
(267,459,o),
(404,638,o),
(544,638,cs),
(610,638,o),
(644,596,o),
(644,520,c),
(740,520,o),
(809,562,o),
(809,619,cs),
(809,681,o),
(743,723,o),
(624,723,cs),
(321,723,o),
(60,460,o),
(60,270,cs),
(60,105,o),
(166,-10,o),
(393,-10,cs),
(592,-10,o),
(732,121,o),
(732,290,cs),
(732,469,o),
(584,556,o),
(314,599,cs)
);
}
);
width = 789;
},
{
layerId = m006;
shapes = (
{
closed = 1;
nodes = (
(83,598,o),
(56,647,o),
(56,714,c),
(30,714,l),
(30,635,o),
(65,580,o),
(149,547,cs),
(330,475,o),
(388,359,o),
(388,230,cs),
(388,96,o),
(323,15,o),
(224,15,cs),
(111,15,o),
(63,91,o),
(63,234,cs),
(63,430,o),
(222,704,o),
(316,704,cs),
(346,704,o),
(368,693,o),
(368,620,c),
(382,620,o),
(395,626,o),
(395,646,cs),
(395,700,o),
(367,729,o),
(319,729,cs),
(205,729,o),
(35,439,o),
(35,234,cs),
(35,74,o),
(94,-10,o),
(224,-10,cs),
(341,-10,o),
(416,79,o),
(416,230,cs),
(416,374,o),
(348,499,o),
(160,569,cs)
);
}
);
width = 455;
},
{
layerId = m007;
shapes = (
{
closed = 1;
nodes = (
(112,607,o),
(88,645,o),
(88,714,c),
(25,714,l),
(25,628,o),
(68,575,o),
(162,542,cs),
(343,479,o),
(404,383,o),
(404,243,cs),
(404,105,o),
(345,35,o),
(256,35,cs),
(147,35,o),
(103,104,o),
(103,248,cs),
(103,469,o),
(249,689,o),
(347,689,cs),
(384,689,o),
(408,672,o),
(408,598,c),
(440,598,o),
(465,612,o),
(465,640,cs),
(465,696,o),
(429,728,o),
(367,728,cs),
(195,728,o),
(37,444,o),
(37,250,cs),
(37,81,o),
(104,-10,o),
(256,-10,cs),
(384,-10,o),
(471,83,o),
(471,243,cs),
(471,397,o),
(386,516,o),
(187,582,cs)
);
}
);
width = 513;
},
{
layerId = m009;
shapes = (
{
closed = 1;
nodes = (
(196,609,o),
(179,645,o),
(179,714,c),
(12,714,l),
(12,611,o),
(75,558,o),
(201,541,cs),
(383,516,o),
(452,433,o),
(452,280,cs),
(452,132,o),
(408,58,o),
(333,58,cs),
(250,58,o),
(220,143,o),
(220,260,cs),
(220,455,o),
(342,648,o),
(465,648,cs),
(523,648,o),
(552,611,o),
(552,536,c),
(635,536,o),
(695,572,o),
(695,623,cs),
(695,684,o),
(637,724,o),
(533,724,cs),
(271,724,o),
(43,471,o),
(43,266,cs),
(43,100,o),
(135,-10,o),
(333,-10,cs),
(507,-10,o),
(629,95,o),
(629,281,cs),
(629,443,o),
(528,546,o),
(264,596,cs)
);
}
);
width = 680;
}
);
note = uni053E;
unicode = 1342;
}
{
glyphname = uni053F;
kernLeft = uni053F;
layers = (
{
layerId = m001;
shapes = (
{
closed = 1;
nodes = (
(521,0,l),
(521,20,l),
(471,20,o),
(465,24,o),
(465,88,cs),
(465,477,l),
(381,477,l),
(381,457,l),
(431,457,o),
(437,446,o),
(437,396,cs),
(437,389,ls),
(437,276,o),
(387,185,o),
(263,185,cs),
(175,185,o),
(113,246,o),
(113,340,cs),
(113,714,l),
(29,714,l),
(29,694,l),
(79,694,o),
(85,683,o),
(85,606,cs),
(85,340,ls),
(85,221,o),
(162,160,o),
(263,160,cs),
(354,160,o),
(407,197,o),
(437,265,c),
(440,265,l),
(438,233,o),
(437,200,o),
(437,168,cs),
(437,0,l)
);
}
);
width = 555;
},
{
layerId = m003;
shapes = (
{
closed = 1;
nodes = (
(622,0,l),
(622,37,l),
(578,37,o),
(571,44,o),
(571,91,cs),
(571,478,l),
(420,478,l),
(420,441,l),
(464,441,o),
(470,431,o),
(470,390,cs),
(470,374,ls),
(470,289,o),
(424,207,o),
(319,207,cs),
(248,207,o),
(201,250,o),
(201,359,cs),
(201,714,l),
(50,714,l),
(50,677,l),
(94,677,o),
(100,666,o),
(100,614,cs),
(100,357,ls),
(100,220,o),
(171,157,o),
(296,157,cs),
(389,157,o),
(436,190,o),
(469,245,c),
(474,245,l),
(471,215,o),
(470,184,o),
(470,152,cs),
(470,0,l)
);
}
);
width = 674;
},
{
layerId = m005;
shapes = (
{
closed = 1;
nodes = (
(730,0,l),
(730,60,l),
(694,60,o),
(687,70,o),
(687,96,cs),
(687,480,l),
(450,480,l),
(450,420,l),
(486,420,o),
(493,412,o),
(493,382,cs),
(493,355,ls),
(493,307,o),
(452,236,o),
(371,236,cs),
(320,236,o),
(294,255,o),
(294,383,cs),
(294,714,l),
(57,714,l),
(57,654,l),
(93,654,o),
(100,645,o),
(100,624,cs),
(100,378,ls),
(100,218,o),
(163,152,o),
(319,152,cs),
(414,152,o),
(454,183,o),
(489,220,c),
(499,220,l),
(494,192,o),
(493,163,o),
(493,131,cs),
(493,0,l)
);
}
);
width = 785;
},
{
layerId = m006;
shapes = (
{
closed = 1;
nodes = (
(454,0,l),
(454,20,l),
(408,20,o),
(404,31,o),
(404,105,cs),
(404,474,l),
(326,474,l),
(326,454,l),
(372,454,o),
(376,443,o),
(376,369,cs),
(376,321,ls),
(376,254,o),
(314,185,o),
(225,185,cs),
(149,185,o),
(108,230,o),
(108,335,cs),
(108,714,l),
(32,714,l),
(32,694,l),
(78,694,o),
(82,683,o),
(82,609,cs),
(82,323,ls),
(82,218,o),
(130,160,o),
(223,160,cs),
(281,160,o),
(341,186,o),
(374,252,c),
(378,252,l),
(377,232,o),
(376,211,o),
(376,190,cs),
(376,0,l)
);
}
);
width = 490;
},
{
layerId = m007;
shapes = (
{
closed = 1;
nodes = (
(493,0,l),
(493,35,l),
(449,35,o),
(442,45,o),
(442,114,cs),
(442,477,l),
(328,477,l),
(328,441,l),
(370,441,o),
(378,431,o),
(378,369,cs),
(378,325,ls),
(378,264,o),
(324,207,o),
(247,207,cs),
(177,207,o),
(144,243,o),
(144,337,cs),
(144,714,l),
(29,714,l),
(29,679,l),
(71,679,o),
(80,669,o),
(80,600,cs),
(80,327,l),
(80,215,o),
(133,157,o),
(229,157,cs),
(286,157,o),
(343,183,o),
(377,244,c),
(381,244,l),
(379,222,o),
(378,201,o),
(378,180,cs),
(378,0,l)
);
}
);
width = 527;
},
{
layerId = m009;
shapes = (
{
closed = 1;
nodes = (
(606,0,l),
(606,56,l),
(566,56,o),
(552,61,o),
(552,115,cs),
(552,484,l),
(334,484,l),
(334,428,l),
(364,428,o),
(385,421,o),
(385,369,cs),
(385,338,ls),
(385,292,o),
(356,246,o),
(311,246,cs),
(257,246,o),
(243,282,o),
(243,342,cs),
(243,714,l),
(22,714,l),
(22,658,l),
(52,658,o),
(76,651,o),
(76,599,cs),
(76,340,l),
(76,206,o),
(140,150,o),
(248,150,cs),
(303,150,o),
(351,174,o),
(387,222,c),
(391,222,l),
(386,198,o),
(385,174,o),
(385,150,cs),
(385,0,l)
);
}
);
width = 632;
}
);
note = uni053F;
unicode = 1343;
}
{
glyphname = uni0540;
kernLeft = uni0540;
kernRight = uni0540;
layers = (
{
layerId = m001;
shapes = (
{
closed = 1;
nodes = (
(403,-63,l),
(403,-50,ls),
(403,36,o),
(361,63,o),
(301,67,cs),
(43,83,l),
(41,58,l),
(299,42,ls),
(344,39,o),
(375,12,o),
(375,-47,cs),
(375,-63,l)
);
},
{
closed = 1;
nodes = (
(69,436,o),
(166,704,o),
(306,704,cs),
(356,704,o),
(384,687,o),
(385,615,c),
(399,615,o),
(412,621,o),
(412,641,cs),
(412,694,o),
(377,729,o),
(306,729,cs),
(148,729,o),
(41,463,o),
(41,58,c),
(69,58,l)
);
}
);
width = 457;
},
{
layerId = m003;
shapes = (
{
closed = 1;
nodes = (
(524,-62,l),
(524,-49,ls),
(524,48,o),
(473,80,o),
(360,96,cs),
(64,137,l),
(54,90,l),
(351,49,ls),
(399,42,o),
(423,17,o),
(423,-45,cs),
(423,-62,l)
);
},
{
closed = 1;
nodes = (
(168,476,o),
(246,679,o),
(354,679,cs),
(415,679,o),
(444,647,o),
(444,559,c),
(494,559,o),
(532,581,o),
(532,620,cs),
(532,688,o),
(472,726,o),
(365,726,cs),
(181,726,o),
(71,523,o),
(54,90,c),
(155,90,l)
);
}
);
width = 581;
},
{
layerId = m005;
shapes = (
{
closed = 1;
nodes = (
(652,-62,l),
(652,-49,ls),
(652,59,o),
(601,93,o),
(425,130,cs),
(65,206,l),
(44,131,l),
(391,59,ls),
(443,48,o),
(458,23,o),
(458,-42,cs),
(458,-62,l)
);
},
{
closed = 1;
nodes = (
(267,527,o),
(322,647,o),
(388,647,cs),
(464,647,o),
(493,596,o),
(493,489,c),
(588,489,o),
(658,530,o),
(658,592,cs),
(658,681,o),
(566,723,o),
(414,723,cs),
(197,723,o),
(82,598,o),
(44,131,c),
(238,131,l)
);
}
);
width = 695;
},
{
layerId = m006;
shapes = (
{
closed = 1;
nodes = (
(330,-63,l),
(330,-50,ls),
(330,36,o),
(297,63,o),
(246,67,cs),
(44,83,l),
(42,58,l),
(243,42,ls),
(278,39,o),
(302,12,o),
(302,-47,cs),
(302,-63,l)
);
},
{
closed = 1;
nodes = (
(71,436,o),
(144,704,o),
(249,704,cs),
(288,704,o),
(310,687,o),
(311,615,c),
(324,615,o),
(337,621,o),
(337,641,cs),
(337,694,o),
(308,729,o),
(250,729,cs),
(121,729,o),
(43,463,o),
(42,58,c),
(70,58,l)
);
}
);
width = 385;
},
{
layerId = m007;
shapes = (
{
closed = 1;
nodes = (
(392,-63,l),
(392,-49,ls),
(392,42,o),
(353,80,o),
(275,90,cs),
(47,118,l),
(41,74,l),
(269,46,ls),
(307,41,o),
(328,14,o),
(328,-46,cs),
(328,-63,l)
);
},
{
closed = 1;
nodes = (
(112,462,o),
(179,683,o),
(277,683,cs),
(319,683,o),
(342,658,o),
(342,579,c),
(373,579,o),
(398,601,o),
(398,630,cs),
(398,691,o),
(359,728,o),
(283,728,cs),
(134,728,o),
(51,496,o),
(41,74,c),
(105,74,l)
);
}
);
width = 443;
},
{
layerId = m009;
shapes = (
{
closed = 1;
nodes = (
(570,-62,l),
(570,-47,ls),
(570,60,o),
(515,92,o),
(359,125,cs),
(58,188,l),
(40,120,l),
(345,56,ls),
(390,47,o),
(403,21,o),
(403,-42,cs),
(403,-62,l)
);
},
{
closed = 1;
nodes = (
(232,536,o),
(281,656,o),
(360,656,cs),
(408,656,o),
(434,610,o),
(434,509,c),
(515,509,o),
(575,544,o),
(575,600,cs),
(575,683,o),
(506,724,o),
(380,724,cs),
(174,724,o),
(76,592,o),
(40,120,c),
(207,120,l)
);
}
);
width = 609;
}
);
note = uni0540;
unicode = 1344;
}
{
glyphname = uni0541;
kernLeft = uni0541;
kernRight = uni0536;
layers = (
{
layerId = m001;
shapes = (
{
closed = 1;
nodes = (
(130,348,o),
(67,421,o),
(67,526,cs),
(67,637,o),
(140,703,o),
(270,703,cs),
(399,703,o),
(463,614,o),
(463,469,cs),
(463,455,o),
(463,439,o),
(461,421,c),
(416,381,o),
(336,348,o),
(254,348,cs)
);
},
{
closed = 1;
nodes = (
(430,191,o),
(299,15,o),
(153,15,cs),
(96,15,o),
(62,46,o),
(62,93,cs),
(62,145,o),
(103,184,o),
(168,184,cs),
(302,184,o),
(344,-10,o),
(477,-10,cs),
(498,-10,o),
(508,-1,o),
(508,15,c),
(342,15,o),
(335,209,o),
(168,209,cs),
(86,209,o),
(34,160,o),
(34,93,cs),
(34,31,o),
(80,-10,o),
(153,-10,cs),
(340,-10,o),
(491,230,o),
(491,467,cs),
(491,634,o),
(416,728,o),
(270,728,cs),
(124,728,o),
(39,649,o),
(39,526,cs),
(39,410,o),
(108,323,o),
(253,323,cs),
(342,323,o),
(420,356,o),
(457,389,c)
);
}
);
width = 535;
},
{
layerId = m003;
shapes = (
{
closed = 1;
nodes = (
(206,360,o),
(153,420,o),
(153,518,cs),
(153,618,o),
(213,678,o),
(305,678,cs),
(399,678,o),
(452,611,o),
(452,477,cs),
(452,458,o),
(451,432,o),
(449,411,c),
(417,384,o),
(356,360,o),
(298,360,cs)
);
},
{
closed = 1;
nodes = (
(424,186,o),
(332,37,o),
(211,37,cs),
(164,37,o),
(144,63,o),
(144,105,cs),
(144,149,o),
(167,180,o),
(214,180,cs),
(335,180,o),
(367,-10,o),
(527,-10,cs),
(560,-10,o),
(579,10,o),
(580,43,c),
(389,43,o),
(388,226,o),
(213,226,cs),
(116,226,o),
(53,175,o),
(53,101,cs),
(53,32,o),
(105,-10,o),
(206,-10,cs),
(392,-10,o),
(559,201,o),
(559,461,cs),
(559,645,o),
(453,725,o),
(305,725,cs),
(151,725,o),
(47,645,o),
(47,516,cs),
(47,394,o),
(145,315,o),
(276,315,cs),
(351,315,o),
(409,332,o),
(443,355,c)
);
}
);
width = 620;
},
{
layerId = m005;
shapes = (
{
closed = 1;
nodes = (
(285,376,o),
(244,418,o),
(244,508,cs),
(244,594,o),
(286,646,o),
(331,646,cs),
(379,646,o),
(420,606,o),
(420,487,cs),
(420,461,o),
(418,424,o),
(415,399,c),
(400,387,o),
(362,376,o),
(335,376,cs)
);
},
{
closed = 1;
nodes = (
(398,206,o),
(356,66,o),
(283,66,cs),
(254,66,o),
(231,86,o),
(231,121,cs),
(231,154,o),
(252,177,o),
(279,177,cs),
(359,177,o),
(378,-10,o),
(573,-10,cs),
(622,-10,o),
(652,25,o),
(654,78,c),
(420,78,o),
(438,247,o),
(224,247,cs),
(137,247,o),
(60,206,o),
(60,127,cs),
(60,34,o),
(120,-10,o),
(256,-10,cs),
(444,-10,o),
(626,199,o),
(626,454,cs),
(626,658,o),
(481,722,o),
(331,722,cs),
(166,722,o),
(39,639,o),
(39,504,cs),
(39,374,o),
(160,304,o),
(304,304,cs),
(343,304,o),
(377,306,o),
(407,315,c)
);
}
);
width = 681;
},
{
layerId = m006;
shapes = (
{
closed = 1;
nodes = (
(111,346,o),
(63,420,o),
(63,525,cs),
(63,637,o),
(118,703,o),
(203,703,cs),
(308,703,o),
(359,604,o),
(359,459,cs),
(359,443,o),
(358,429,o),
(357,415,c),
(334,381,o),
(272,346,o),
(197,346,cs)
);
},
{
closed = 1;
nodes = (
(338,191,o),
(254,15,o),
(139,15,cs),
(96,15,o),
(64,46,o),
(64,93,cs),
(64,145,o),
(90,184,o),
(147,184,cs),
(250,184,o),
(277,-10,o),
(382,-10,cs),
(399,-10,o),
(407,-1,o),
(407,15,c),
(283,15,o),
(278,209,o),
(148,209,cs),
(77,209,o),
(36,160,o),
(36,93,cs),
(36,31,o),
(80,-10,o),
(139,-10,cs),
(288,-10,o),
(387,224,o),
(387,460,cs),
(387,631,o),
(318,728,o),
(203,728,cs),
(102,728,o),
(35,649,o),
(35,525,cs),
(35,408,o),
(94,321,o),
(195,321,cs),
(271,321,o),
(325,347,o),
(354,377,c)
);
}
);
width = 437;
},
{
layerId = m007;
shapes = (
{
closed = 1;
nodes = (
(144,362,o),
(100,418,o),
(100,520,cs),
(100,627,o),
(149,682,o),
(223,682,cs),
(312,682,o),
(358,615,o),
(358,475,cs),
(358,457,o),
(357,435,o),
(356,418,c),
(333,388,o),
(280,362,o),
(219,362,cs)
);
},
{
closed = 1;
nodes = (
(337,180,o),
(270,35,o),
(164,35,cs),
(125,35,o),
(98,55,o),
(98,99,cs),
(98,147,o),
(129,174,o),
(172,174,cs),
(266,174,o),
(290,-10,o),
(412,-10,cs),
(436,-10,o),
(449,11,o),
(449,35,c),
(304,35,o),
(304,219,o),
(165,219,cs),
(91,219,o),
(39,169,o),
(39,99,cs),
(39,32,o),
(85,-10,o),
(160,-10,cs),
(324,-10,o),
(426,221,o),
(426,456,cs),
(426,638,o),
(345,727,o),
(223,727,cs),
(111,727,o),
(34,647,o),
(34,520,cs),
(34,400,o),
(106,317,o),
(214,317,cs),
(278,317,o),
(324,337,o),
(353,361,c)
);
}
);
width = 476;
},
{
layerId = m009;
shapes = (
{
closed = 1;
nodes = (
(231,370,o),
(200,413,o),
(200,507,cs),
(200,600,o),
(233,655,o),
(281,655,cs),
(331,655,o),
(365,612,o),
(365,485,cs),
(365,463,o),
(363,417,o),
(360,393,c),
(338,374,o),
(305,370,o),
(283,370,cs)
);
},
{
closed = 1;
nodes = (
(339,150,o),
(313,54,o),
(234,54,cs),
(208,54,o),
(194,80,o),
(194,117,cs),
(194,152,o),
(213,178,o),
(238,178,cs),
(310,178,o),
(327,-10,o),
(498,-10,cs),
(541,-10,o),
(567,22,o),
(568,70,c),
(364,70,o),
(378,241,o),
(213,241,cs),
(114,241,o),
(47,196,o),
(47,117,cs),
(47,34,o),
(100,-10,o),
(218,-10,cs),
(427,-10,o),
(535,211,o),
(535,444,cs),
(535,657,o),
(421,723,o),
(281,723,cs),
(136,723,o),
(30,641,o),
(30,506,cs),
(30,378,o),
(140,306,o),
(266,306,cs),
(296,306,o),
(328,309,o),
(355,317,c)
);
}
);
width = 586;
}
);
note = uni0541;
unicode = 1345;
}
{
glyphname = uni0542;
kernLeft = uni0534;
layers = (
{
layerId = m001;
shapes = (
{
closed = 1;
nodes = (
(647,0,l),
(647,25,l),
(476,25,l),
(476,0,l)
);
},
{
closed = 1;
nodes = (
(160,724,o),
(72,663,o),
(72,500,cs),
(72,349,l),
(100,349,l),
(100,504,ls),
(100,638,o),
(172,699,o),
(286,699,cs),
(407,699,o),
(466,608,o),
(466,495,cs),
(466,0,l),
(494,0,l),
(494,496,ls),
(494,626,o),
(423,724,o),
(288,724,cs)
);
}
);
width = 652;
},
{
layerId = m003;
shapes = (
{
closed = 1;
nodes = (
(734,0,l),
(734,45,l),
(547,45,l),
(547,0,l)
);
},
{
closed = 1;
nodes = (
(162,724,o),
(66,651,o),
(66,495,cs),
(66,346,l),
(167,346,l),
(167,511,ls),
(167,621,o),
(223,677,o),
(317,677,cs),
(414,677,o),
(465,609,o),
(465,507,cs),
(465,0,l),
(566,0,l),
(566,493,ls),
(566,634,o),
(477,724,o),
(318,724,cs)
);
}
);
width = 739;
},
{
layerId = m005;
shapes = (
{
closed = 1;
nodes = (
(846,0,l),
(846,70,l),
(639,70,l),
(639,0,l)
);
},
{
closed = 1;
nodes = (
(167,724,o),
(60,635,o),
(60,489,cs),
(60,343,l),
(254,343,l),
(254,519,ls),
(254,600,o),
(290,648,o),
(358,648,cs),
(426,648,o),
(465,609,o),
(465,522,cs),
(465,0,l),
(659,0,l),
(659,490,ls),
(659,644,o),
(548,724,o),
(358,724,cs)
);
}
);
width = 851;
},
{
layerId = m006;
shapes = (
{
closed = 1;
nodes = (
(525,0,l),
(525,25,l),
(400,25,l),
(400,0,l)
);
},
{
closed = 1;
nodes = (
(119,724,o),
(62,625,o),
(62,514,cs),
(62,370,l),
(90,370,l),
(90,512,ls),
(90,600,o),
(129,699,o),
(241,699,cs),
(329,699,o),
(387,640,o),
(387,504,cs),
(387,0,l),
(415,0,l),
(415,500,ls),
(415,659,o),
(345,724,o),
(242,724,cs)
);
}
);
width = 531;
},
{
layerId = m007;
shapes = (
{
closed = 1;
nodes = (
(578,0,l),
(578,43,l),
(438,43,l),
(438,0,l)
);
},
{
closed = 1;
nodes = (
(119,724,o),
(60,627,o),
(60,510,cs),
(60,362,l),
(124,362,l),
(124,508,ls),
(124,601,o),
(161,677,o),
(258,677,cs),
(339,677,o),
(389,634,o),
(389,504,cs),
(389,0,l),
(453,0,l),
(453,499,ls),
(453,659,o),
(376,724,o),
(258,724,cs)
);
}
);
width = 583;
},
{
layerId = m009;
shapes = (
{
closed = 1;
nodes = (
(726,0,l),
(726,64,l),
(545,64,l),
(545,0,l)
);
},
{
closed = 1;
nodes = (
(120,724,o),
(54,634,o),
(54,500,cs),
(54,340,l),
(221,340,l),
(221,498,ls),
(221,603,o),
(254,650,o),
(305,650,cs),
(369,650,o),
(395,615,o),
(395,504,cs),
(395,0,l),
(562,0,l),
(562,496,ls),
(562,660,o),
(463,724,o),
(303,724,cs)
);
}
);
width = 730;
}
);
note = uni0542;
unicode = 1346;
}
{
glyphname = uni0543;
layers = (
{
layerId = m001;
shapes = (
{
closed = 1;
nodes = (
(578,455,o),
(495,618,o),
(42,618,c),
(42,591,l),
(463,591,o),
(550,452,o),
(550,25,c),
(269,25,ls),
(137,25,o),
(84,69,o),
(84,178,cs),
(84,361,o),
(281,704,o),
(465,704,cs),
(519,704,o),
(547,677,o),
(548,595,c),
(562,595,o),
(575,601,o),
(575,621,cs),
(575,684,o),
(540,729,o),
(463,729,cs),
(268,729,o),
(56,378,o),
(56,179,cs),
(56,54,o),
(116,0,o),
(269,0,cs),
(578,0,l)
);
}
);
width = 630;
},
{
layerId = m003;
shapes = (
{
closed = 1;
nodes = (
(625,457,o),
(506,624,o),
(55,624,c),
(55,575,l),
(443,575,o),
(524,430,o),
(524,47,c),
(316,47,ls),
(207,47,o),
(154,91,o),
(154,201,cs),
(154,411,o),
(326,674,o),
(480,674,cs),
(526,674,o),
(551,643,o),
(552,565,c),
(602,565,o),
(640,587,o),
(640,623,cs),
(640,685,o),
(591,726,o),
(503,726,cs),
(281,726,o),
(47,389,o),
(47,204,cs),
(47,62,o),
(128,0,o),
(316,0,cs),
(625,0,l)
);
}
);
width = 693;
},
{
layerId = m005;
shapes = (
{
closed = 1;
nodes = (
(679,460,o),
(514,631,o),
(66,631,c),
(66,555,l),
(410,555,o),
(485,402,o),
(485,76,c),
(370,76,ls),
(289,76,o),
(236,120,o),
(236,230,cs),
(236,475,o),
(378,635,o),
(493,635,cs),
(529,635,o),
(550,600,o),
(550,527,c),
(646,527,o),
(715,569,o),
(715,626,cs),
(715,685,o),
(650,723,o),
(548,723,cs),
(291,723,o),
(29,404,o),
(29,236,cs),
(29,72,o),
(138,0,o),
(370,0,cs),
(679,0,l)
);
}
);
width = 734;
},
{
layerId = m006;
shapes = (
{
closed = 1;
nodes = (
(453,455,o),
(386,618,o),
(38,618,c),
(38,593,l),
(359,593,o),
(425,452,o),
(425,25,c),
(216,25,ls),
(116,25,o),
(75,69,o),
(75,178,cs),
(75,371,o),
(232,704,o),
(363,704,cs),
(404,704,o),
(426,677,o),
(426,595,c),
(440,595,o),
(453,601,o),
(453,621,cs),
(453,684,o),
(424,729,o),
(364,729,cs),
(212,729,o),
(47,378,o),
(47,179,cs),
(47,54,o),
(95,0,o),
(216,0,cs),
(453,0,l)
);
}
);
width = 517;
},
{
layerId = m007;
shapes = (
{
closed = 1;
nodes = (
(490,456,o),
(404,621,o),
(44,621,c),
(44,578,l),
(360,578,o),
(427,428,o),
(427,43,c),
(244,43,ls),
(151,43,o),
(109,80,o),
(109,189,cs),
(109,412,o),
(250,683,o),
(378,683,cs),
(421,683,o),
(442,660,o),
(442,580,c),
(474,580,o),
(499,594,o),
(499,622,cs),
(499,684,o),
(462,728,o),
(395,728,cs),
(228,728,o),
(42,433,o),
(42,191,cs),
(42,58,o),
(102,0,o),
(244,0,cs),
(490,0,l)
);
}
);
width = 551;
},
{
layerId = m009;
shapes = (
{
closed = 1;
nodes = (
(596,458,o),
(453,629,o),
(58,629,c),
(58,565,l),
(363,565,o),
(430,406,o),
(430,64,c),
(323,64,ls),
(251,64,o),
(202,112,o),
(202,222,cs),
(202,424,o),
(299,646,o),
(421,646,cs),
(467,646,o),
(486,612,o),
(486,538,c),
(568,538,o),
(627,574,o),
(627,626,cs),
(627,685,o),
(570,724,o),
(482,724,cs),
(273,724,o),
(26,434,o),
(26,227,cs),
(26,69,o),
(121,0,o),
(323,0,cs),
(596,0,l)
);
}
);
width = 647;
}
);
note = uni0543;
unicode = 1347;
}
{
glyphname = uni0544;
kernLeft = uni0531;
kernRight = uni0544;
layers = (
{
layerId = m001;
shapes = (
{
closed = 1;
nodes = (
(464,694,l),
(514,694,o),
(520,683,o),
(520,606,cs),
(520,219,ls),
(520,106,o),
(458,15,o),
(317,15,cs),
(193,15,o),
(117,76,o),
(117,210,cs),
(117,714,l),
(33,714,l),
(33,694,l),
(83,694,o),
(89,683,o),
(89,606,cs),
(89,214,ls),
(89,51,o),
(181,-10,o),
(319,-10,cs),
(474,-10,o),
(548,88,o),
(548,218,cs),
(548,714,l),
(464,714,l)
);
},
{
closed = 1;
nodes = (
(611,689,o),
(621,674,o),
(621,608,c),
(640,608,o),
(651,619,o),
(651,638,cs),
(651,687,o),
(624,714,o),
(572,714,cs),
(534,714,l),
(534,689,l),
(565,689,ls)
);
}
);
width = 668;
},
{
layerId = m003;
shapes = (
{
closed = 1;
nodes = (
(466,677,l),
(510,677,o),
(516,666,o),
(516,603,cs),
(516,207,ls),
(516,106,o),
(464,37,o),
(358,37,cs),
(259,37,o),
(201,92,o),
(201,203,cs),
(201,714,l),
(50,714,l),
(50,677,l),
(94,677,o),
(100,666,o),
(100,603,cs),
(100,219,ls),
(100,64,o),
(199,-10,o),
(359,-10,cs),
(526,-10,o),
(617,80,o),
(617,221,cs),
(617,714,l),
(466,714,l)
);
},
{
closed = 1;
nodes = (
(675,667,o),
(691,637,o),
(691,555,c),
(740,555,o),
(766,581,o),
(766,621,cs),
(766,685,o),
(723,714,o),
(634,714,cs),
(583,714,l),
(583,667,l),
(629,667,ls)
);
}
);
width = 754;
},
{
layerId = m005;
shapes = (
{
closed = 1;
nodes = (
(454,654,l),
(489,654,o),
(495,645,o),
(495,598,cs),
(495,192,ls),
(495,106,o),
(456,66,o),
(396,66,cs),
(329,66,o),
(294,113,o),
(294,195,cs),
(294,714,l),
(57,714,l),
(57,654,l),
(93,654,o),
(100,645,o),
(100,598,cs),
(100,225,ls),
(100,80,o),
(206,-10,o),
(395,-10,cs),
(578,-10,o),
(689,69,o),
(689,224,cs),
(689,714,l),
(454,714,l)
);
},
{
closed = 1;
nodes = (
(741,638,o),
(765,610,o),
(765,487,c),
(852,487,o),
(897,533,o),
(897,598,cs),
(897,682,o),
(835,714,o),
(700,714,cs),
(631,714,l),
(631,638,l),
(695,638,ls)
);
}
);
width = 871;
},
{
layerId = m006;
shapes = (
{
closed = 1;
nodes = (
(355,694,l),
(405,694,o),
(411,683,o),
(411,607,cs),
(411,202,ls),
(411,114,o),
(372,15,o),
(260,15,cs),
(172,15,o),
(114,74,o),
(114,210,cs),
(114,714,l),
(36,714,l),
(36,694,l),
(82,694,o),
(86,683,o),
(86,609,cs),
(86,214,ls),
(86,55,o),
(156,-10,o),
(259,-10,cs),
(382,-10,o),
(439,89,o),
(439,200,cs),
(439,714,l),
(355,714,l)
);
},
{
closed = 1;
nodes = (
(497,689,o),
(505,674,o),
(505,608,c),
(522,608,o),
(532,619,o),
(532,638,cs),
(532,687,o),
(510,714,o),
(466,714,cs),
(436,714,l),
(436,689,l),
(461,689,ls)
);
}
);
width = 550;
},
{
layerId = m007;
shapes = (
{
closed = 1;
nodes = (
(358,679,l),
(403,679,o),
(413,669,o),
(413,599,cs),
(413,216,ls),
(413,123,o),
(376,37,o),
(280,37,cs),
(198,37,o),
(148,90,o),
(148,220,cs),
(148,714,l),
(33,714,l),
(33,679,l),
(77,679,o),
(84,669,o),
(84,600,cs),
(84,215,ls),
(84,55,o),
(161,-10,o),
(279,-10,cs),
(417,-10,o),
(477,87,o),
(477,204,cs),
(477,714,l),
(358,714,l)
);
},
{
closed = 1;
nodes = (
(537,669,o),
(548,649,o),
(548,573,c),
(580,573,o),
(598,600,o),
(598,629,cs),
(598,686,o),
(568,714,o),
(505,714,cs),
(467,714,l),
(467,669,l),
(500,669,ls)
);
}
);
width = 615;
},
{
layerId = m009;
shapes = (
{
closed = 1;
nodes = (
(367,658,l),
(397,658,o),
(421,651,o),
(421,599,cs),
(421,216,ls),
(421,111,o),
(388,64,o),
(337,64,cs),
(273,64,o),
(247,99,o),
(247,210,cs),
(247,714,l),
(26,714,l),
(26,658,l),
(66,658,o),
(80,653,o),
(80,599,cs),
(80,218,ls),
(80,54,o),
(176,-10,o),
(336,-10,cs),
(519,-10,o),
(588,80,o),
(588,214,cs),
(588,714,l),
(367,714,l)
);
},
{
closed = 1;
nodes = (
(651,646,o),
(672,614,o),
(672,506,c),
(747,506,o),
(786,546,o),
(786,605,cs),
(786,682,o),
(732,714,o),
(615,714,cs),
(555,714,l),
(555,646,l),
(610,646,ls)
);
}
);
width = 802;
}
);
note = uni0544;
unicode = 1348;
}
{
glyphname = uni0545;
kernLeft = uni0545;
kernRight = uni0551;
layers = (
{
layerId = m001;
shapes = (
{
closed = 1;
nodes = (
(419,-9,o),
(520,70,o),
(520,198,cs),
(520,323,o),
(436,372,o),
(355,381,c),
(426,397,o),
(485,445,o),
(485,548,cs),
(485,654,o),
(412,726,o),
(293,726,cs),
(139,726,o),
(95,636,o),
(95,575,cs),
(95,554,o),
(104,544,o),
(122,544,c),
(122,621,o),
(152,701,o),
(293,701,cs),
(398,701,o),
(457,636,o),
(457,548,cs),
(457,449,o),
(397,394,o),
(286,394,cs),
(39,394,l),
(39,369,l),
(286,369,ls),
(409,369,o),
(492,312,o),
(492,201,cs),
(492,82,o),
(396,16,o),
(275,16,cs),
(161,16,o),
(75,58,o),
(75,178,c),
(55,178,o),
(47,169,o),
(47,155,cs),
(47,44,o),
(140,-9,o),
(276,-9,cs)
);
}
);
width = 561;
},
{
layerId = m003;
shapes = (
{
closed = 1;
nodes = (
(467,-10,o),
(596,62,o),
(596,205,cs),
(596,329,o),
(495,375,o),
(413,384,c),
(499,403,o),
(566,449,o),
(566,553,cs),
(566,665,o),
(474,725,o),
(332,725,cs),
(177,725,o),
(104,651,o),
(104,584,cs),
(104,537,o),
(140,524,o),
(189,524,c),
(189,606,o),
(218,680,o),
(328,680,cs),
(418,680,o),
(463,627,o),
(463,547,cs),
(463,448,o),
(408,404,o),
(303,404,cs),
(54,404,l),
(54,358,l),
(304,358,ls),
(427,358,o),
(492,301,o),
(492,203,cs),
(492,94,o),
(417,37,o),
(311,37,cs),
(204,37,o),
(150,93,o),
(148,204,c),
(100,204,o),
(63,181,o),
(63,145,cs),
(63,54,o),
(144,-10,o),
(319,-10,cs)
);
}
);
width = 641;
},
{
layerId = m005;
shapes = (
{
closed = 1;
nodes = (
(501,-12,o),
(667,52,o),
(667,213,cs),
(667,337,o),
(544,380,o),
(461,387,c),
(566,410,o),
(644,455,o),
(644,559,cs),
(644,678,o),
(526,723,o),
(355,723,cs),
(199,723,o),
(89,669,o),
(89,595,cs),
(89,514,o),
(159,498,o),
(247,498,c),
(247,588,o),
(276,647,o),
(346,647,cs),
(417,647,o),
(445,616,o),
(445,545,cs),
(445,448,o),
(395,416,o),
(298,416,cs),
(47,416,l),
(47,346,l),
(300,346,ls),
(423,346,o),
(466,288,o),
(466,205,cs),
(466,110,o),
(418,64,o),
(330,64,cs),
(232,64,o),
(218,138,o),
(216,238,c),
(132,238,o),
(58,197,o),
(58,133,cs),
(58,66,o),
(124,-12,o),
(348,-12,cs)
);
}
);
width = 708;
},
{
layerId = m006;
shapes = (
{
closed = 1;
nodes = (
(336,-11,o),
(415,58,o),
(415,196,cs),
(415,321,o),
(360,366,o),
(296,381,c),
(366,409,o),
(393,462,o),
(393,563,cs),
(393,673,o),
(327,724,o),
(239,724,cs),
(109,724,o),
(83,635,o),
(83,595,cs),
(83,565,o),
(93,552,o),
(104,552,c),
(104,621,o),
(120,699,o),
(239,699,cs),
(319,699,o),
(365,651,o),
(365,556,cs),
(365,457,o),
(323,393,o),
(251,393,cs),
(42,393,l),
(42,368,l),
(249,368,ls),
(332,368,o),
(387,310,o),
(387,196,cs),
(387,65,o),
(317,14,o),
(223,14,cs),
(107,14,o),
(71,97,o),
(71,176,c),
(53,176,o),
(48,161,o),
(48,130,cs),
(48,81,o),
(90,-11,o),
(222,-11,cs)
);
}
);
width = 459;
},
{
layerId = m007;
shapes = (
{
closed = 1;
nodes = (
(356,-11,o),
(446,56,o),
(446,198,cs),
(446,323,o),
(379,370,o),
(315,382,c),
(387,408,o),
(424,459,o),
(424,559,cs),
(424,671,o),
(354,724,o),
(250,724,cs),
(116,724,o),
(80,641,o),
(80,594,cs),
(80,553,o),
(103,540,o),
(130,540,c),
(130,615,o),
(146,679,o),
(250,679,cs),
(322,679,o),
(362,642,o),
(362,553,cs),
(362,454,o),
(322,402,o),
(245,402,cs),
(39,402,l),
(39,359,l),
(244,359,ls),
(334,359,o),
(385,305,o),
(385,196,cs),
(385,75,o),
(323,34,o),
(236,34,cs),
(130,34,o),
(93,103,o),
(93,191,c),
(59,191,o),
(43,171,o),
(43,133,cs),
(43,75,o),
(94,-11,o),
(234,-11,cs)
);
}
);
width = 487;
},
{
layerId = m009;
shapes = (
{
closed = 1;
nodes = (
(413,-11,o),
(540,50,o),
(540,203,cs),
(540,328,o),
(433,381,o),
(369,386,c),
(450,407,o),
(518,451,o),
(518,549,cs),
(518,665,o),
(430,724,o),
(282,724,cs),
(136,724,o),
(64,658,o),
(64,591,cs),
(64,518,o),
(131,504,o),
(203,504,c),
(203,598,o),
(220,660,o),
(281,660,cs),
(329,660,o),
(348,618,o),
(348,544,cs),
(348,444,o),
(317,412,o),
(226,412,cs),
(30,412,l),
(30,347,l),
(231,347,ls),
(336,347,o),
(363,289,o),
(363,196,cs),
(363,102,o),
(335,55,o),
(272,55,cs),
(195,55,o),
(157,122,o),
(157,235,c),
(77,235,o),
(23,199,o),
(23,140,cs),
(23,58,o),
(104,-11,o),
(267,-11,cs)
);
}
);
width = 579;
}
);
note = uni0545;
unicode = 1349;
}
{
glyphname = uni0546;
kernLeft = uni0546;
layers = (
{
layerId = m001;
shapes = (
{
closed = 1;
nodes = (
(381,-10,o),
(463,51,o),
(463,214,cs),
(463,415,l),
(435,415,l),
(435,210,ls),
(435,76,o),
(369,15,o),
(265,15,cs),
(144,15,o),
(97,96,o),
(97,228,cs),
(97,377,o),
(131,497,o),
(196,633,c),
(162,621,l),
(106,506,o),
(69,372,o),
(69,228,cs),
(69,78,o),
(128,-10,o),
(263,-10,cs)
);
},
{
closed = 1;
nodes = (
(90,633,o),
(62,661,o),
(62,754,c),
(43,754,o),
(34,739,o),
(34,724,cs),
(34,651,o),
(81,608,o),
(181,608,c),
(196,633,l)
);
}
);
width = 535;
},
{
layerId = m003;
shapes = (
{
closed = 1;
nodes = (
(460,-10,o),
(551,64,o),
(551,219,cs),
(551,415,l),
(450,415,l),
(450,216,ls),
(450,92,o),
(399,37,o),
(309,37,cs),
(213,37,o),
(171,98,o),
(171,227,cs),
(171,365,o),
(212,507,o),
(280,634,c),
(219,615,l),
(130,496,o),
(64,365,o),
(64,228,cs),
(64,72,o),
(150,-10,o),
(309,-10,cs)
);
},
{
closed = 1;
nodes = (
(158,634,o),
(132,674,o),
(132,760,c),
(75,760,o),
(41,731,o),
(41,695,cs),
(41,624,o),
(96,587,o),
(238,587,c),
(280,634,l)
);
}
);
width = 617;
},
{
layerId = m005;
shapes = (
{
closed = 1;
nodes = (
(545,-10,o),
(647,80,o),
(647,225,cs),
(647,415,l),
(453,415,l),
(453,223,ls),
(453,113,o),
(421,66,o),
(349,66,cs),
(283,66,o),
(248,101,o),
(248,227,cs),
(248,350,o),
(300,520,o),
(371,636,c),
(274,607,l),
(144,483,o),
(41,355,o),
(41,228,cs),
(41,65,o),
(161,-10,o),
(350,-10,cs)
);
},
{
closed = 1;
nodes = (
(228,636,o),
(204,692,o),
(204,767,c),
(99,767,o),
(33,721,o),
(33,658,cs),
(33,590,o),
(99,560,o),
(294,560,c),
(371,636,l)
);
}
);
width = 707;
},
{
layerId = m006;
shapes = (
{
closed = 1;
nodes = (
(346,-10,o),
(416,55,o),
(416,214,cs),
(416,414,l),
(388,414,l),
(388,210,ls),
(388,74,o),
(330,15,o),
(242,15,cs),
(130,15,o),
(91,99,o),
(91,202,cs),
(91,347,o),
(119,489,o),
(167,633,c),
(135,622,l),
(90,481,o),
(63,341,o),
(63,200,cs),
(63,74,o),
(120,-10,o),
(243,-10,cs)
);
},
{
closed = 1;
nodes = (
(84,633,o),
(64,667,o),
(64,765,c),
(46,765,o),
(36,751,o),
(36,731,cs),
(36,653,o),
(73,608,o),
(154,608,c),
(167,633,l)
);
}
);
width = 478;
},
{
layerId = m007;
shapes = (
{
closed = 1;
nodes = (
(380,-10,o),
(456,55,o),
(456,215,cs),
(456,414,l),
(392,414,l),
(392,210,ls),
(392,80,o),
(343,37,o),
(261,37,cs),
(165,37,o),
(127,102,o),
(127,206,cs),
(127,349,o),
(157,490,o),
(208,632,c),
(159,619,l),
(96,476,o),
(61,344,o),
(61,204,cs),
(61,76,o),
(124,-10,o),
(262,-10,cs)
);
},
{
closed = 1;
nodes = (
(113,632,o),
(93,670,o),
(93,765,c),
(56,765,o),
(34,744,o),
(34,715,cs),
(34,639,o),
(76,591,o),
(180,591,c),
(208,632,l)
);
}
);
width = 516;
},
{
layerId = m009;
shapes = (
{
closed = 1;
nodes = (
(477,-10,o),
(572,54,o),
(572,218,cs),
(572,414,l),
(405,414,l),
(405,210,ls),
(405,99,o),
(379,64,o),
(315,64,cs),
(264,64,o),
(231,111,o),
(231,216,cs),
(231,354,o),
(266,493,o),
(324,631,c),
(226,611,l),
(111,461,o),
(55,351,o),
(55,214,cs),
(55,80,o),
(134,-10,o),
(317,-10,cs)
);
},
{
closed = 1;
nodes = (
(198,631,o),
(177,677,o),
(177,765,c),
(87,765,o),
(30,724,o),
(30,668,cs),
(30,599,o),
(87,567,o),
(257,567,c),
(324,631,l)
);
}
);
width = 626;
}
);
note = uni0546;
unicode = 1350;
}
{
glyphname = uni0547;
kernLeft = uni0547;
layers = (
{
layerId = m001;
shapes = (
{
closed = 1;
nodes = (
(75,693,o),
(118,700,o),
(146,700,cs),
(276,700,o),
(308,597,o),
(443,597,cs),
(533,597,o),
(568,643,o),
(568,714,c),
(540,714,l),
(540,658,o),
(516,622,o),
(442,622,cs),
(325,622,o),
(288,725,o),
(146,725,cs),
(109,725,o),
(70,716,o),
(29,698,c),
(30,673,l)
);
},
{
closed = 1;
nodes = (
(322,639,l),
(117,501,o),
(51,346,o),
(51,235,cs),
(51,91,o),
(123,-11,o),
(273,-11,cs),
(406,-11,o),
(498,65,o),
(498,213,cs),
(498,295,l),
(470,295,l),
(470,209,ls),
(470,80,o),
(394,14,o),
(275,14,cs),
(139,14,o),
(79,105,o),
(79,233,cs),
(79,347,o),
(145,491,o),
(350,629,c)
);
}
);
width = 584;
},
{
layerId = m003;
shapes = (
{
closed = 1;
nodes = (
(73,664,o),
(114,672,o),
(148,672,cs),
(320,672,o),
(336,549,o),
(485,549,cs),
(575,549,o),
(621,616,o),
(621,714,c),
(570,714,l),
(570,665,o),
(540,634,o),
(477,634,cs),
(363,634,o),
(310,722,o),
(158,722,cs),
(123,722,o),
(73,712,o),
(38,699,c),
(38,651,l)
);
},
{
closed = 1;
nodes = (
(325,628,l),
(152,505,o),
(56,373,o),
(56,231,cs),
(56,84,o),
(151,-10,o),
(313,-10,cs),
(469,-10,o),
(564,70,o),
(564,206,cs),
(564,295,l),
(463,295,l),
(463,203,ls),
(463,94,o),
(407,37,o),
(313,37,cs),
(212,37,o),
(163,102,o),
(163,230,cs),
(163,369,o),
(232,498,o),
(384,614,c)
);
}
);
width = 656;
},
{
layerId = m005;
shapes = (
{
closed = 1;
nodes = (
(53,627,o),
(90,637,o),
(132,637,cs),
(357,637,o),
(352,487,o),
(519,487,cs),
(609,487,o),
(671,582,o),
(671,714,c),
(590,714,l),
(590,675,o),
(551,649,o),
(504,649,cs),
(394,649,o),
(321,717,o),
(156,717,cs),
(123,717,o),
(60,707,o),
(31,699,c),
(31,623,l)
);
},
{
closed = 1;
nodes = (
(319,615,l),
(134,485,o),
(43,394,o),
(43,226,cs),
(43,74,o),
(167,-10,o),
(344,-10,cs),
(530,-10,o),
(629,76,o),
(629,198,cs),
(629,295,l),
(435,295,l),
(435,195,ls),
(435,112,o),
(404,66,o),
(342,66,cs),
(286,66,o),
(250,99,o),
(250,225,cs),
(250,397,o),
(308,504,o),
(407,596,c)
);
}
);
width = 708;
},
{
layerId = m006;
shapes = (
{
closed = 1;
nodes = (
(64,691,o),
(97,700,o),
(119,700,cs),
(218,700,o),
(246,597,o),
(351,597,cs),
(420,597,o),
(449,643,o),
(449,714,c),
(422,714,l),
(422,658,o),
(406,622,o),
(350,622,cs),
(263,622,o),
(230,725,o),
(120,725,cs),
(92,725,o),
(61,716,o),
(30,698,c),
(31,671,l)
);
},
{
closed = 1;
nodes = (
(252,639,l),
(133,509,o),
(54,351,o),
(54,200,cs),
(54,74,o),
(111,-10,o),
(234,-10,cs),
(337,-10,o),
(407,55,o),
(407,214,cs),
(407,294,l),
(379,294,l),
(379,210,ls),
(379,74,o),
(321,15,o),
(233,15,cs),
(121,15,o),
(82,99,o),
(82,202,cs),
(82,357,o),
(170,510,o),
(276,628,c)
);
}
);
width = 459;
},
{
layerId = m007;
shapes = (
{
closed = 1;
nodes = (
(59,672,o),
(92,681,o),
(118,681,cs),
(242,681,o),
(260,573,o),
(375,573,cs),
(447,573,o),
(483,630,o),
(483,714,c),
(445,714,l),
(445,662,o),
(424,628,o),
(371,628,cs),
(282,628,o),
(243,723,o),
(124,723,cs),
(96,723,o),
(60,714,o),
(30,698,c),
(30,656,l)
);
},
{
closed = 1;
nodes = (
(258,633,l),
(134,505,o),
(52,351,o),
(52,204,cs),
(52,76,o),
(115,-10,o),
(253,-10,cs),
(371,-10,o),
(447,55,o),
(447,215,cs),
(447,295,l),
(383,295,l),
(383,210,ls),
(383,80,o),
(334,37,o),
(252,37,cs),
(156,37,o),
(118,102,o),
(118,206,cs),
(118,356,o),
(196,500,o),
(297,620,c)
);
}
);
width = 499;
},
{
layerId = m009;
shapes = (
{
closed = 1;
nodes = (
(48,637,o),
(80,646,o),
(117,646,cs),
(314,646,o),
(301,504,o),
(447,504,cs),
(527,504,o),
(581,591,o),
(581,714,c),
(512,714,l),
(512,672,o),
(476,645,o),
(434,645,cs),
(337,645,o),
(283,719,o),
(138,719,cs),
(109,719,o),
(54,709,o),
(28,699,c),
(28,631,l)
);
},
{
closed = 1;
nodes = (
(275,617,l),
(134,492,o),
(45,351,o),
(45,214,cs),
(45,80,o),
(124,-10,o),
(307,-10,cs),
(467,-10,o),
(562,54,o),
(562,218,cs),
(562,296,l),
(395,296,l),
(395,210,ls),
(395,99,o),
(369,64,o),
(305,64,cs),
(254,64,o),
(221,111,o),
(221,216,cs),
(221,354,o),
(268,471,o),
(356,596,c)
);
}
);
width = 613;
}
);
note = uni0547;
unicode = 1351;
}
{
glyphname = uni0549;
kernLeft = uni0549;
layers = (
{
layerId = m001;
shapes = (
{
closed = 1;
nodes = (
(229,88,l),
(434,226,o),
(492,367,o),
(492,478,cs),
(492,622,o),
(420,724,o),
(270,724,cs),
(137,724,o),
(45,663,o),
(45,500,cs),
(45,478,l),
(73,478,l),
(73,504,ls),
(73,648,o),
(149,699,o),
(268,699,cs),
(404,699,o),
(464,608,o),
(464,480,cs),
(464,366,o),
(406,236,o),
(201,98,c)
);
},
{
closed = 1;
nodes = (
(483,14,l),
(291,26,o),
(164,120,o),
(51,255,c),
(25,238,l),
(139,104,o),
(288,1,o),
(483,-11,c)
);
}
);
width = 534;
},
{
layerId = m003;
shapes = (
{
closed = 1;
nodes = (
(289,100,l),
(470,200,o),
(573,334,o),
(573,482,cs),
(573,630,o),
(478,724,o),
(312,724,cs),
(154,724,o),
(56,650,o),
(56,507,cs),
(56,479,l),
(157,479,l),
(157,511,ls),
(157,626,o),
(215,677,o),
(312,677,cs),
(415,677,o),
(466,611,o),
(466,484,cs),
(466,345,o),
(400,216,o),
(249,128,c)
);
},
{
closed = 1;
nodes = (
(558,40,l),
(382,46,o),
(236,152,o),
(145,299,c),
(39,248,l),
(163,100,o),
(349,-1,o),
(558,-10,c)
);
}
);
width = 627;
},
{
layerId = m005;
shapes = (
{
closed = 1;
nodes = (
(336,115,l),
(487,167,o),
(646,292,o),
(646,488,cs),
(646,640,o),
(522,724,o),
(338,724,cs),
(147,724,o),
(41,634,o),
(41,517,cs),
(41,479,l),
(235,479,l),
(235,519,ls),
(235,598,o),
(270,648,o),
(338,648,cs),
(400,648,o),
(440,616,o),
(440,489,cs),
(440,317,o),
(364,191,o),
(280,166,c)
);
},
{
closed = 1;
nodes = (
(624,73,l),
(469,73,o),
(299,193,o),
(237,355,c),
(28,260,l),
(165,94,o),
(397,-3,o),
(624,-10,c)
);
}
);
width = 691;
},
{
layerId = m006;
shapes = (
{
closed = 1;
nodes = (
(181,83,l),
(307,206,o),
(391,363,o),
(391,514,cs),
(391,640,o),
(334,724,o),
(211,724,cs),
(108,724,o),
(38,659,o),
(38,500,cs),
(38,480,l),
(66,480,l),
(66,504,ls),
(66,640,o),
(124,699,o),
(212,699,cs),
(324,699,o),
(363,615,o),
(363,512,cs),
(363,357,o),
(270,207,o),
(158,95,c)
);
},
{
closed = 1;
nodes = (
(382,15,l),
(255,24,o),
(134,118,o),
(49,253,c),
(24,238,l),
(113,104,o),
(230,2,o),
(382,-10,c)
);
}
);
width = 431;
},
{
layerId = m007;
shapes = (
{
closed = 1;
nodes = (
(212,91,l),
(352,208,o),
(435,363,o),
(435,510,cs),
(435,638,o),
(373,724,o),
(234,724,cs),
(116,724,o),
(40,659,o),
(40,499,cs),
(40,478,l),
(104,478,l),
(104,504,ls),
(104,634,o),
(154,677,o),
(235,677,cs),
(332,677,o),
(369,612,o),
(369,508,cs),
(369,358,o),
(291,222,o),
(180,111,c)
);
},
{
closed = 1;
nodes = (
(425,35,l),
(296,42,o),
(168,143,o),
(90,283,c),
(25,243,l),
(122,102,o),
(261,1,o),
(425,-10,c)
);
}
);
width = 477;
},
{
layerId = m009;
shapes = (
{
closed = 1;
nodes = (
(301,113,l),
(479,215,o),
(562,363,o),
(562,500,cs),
(562,634,o),
(483,724,o),
(300,724,cs),
(140,724,o),
(45,660,o),
(45,496,cs),
(45,474,l),
(212,474,l),
(212,504,ls),
(212,615,o),
(238,650,o),
(302,650,cs),
(353,650,o),
(386,603,o),
(386,498,cs),
(386,360,o),
(350,266,o),
(244,156,c)
);
},
{
closed = 1;
nodes = (
(548,64,l),
(410,65,o),
(262,182,o),
(205,339,c),
(26,256,l),
(146,96,o),
(349,-3,o),
(548,-10,c)
);
}
);
width = 607;
}
);
note = uni0549;
unicode = 1353;
}
{
glyphname = uni054A;
layers = (
{
layerId = m001;
shapes = (
{
closed = 1;
nodes = (
(529,495,ls),
(529,663,o),
(427,724,o),
(289,724,cs),
(134,724,o),
(51,626,o),
(51,496,cs),
(51,320,l),
(79,320,l),
(79,495,ls),
(79,608,o),
(150,699,o),
(291,699,cs),
(415,699,o),
(501,638,o),
(501,496,cs),
(501,0,l),
(585,0,l),
(585,20,l),
(535,20,o),
(529,31,o),
(529,108,cs)
);
},
{
closed = 1;
nodes = (
(276,178,l),
(304,178,l),
(304,705,l),
(276,705,l)
);
}
);
width = 618;
},
{
layerId = m003;
shapes = (
{
closed = 1;
nodes = (
(697,493,ls),
(697,656,o),
(576,724,o),
(383,724,cs),
(184,724,o),
(71,634,o),
(71,493,cs),
(71,322,l),
(172,322,l),
(172,507,ls),
(172,618,o),
(236,677,o),
(384,677,cs),
(525,677,o),
(596,622,o),
(596,507,cs),
(596,0,l),
(748,0,l),
(748,37,l),
(704,37,o),
(697,48,o),
(697,111,cs)
);
},
{
closed = 1;
nodes = (
(333,169,l),
(434,169,l),
(434,685,l),
(333,685,l)
);
}
);
width = 797;
},
{
layerId = m005;
shapes = (
{
closed = 1;
nodes = (
(868,490,ls),
(868,634,o),
(723,724,o),
(460,724,cs),
(204,724,o),
(53,645,o),
(53,490,cs),
(53,325,l),
(247,325,l),
(247,522,ls),
(247,608,o),
(304,648,o),
(459,648,cs),
(620,648,o),
(674,601,o),
(674,522,cs),
(674,0,l),
(911,0,l),
(911,60,l),
(875,60,o),
(868,69,o),
(868,116,cs)
);
},
{
closed = 1;
nodes = (
(364,158,l),
(558,158,l),
(558,660,l),
(364,660,l)
);
}
);
width = 968;
},
{
layerId = m006;
shapes = (
{
closed = 1;
nodes = (
(405,500,ls),
(405,659,o),
(335,724,o),
(232,724,cs),
(109,724,o),
(52,625,o),
(52,514,cs),
(52,340,l),
(80,340,l),
(80,512,ls),
(80,600,o),
(119,699,o),
(231,699,cs),
(319,699,o),
(377,640,o),
(377,504,cs),
(377,0,l),
(455,0,l),
(455,20,l),
(409,20,o),
(405,31,o),
(405,105,cs)
);
},
{
closed = 1;
nodes = (
(214,170,l),
(242,170,l),
(242,705,l),
(214,705,l)
);
}
);
width = 491;
},
{
layerId = m007;
shapes = (
{
closed = 1;
nodes = (
(485,499,ls),
(485,659,o),
(398,724,o),
(269,724,cs),
(116,724,o),
(51,627,o),
(51,510,cs),
(51,335,l),
(115,335,l),
(115,508,ls),
(115,601,o),
(161,679,o),
(268,679,cs),
(364,679,o),
(421,634,o),
(421,504,cs),
(421,0,l),
(536,0,l),
(536,35,l),
(491,35,o),
(485,45,o),
(485,114,cs)
);
},
{
closed = 1;
nodes = (
(235,167,l),
(299,167,l),
(299,695,l),
(235,695,l)
);
}
);
width = 569;
},
{
layerId = m009;
shapes = (
{
closed = 1;
nodes = (
(712,496,ls),
(712,660,o),
(580,724,o),
(374,724,cs),
(137,724,o),
(48,634,o),
(48,500,cs),
(48,320,l),
(215,320,l),
(215,498,ls),
(215,603,o),
(280,650,o),
(374,650,cs),
(493,650,o),
(545,615,o),
(545,504,cs),
(545,0,l),
(766,0,l),
(766,56,l),
(726,56,o),
(712,61,o),
(712,115,cs)
);
},
{
closed = 1;
nodes = (
(297,160,l),
(463,160,l),
(463,667,l),
(297,667,l)
);
}
);
width = 792;
}
);
note = uni054A;
unicode = 1354;
}
{
glyphname = uni054B;
kernLeft = uni0541;
kernRight = uni0536;
layers = (
{
layerId = m001;
shapes = (
{
closed = 1;
nodes = (
(67,0,l),
(67,179,l),
(39,179,l),
(39,0,l)
);
},
{
closed = 1;
nodes = (
(481,0,l),
(481,13,ls),
(481,99,o),
(432,123,o),
(372,123,cs),
(53,123,l),
(53,98,l),
(372,98,ls),
(417,98,o),
(453,74,o),
(453,14,cs),
(453,0,l)
);
},
{
closed = 1;
nodes = (
(222,166,l),
(221,221,o),
(208,245,o),
(137,311,cs),
(81,363,o),
(51,420,o),
(51,499,cs),
(51,636,o),
(129,704,o),
(243,704,cs),
(359,704,o),
(433,634,o),
(433,489,cs),
(433,355,o),
(337,245,o),
(210,161,cs),
(177,139,o),
(124,123,o),
(65,123,c),
(188,123,l),
(331,199,o),
(460,337,o),
(460,489,cs),
(460,647,o),
(376,729,o),
(244,729,cs),
(109,729,o),
(24,645,o),
(24,499,cs),
(24,422,o),
(49,358,o),
(119,292,cs),
(182,233,o),
(199,212,o),
(199,148,c)
);
}
);
width = 509;
},
{
layerId = m003;
shapes = (
{
closed = 1;
nodes = (
(167,0,l),
(167,191,l),
(69,191,l),
(69,0,l)
);
},
{
closed = 1;
nodes = (
(585,0,l),
(585,14,ls),
(585,105,o),
(531,138,o),
(436,138,cs),
(118,138,l),
(118,94,l),
(399,94,ls),
(456,94,o),
(484,73,o),
(484,17,cs),
(484,0,l)
);
},
{
closed = 1;
nodes = (
(317,190,l),
(316,257,o),
(297,297,o),
(238,350,cs),
(180,402,o),
(160,444,o),
(160,507,cs),
(160,616,o),
(216,679,o),
(308,679,cs),
(405,679,o),
(462,623,o),
(462,488,cs),
(462,359,o),
(393,253,o),
(300,183,cs),
(264,156,o),
(219,138,o),
(165,138,c),
(306,138,l),
(475,225,o),
(568,343,o),
(568,487,cs),
(568,641,o),
(468,726,o),
(308,726,cs),
(149,726,o),
(54,631,o),
(54,496,cs),
(54,409,o),
(86,360,o),
(185,301,cs),
(251,262,o),
(273,222,o),
(273,159,c)
);
}
);
width = 623;
},
{
layerId = m005;
shapes = (
{
closed = 1;
nodes = (
(234,0,l),
(234,207,l),
(48,207,l),
(48,0,l)
);
},
{
closed = 1;
nodes = (
(657,0,l),
(657,14,ls),
(657,113,o),
(598,158,o),
(457,158,cs),
(141,158,l),
(141,88,l),
(374,88,ls),
(446,88,o),
(463,73,o),
(463,20,cs),
(463,0,l)
);
},
{
closed = 1;
nodes = (
(379,221,l),
(379,303,o),
(345,354,o),
(308,399,cs),
(250,471,o),
(241,488,o),
(241,536,cs),
(241,598,o),
(269,647,o),
(332,647,cs),
(405,647,o),
(440,608,o),
(440,486,cs),
(440,364,o),
(410,260,o),
(357,211,cs),
(320,177,o),
(282,158,o),
(235,158,c),
(398,158,l),
(600,259,o),
(647,351,o),
(647,485,cs),
(647,633,o),
(526,723,o),
(332,723,cs),
(142,723,o),
(34,613,o),
(34,491,cs),
(34,391,o),
(77,345,o),
(211,300,cs),
(283,276,o),
(309,236,o),
(309,175,c)
);
}
);
width = 692;
},
{
layerId = m006;
shapes = (
{
closed = 1;
nodes = (
(60,0,l),
(60,179,l),
(32,179,l),
(32,0,l)
);
},
{
closed = 1;
nodes = (
(393,0,l),
(393,13,ls),
(393,99,o),
(359,123,o),
(306,123,cs),
(46,123,l),
(46,98,l),
(302,98,ls),
(347,98,o),
(365,74,o),
(365,14,cs),
(365,0,l)
);
},
{
closed = 1;
nodes = (
(185,157,l),
(185,248,o),
(154,283,o),
(108,332,cs),
(74,369,o),
(52,417,o),
(52,507,cs),
(52,630,o),
(107,703,o),
(204,703,cs),
(307,703,o),
(348,616,o),
(348,483,cs),
(348,394,o),
(320,316,o),
(279,255,cs),
(223,173,o),
(141,123,o),
(66,123,c),
(158,123,l),
(268,173,o),
(376,300,o),
(376,485,cs),
(376,631,o),
(325,728,o),
(204,728,cs),
(91,728,o),
(24,642,o),
(24,507,cs),
(24,409,o),
(49,355,o),
(85,317,cs),
(136,264,o),
(162,231,o),
(162,142,c)
);
}
);
width = 421;
},
{
layerId = m007;
shapes = (
{
closed = 1;
nodes = (
(95,0,l),
(95,185,l),
(33,185,l),
(33,0,l)
);
},
{
closed = 1;
nodes = (
(434,0,l),
(434,13,ls),
(434,102,o),
(395,131,o),
(325,131,cs),
(64,131,l),
(64,86,l),
(303,86,ls),
(353,86,o),
(370,64,o),
(370,15,cs),
(370,0,l)
);
},
{
closed = 1;
nodes = (
(221,171,l),
(221,257,o),
(183,296,o),
(148,343,cs),
(118,384,o),
(91,429,o),
(91,512,cs),
(91,626,o),
(140,682,o),
(224,682,cs),
(312,682,o),
(352,614,o),
(352,486,cs),
(352,389,o),
(326,308,o),
(288,250,cs),
(238,174,o),
(166,131,o),
(98,131,c),
(212,131,l),
(328,189,o),
(418,314,o),
(418,488,cs),
(418,634,o),
(355,727,o),
(224,727,cs),
(101,727,o),
(24,640,o),
(24,510,cs),
(24,411,o),
(58,362,o),
(95,321,cs),
(138,274,o),
(186,238,o),
(186,150,c)
);
}
);
width = 462;
},
{
layerId = m009;
shapes = (
{
closed = 1;
nodes = (
(197,0,l),
(197,203,l),
(37,203,l),
(37,0,l)
);
},
{
closed = 1;
nodes = (
(553,0,l),
(553,14,ls),
(553,111,o),
(501,152,o),
(380,152,cs),
(117,152,l),
(117,88,l),
(309,88,ls),
(371,88,o),
(386,71,o),
(386,17,cs),
(386,0,l)
);
},
{
closed = 1;
nodes = (
(325,211,l),
(325,282,o),
(298,334,o),
(264,375,cs),
(226,421,o),
(194,464,o),
(194,525,cs),
(194,615,o),
(227,655,o),
(280,655,cs),
(335,655,o),
(369,607,o),
(369,496,cs),
(369,374,o),
(350,289,o),
(312,234,cs),
(274,179,o),
(237,152,o),
(191,152,c),
(326,152,l),
(462,233,o),
(539,353,o),
(539,496,cs),
(539,642,o),
(442,723,o),
(280,723,cs),
(130,723,o),
(24,636,o),
(24,518,cs),
(24,418,o),
(71,370,o),
(123,333,cs),
(187,287,o),
(260,259,o),
(261,171,c)
);
}
);
width = 581;
}
);
note = uni054B;
unicode = 1355;
}
{
color = 10;
glyphname = uni054C;
kernLeft = uni0548;
layers = (
{
layerId = m001;
shapes = (
{
closed = 1;
nodes = (
(166,20,l),
(116,20,o),
(110,31,o),
(110,108,cs),
(110,495,ls),
(110,618,o),
(172,699,o),
(313,699,cs),
(437,699,o),
(513,638,o),
(513,504,cs),
(513,0,l),
(597,0,l),
(597,20,l),
(547,20,o),
(541,31,o),
(541,108,cs),
(541,500,ls),
(541,663,o),
(449,724,o),
(311,724,cs),
(156,724,o),
(82,636,o),
(82,496,cs),
(82,0,l),
(166,0,l)
);
},
{
closed = 1;
nodes = (
(523,360,l),
(539,367,o),
(558,370,o),
(583,370,cs),
(628,370,o),
(654,346,o),
(654,286,cs),
(654,220,l),
(682,220,l),
(682,285,ls),
(682,371,o),
(643,395,o),
(583,395,cs),
(559,395,o),
(540,392,o),
(523,387,c)
);
}
);
width = 700;
},
{
layerId = m003;
shapes = (
{
closed = 1;
nodes = (
(251,37,l),
(207,37,o),
(201,48,o),
(201,111,cs),
(201,507,ls),
(201,612,o),
(253,677,o),
(359,677,cs),
(457,677,o),
(515,622,o),
(515,511,cs),
(515,0,l),
(667,0,l),
(667,37,l),
(623,37,o),
(616,48,o),
(616,111,cs),
(616,495,ls),
(616,650,o),
(518,724,o),
(358,724,cs),
(190,724,o),
(100,639,o),
(100,493,cs),
(100,0,l),
(251,0,l)
);
},
{
closed = 1;
nodes = (
(599,353,l),
(609,357,o),
(628,360,o),
(643,360,cs),
(690,360,o),
(708,341,o),
(708,264,cs),
(708,186,l),
(804,186,l),
(804,262,ls),
(804,374,o),
(759,411,o),
(662,411,cs),
(640,411,o),
(621,408,o),
(600,404,c)
);
}
);
width = 809;
},
{
associatedMasterId = m003;
attr = {
coordinates = (
152,
100
);
};
background = {
shapes = (
{
closed = 1;
nodes = (
(300.3,50.34,l),
(260.94,50.34,o),
(254.94,60.18,o),
(254.94,113.9,cs),
(254.94,515.7,ls),
(254.94,607.94,o),
(299.4,660.18,o),
(379.3,660.18,cs),
(458.74,660.18,o),
(503.4,609.82,o),
(503.4,515.64,cs),
(503.4,0,l),
(704.7,0,l),
(704.7,50.34,l),
(665.92,50.34,o),
(658.34,60.18,o),
(658.34,113.9,cs),
(658.34,491.52,ls),
(658.34,640.72,o),
(555.7,724,o),
(378.88,724,cs),
(202.18,724,o),
(100,640.74,o),
(100,491.26,cs),
(100,0,l),
(300.3,0,l)
);
},
{
closed = 1;
nodes = (
(641.92,348.36,l),
(651.92,350.62,o),
(666.28,352.46,o),
(673.74,352.46,cs),
(722.48,352.46,o),
(734.1,337.52,o),
(734.1,247.76,cs),
(734.1,161.06,l),
(881.14,161.06,l),
(881.14,245.18,ls),
(881.14,376.9,o),
(831.5,423.18,o),
(707.82,423.18,cs),
(686.4,423.18,o),
(667.4,419.6,o),
(644.08,416.18,c)
);
}
);
};
layerId = "899e2bc4-ffd3-4d39-bce8-5d94035c7de8";
name = "SemiBold (intermediate)";
shapes = (
{
closed = 1;
nodes = (
(303,51,l),
(264,51,o),
(258,61,o),
(258,114,cs),
(258,516,ls),
(258,608,o),
(302,659,o),
(380,659,cs),
(459,659,o),
(503,609,o),
(503,516,cs),
(503,0,l),
(707,0,l),
(707,51,l),
(668,51,o),
(661,61,o),
(661,114,cs),
(661,491,ls),
(661,640,o),
(558,724,o),
(380,724,cs),
(203,724,o),
(100,641,o),
(100,491,cs),
(100,0,l),
(303,0,l)
);
},
{
closed = 1;
nodes = (
(644,348,l),
(650,350,o),
(668,352,o),
(675,352,cs),
(724,352,o),
(735,337,o),
(735,247,cs),
(735,160,l),
(885,160,l),
(885,244,ls),
(885,377,o),
(835,424,o),
(710,424,cs),
(689,424,o),
(670,420,o),
(646,417,c)
);
}
);
width = 909;
},
{
layerId = m005;
shapes = (
{
closed = 1;
nodes = (
(336,60,l),
(300,60,o),
(294,69,o),
(294,116,cs),
(294,522,ls),
(294,605,o),
(333,648,o),
(394,648,cs),
(460,648,o),
(495,601,o),
(495,519,cs),
(495,0,l),
(732,0,l),
(732,60,l),
(697,60,o),
(689,69,o),
(689,116,cs),
(689,489,ls),
(689,634,o),
(583,724,o),
(394,724,cs),
(211,724,o),
(100,642,o),
(100,490,cs),
(100,0,l),
(336,0,l)
);
},
{
closed = 1;
nodes = (
(673,345,l),
(683,346,o),
(694,347,o),
(696,347,cs),
(746,347,o),
(753,335,o),
(753,236,cs),
(753,143,l),
(937,143,l),
(937,233,ls),
(937,379,o),
(884,432,o),
(741,432,cs),
(720,432,o),
(701,428,o),
(676,425,c)
);
}
);
width = 957;
},
{
layerId = m006;
shapes = (
{
closed = 1;
nodes = (
(168,20,l),
(118,20,o),
(112,31,o),
(112,107,cs),
(112,512,ls),
(112,600,o),
(151,699,o),
(263,699,cs),
(351,699,o),
(409,640,o),
(409,504,cs),
(409,0,l),
(487,0,l),
(487,20,l),
(441,20,o),
(437,31,o),
(437,105,cs),
(437,500,ls),
(437,659,o),
(367,724,o),
(264,724,cs),
(141,724,o),
(84,625,o),
(84,514,cs),
(84,0,l),
(168,0,l)
);
},
{
closed = 1;
nodes = (
(432,360,l),
(444,367,o),
(459,370,o),
(478,370,cs),
(512,370,o),
(532,346,o),
(532,286,cs),
(532,210,l),
(560,210,l),
(560,285,ls),
(560,371,o),
(529,395,o),
(480,395,cs),
(461,395,o),
(446,392,o),
(432,387,c)
);
}
);
width = 578;
},
{
layerId = m007;
shapes = (
{
closed = 1;
nodes = (
(201,35,l),
(157,35,o),
(146,45,o),
(146,115,cs),
(146,508,ls),
(146,601,o),
(183,677,o),
(280,677,cs),
(361,677,o),
(411,634,o),
(411,504,cs),
(411,0,l),
(526,0,l),
(526,35,l),
(482,35,o),
(475,45,o),
(475,114,cs),
(475,499,ls),
(475,659,o),
(398,724,o),
(280,724,cs),
(141,724,o),
(82,627,o),
(82,510,cs),
(82,0,l),
(201,0,l)
);
},
{
closed = 1;
nodes = (
(470,350,l),
(480,356,o),
(495,358,o),
(510,358,cs),
(545,358,o),
(562,336,o),
(562,276,cs),
(562,197,l),
(625,197,l),
(625,274,ls),
(625,373,o),
(591,403,o),
(525,403,cs),
(502,403,o),
(486,399,o),
(471,395,c)
);
}
);
width = 643;
},
{
layerId = m009;
shapes = (
{
closed = 1;
nodes = (
(299,56,l),
(269,56,o),
(245,63,o),
(245,115,cs),
(245,498,ls),
(245,603,o),
(278,650,o),
(329,650,cs),
(393,650,o),
(419,615,o),
(419,504,cs),
(419,0,l),
(640,0,l),
(640,56,l),
(600,56,o),
(586,61,o),
(586,115,cs),
(586,496,ls),
(586,660,o),
(487,724,o),
(327,724,cs),
(144,724,o),
(78,634,o),
(78,500,cs),
(78,0,l),
(299,0,l)
);
},
{
closed = 1;
nodes = (
(579,348,l),
(584,350,o),
(597,352,o),
(603,352,cs),
(641,352,o),
(649,337,o),
(649,247,cs),
(649,160,l),
(813,160,l),
(813,244,ls),
(813,377,o),
(767,424,o),
(655,424,cs),
(620,424,o),
(603,420,o),
(581,417,c)
);
}
);
width = 829;
}
);
note = uni054C;
unicode = 1356;
}
{
glyphname = uni054D;
kernLeft = uni0531;
layers = (
{
layerId = m001;
shapes = (
{
closed = 1;
nodes = (
(464,694,l),
(514,694,o),
(520,683,o),
(520,606,cs),
(520,219,ls),
(520,106,o),
(458,15,o),
(317,15,cs),
(193,15,o),
(117,76,o),
(117,210,cs),
(117,714,l),
(33,714,l),
(33,694,l),
(83,694,o),
(89,683,o),
(89,606,cs),
(89,214,ls),
(89,51,o),
(181,-10,o),
(319,-10,cs),
(474,-10,o),
(548,88,o),
(548,218,cs),
(548,714,l),
(464,714,l)
);
}
);
width = 631;
},
{
layerId = m003;
shapes = (
{
closed = 1;
nodes = (
(466,677,l),
(510,677,o),
(516,666,o),
(516,603,cs),
(516,207,ls),
(516,106,o),
(464,37,o),
(358,37,cs),
(259,37,o),
(201,92,o),
(201,203,cs),
(201,714,l),
(50,714,l),
(50,677,l),
(94,677,o),
(100,666,o),
(100,603,cs),
(100,219,ls),
(100,64,o),
(199,-10,o),
(359,-10,cs),
(526,-10,o),
(617,80,o),
(617,221,cs),
(617,714,l),
(466,714,l)
);
}
);
width = 718;
},
{
layerId = m005;
shapes = (
{
closed = 1;
nodes = (
(454,654,l),
(489,654,o),
(495,645,o),
(495,598,cs),
(495,192,ls),
(495,106,o),
(456,66,o),
(396,66,cs),
(329,66,o),
(294,113,o),
(294,195,cs),
(294,714,l),
(57,714,l),
(57,654,l),
(93,654,o),
(100,645,o),
(100,598,cs),
(100,225,ls),
(100,80,o),
(206,-10,o),
(395,-10,cs),
(578,-10,o),
(689,69,o),
(689,224,cs),
(689,714,l),
(454,714,l)
);
}
);
width = 788;
},
{
layerId = m006;
shapes = (
{
closed = 1;
nodes = (
(355,694,l),
(405,694,o),
(411,683,o),
(411,607,cs),
(411,202,ls),
(411,114,o),
(372,15,o),
(260,15,cs),
(172,15,o),
(114,74,o),
(114,210,cs),
(114,714,l),
(36,714,l),
(36,694,l),
(82,694,o),
(86,683,o),
(86,609,cs),
(86,214,ls),
(86,55,o),
(156,-10,o),
(259,-10,cs),
(382,-10,o),
(439,89,o),
(439,200,cs),
(439,714,l),
(355,714,l)
);
}
);
width = 523;
},
{
layerId = m007;
shapes = (
{
closed = 1;
nodes = (
(358,679,l),
(403,679,o),
(413,669,o),
(413,599,cs),
(413,216,ls),
(413,123,o),
(376,37,o),
(280,37,cs),
(198,37,o),
(148,90,o),
(148,220,cs),
(148,714,l),
(33,714,l),
(33,679,l),
(77,679,o),
(84,669,o),
(84,600,cs),
(84,215,ls),
(84,55,o),
(161,-10,o),
(279,-10,cs),
(418,-10,o),
(477,87,o),
(477,204,cs),
(477,714,l),
(358,714,l)
);
}
);
width = 560;
},
{
layerId = m009;
shapes = (
{
closed = 1;
nodes = (
(367,658,l),
(397,658,o),
(421,651,o),
(421,599,cs),
(421,216,ls),
(421,111,o),
(388,64,o),
(337,64,cs),
(273,64,o),
(247,99,o),
(247,210,cs),
(247,714,l),
(26,714,l),
(26,658,l),
(66,658,o),
(80,653,o),
(80,599,cs),
(80,218,ls),
(80,54,o),
(178,-10,o),
(338,-10,cs),
(521,-10,o),
(588,80,o),
(588,214,cs),
(588,714,l),
(367,714,l)
);
}
);
width = 666;
}
);
note = uni054D;
unicode = 1357;
}
{
glyphname = uni054E;
kernLeft = uni054E;
layers = (
{
layerId = m001;
shapes = (
{
closed = 1;
nodes = (
(381,694,l),
(431,694,o),
(437,683,o),
(437,606,cs),
(437,389,ls),
(437,276,o),
(387,185,o),
(274,185,cs),
(175,185,o),
(113,246,o),
(113,340,cs),
(113,477,l),
(29,477,l),
(29,457,l),
(79,457,o),
(85,446,o),
(85,369,cs),
(85,340,ls),
(85,221,o),
(162,160,o),
(276,160,cs),
(354,160,o),
(407,197,o),
(437,265,c),
(440,265,l),
(438,233,o),
(437,200,o),
(437,168,cs),
(437,0,l),
(465,0,l),
(465,714,l),
(381,714,l)
);
},
{
closed = 1;
nodes = (
(632,0,l),
(632,25,l),
(451,25,l),
(451,0,l)
);
}
);
width = 638;
},
{
layerId = m003;
shapes = (
{
closed = 1;
nodes = (
(408,677,l),
(452,677,o),
(458,666,o),
(458,603,cs),
(458,396,ls),
(458,289,o),
(412,207,o),
(312,207,cs),
(236,207,o),
(189,250,o),
(189,359,cs),
(189,479,l),
(38,479,l),
(38,441,l),
(82,441,o),
(88,431,o),
(88,379,cs),
(88,357,ls),
(88,220,o),
(159,157,o),
(290,157,cs),
(377,157,o),
(424,190,o),
(457,245,c),
(462,245,l),
(459,215,o),
(458,184,o),
(458,152,cs),
(458,0,l),
(559,0,l),
(559,714,l),
(408,714,l)
);
},
{
closed = 1;
nodes = (
(738,0,l),
(738,45,l),
(548,45,l),
(548,0,l)
);
}
);
width = 743;
},
{
layerId = m005;
shapes = (
{
closed = 1;
nodes = (
(424,654,l),
(460,654,o),
(467,645,o),
(467,598,cs),
(467,406,ls),
(467,307,o),
(426,236,o),
(342,236,cs),
(294,236,o),
(268,255,o),
(268,383,cs),
(268,481,l),
(31,481,l),
(31,421,l),
(67,421,o),
(74,412,o),
(74,391,cs),
(74,378,ls),
(74,218,o),
(137,152,o),
(289,152,cs),
(388,152,o),
(428,182,o),
(463,219,c),
(473,220,l),
(468,192,o),
(467,163,o),
(467,131,cs),
(467,0,l),
(661,0,l),
(661,714,l),
(424,714,l)
);
},
{
closed = 1;
nodes = (
(853,0,l),
(853,70,l),
(652,70,l),
(652,0,l)
);
}
);
width = 859;
},
{
layerId = m006;
shapes = (
{
closed = 1;
nodes = (
(326,694,l),
(372,694,o),
(376,683,o),
(376,609,cs),
(376,321,ls),
(376,254,o),
(314,185,o),
(225,185,cs),
(149,185,o),
(110,230,o),
(110,335,cs),
(110,474,l),
(32,474,l),
(32,454,l),
(78,454,o),
(82,443,o),
(82,369,cs),
(82,323,ls),
(82,218,o),
(130,160,o),
(223,160,cs),
(281,160,o),
(341,186,o),
(374,252,c),
(378,252,l),
(377,232,o),
(376,211,o),
(376,190,cs),
(376,0,l),
(404,0,l),
(404,714,l),
(326,714,l)
);
},
{
closed = 1;
nodes = (
(514,0,l),
(514,25,l),
(391,25,l),
(391,0,l)
);
}
);
width = 520;
},
{
layerId = m007;
shapes = (
{
closed = 1;
nodes = (
(328,679,l),
(370,679,o),
(378,669,o),
(378,600,cs),
(378,323,ls),
(378,262,o),
(324,207,o),
(247,207,cs),
(177,207,o),
(144,252,o),
(144,346,cs),
(144,477,l),
(29,477,l),
(29,441,l),
(71,441,o),
(80,431,o),
(80,363,cs),
(80,327,ls),
(80,215,o),
(133,157,o),
(229,157,cs),
(286,157,o),
(343,183,o),
(377,244,c),
(381,244,l),
(380,222,o),
(378,201,o),
(378,180,cs),
(378,0,l),
(442,0,l),
(442,714,l),
(328,714,l)
);
},
{
closed = 1;
nodes = (
(566,0,l),
(566,43,l),
(429,43,l),
(429,0,l)
);
}
);
width = 572;
},
{
layerId = m009;
shapes = (
{
closed = 1;
nodes = (
(334,658,l),
(364,658,o),
(385,651,o),
(385,599,cs),
(385,328,ls),
(385,285,o),
(356,246,o),
(311,246,cs),
(258,246,o),
(243,293,o),
(243,353,cs),
(243,484,l),
(22,484,l),
(22,428,l),
(52,428,o),
(76,421,o),
(76,369,cs),
(76,340,ls),
(76,206,o),
(139,150,o),
(248,150,cs),
(303,150,o),
(351,174,o),
(387,222,c),
(391,222,l),
(389,198,o),
(385,174,o),
(385,150,cs),
(385,0,l),
(552,0,l),
(552,714,l),
(334,714,l)
);
},
{
closed = 1;
nodes = (
(716,0,l),
(716,63,l),
(539,63,l),
(539,0,l)
);
}
);
width = 720;
}
);
note = uni054E;
unicode = 1358;
}
{
glyphname = uni054F;
layers = (
{
layerId = m001;
shapes = (
{
closed = 1;
nodes = (
(416,-10,o),
(487,67,o),
(487,169,cs),
(487,259,o),
(443,300,o),
(268,383,cs),
(123,452,o),
(94,492,o),
(94,560,cs),
(94,629,o),
(148,699,o),
(255,699,cs),
(354,699,o),
(410,661,o),
(410,575,c),
(422,575,o),
(431,589,o),
(431,614,cs),
(431,679,o),
(369,724,o),
(257,724,cs),
(133,724,o),
(66,650,o),
(66,559,cs),
(66,480,o),
(100,427,o),
(255,358,cs),
(414,287,o),
(459,244,o),
(459,168,cs),
(459,78,o),
(398,15,o),
(269,15,cs),
(136,15,o),
(62,66,o),
(62,166,c),
(48,166,o),
(41,150,o),
(41,126,cs),
(41,59,o),
(114,-10,o),
(270,-10,cs)
);
}
);
width = 524;
},
{
layerId = m003;
shapes = (
{
closed = 1;
nodes = (
(446,-10,o),
(537,74,o),
(537,191,cs),
(537,286,o),
(484,338,o),
(323,404,cs),
(177,464,o),
(145,504,o),
(145,566,cs),
(145,630,o),
(196,677,o),
(277,677,cs),
(376,677,o),
(418,631,o),
(418,545,c),
(470,545,o),
(500,568,o),
(500,611,cs),
(500,676,o),
(425,724,o),
(286,724,cs),
(149,724,o),
(59,647,o),
(59,539,cs),
(59,449,o),
(100,392,o),
(265,324,cs),
(393,271,o),
(450,234,o),
(450,162,cs),
(450,91,o),
(400,37,o),
(294,37,cs),
(183,37,o),
(129,93,o),
(129,198,c),
(82,198,o),
(44,177,o),
(44,128,cs),
(44,62,o),
(111,-10,o),
(280,-10,cs)
);
}
);
width = 585;
},
{
layerId = m005;
shapes = (
{
closed = 1;
nodes = (
(457,-10,o),
(573,84,o),
(573,220,cs),
(573,320,o),
(510,384,o),
(365,432,cs),
(218,481,o),
(184,520,o),
(184,574,cs),
(184,632,o),
(230,648,o),
(277,648,cs),
(376,648,o),
(401,592,o),
(401,506,c),
(504,506,o),
(562,540,o),
(562,606,cs),
(562,671,o),
(470,724,o),
(296,724,cs),
(144,724,o),
(23,644,o),
(23,513,cs),
(23,410,o),
(74,343,o),
(252,280,cs),
(339,249,o),
(412,221,o),
(412,155,cs),
(412,109,o),
(377,66,o),
(299,66,cs),
(216,66,o),
(188,127,o),
(188,239,c),
(98,239,o),
(21,211,o),
(21,131,cs),
(21,67,o),
(80,-10,o),
(265,-10,cs)
);
}
);
width = 611;
},
{
layerId = m006;
shapes = (
{
closed = 1;
nodes = (
(289,-10,o),
(340,54,o),
(340,172,cs),
(340,284,o),
(278,328,o),
(204,376,cs),
(127,426,o),
(91,463,o),
(91,557,cs),
(91,638,o),
(127,699,o),
(202,699,cs),
(270,699,o),
(306,648,o),
(306,573,c),
(317,573,o),
(327,584,o),
(327,614,cs),
(327,664,o),
(283,724,o),
(202,724,cs),
(113,724,o),
(63,653,o),
(63,565,cs),
(63,447,o),
(118,398,o),
(187,353,cs),
(276,295,o),
(312,264,o),
(312,163,cs),
(312,65,o),
(269,15,o),
(190,15,cs),
(105,15,o),
(71,88,o),
(67,168,c),
(51,168,o),
(48,140,o),
(48,124,cs),
(48,64,o),
(89,-10,o),
(189,-10,cs)
);
}
);
width = 382;
},
{
layerId = m007;
shapes = (
{
closed = 1;
nodes = (
(314,-10,o),
(377,60,o),
(377,181,cs),
(377,289,o),
(321,344,o),
(234,394,cs),
(145,445,o),
(112,479,o),
(112,561,cs),
(112,636,o),
(147,679,o),
(213,679,cs),
(279,679,o),
(314,632,o),
(314,559,c),
(345,559,o),
(361,576,o),
(361,611,cs),
(361,663,o),
(313,724,o),
(218,724,cs),
(119,724,o),
(57,652,o),
(57,555,cs),
(57,443,o),
(107,385,o),
(190,336,cs),
(281,282,o),
(321,254,o),
(321,161,cs),
(321,74,o),
(281,35,o),
(207,35,cs),
(129,35,o),
(87,92,o),
(84,184,c),
(57,184,o),
(41,157,o),
(41,125,cs),
(41,66,o),
(81,-10,o),
(202,-10,cs)
);
}
);
width = 414;
},
{
layerId = m009;
shapes = (
{
closed = 1;
nodes = (
(385,-10,o),
(480,76,o),
(480,206,cs),
(480,304,o),
(444,370,o),
(317,429,cs),
(193,486,o),
(170,526,o),
(170,574,cs),
(170,632,o),
(202,661,o),
(243,661,cs),
(302,661,o),
(335,586,o),
(335,519,c),
(425,519,o),
(456,553,o),
(456,601,cs),
(456,661,o),
(398,724,o),
(263,724,cs),
(136,724,o),
(38,648,o),
(38,526,cs),
(38,432,o),
(73,363,o),
(199,302,cs),
(290,258,o),
(346,224,o),
(346,155,cs),
(346,100,o),
(314,52,o),
(256,52,cs),
(197,52,o),
(131,104,o),
(131,229,c),
(75,229,o),
(20,205,o),
(20,128,cs),
(20,70,o),
(57,-10,o),
(237,-10,cs)
);
}
);
width = 504;
}
);
note = uni054F;
unicode = 1359;
}
{
glyphname = uni0550;
kernLeft = uni0548;
layers = (
{
layerId = m001;
shapes = (
{
closed = 1;
nodes = (
(156,724,o),
(82,626,o),
(82,496,cs),
(82,0,l),
(166,0,l),
(166,20,l),
(116,20,o),
(110,31,o),
(110,108,cs),
(110,495,ls),
(110,608,o),
(172,699,o),
(293,699,cs),
(407,699,o),
(483,638,o),
(483,504,cs),
(483,349,l),
(511,349,l),
(511,500,ls),
(511,663,o),
(419,724,o),
(291,724,cs)
);
}
);
width = 563;
},
{
layerId = m003;
shapes = (
{
closed = 1;
nodes = (
(191,724,o),
(101,634,o),
(101,493,cs),
(101,0,l),
(252,0,l),
(252,37,l),
(208,37,o),
(202,48,o),
(202,111,cs),
(202,507,ls),
(202,608,o),
(254,677,o),
(351,677,cs),
(445,677,o),
(503,622,o),
(503,511,cs),
(503,350,l),
(604,350,l),
(604,495,ls),
(604,650,o),
(506,724,o),
(350,724,cs)
);
}
);
width = 670;
},
{
layerId = m005;
shapes = (
{
closed = 1;
nodes = (
(210,724,o),
(99,645,o),
(99,490,cs),
(99,0,l),
(335,0,l),
(335,60,l),
(299,60,o),
(293,69,o),
(293,116,cs),
(293,522,ls),
(293,608,o),
(332,648,o),
(398,648,cs),
(467,648,o),
(503,601,o),
(503,519,cs),
(503,350,l),
(697,350,l),
(697,489,ls),
(697,634,o),
(591,724,o),
(399,724,cs)
);
}
);
width = 753;
},
{
layerId = m006;
shapes = (
{
closed = 1;
nodes = (
(141,724,o),
(84,625,o),
(84,514,cs),
(84,0,l),
(168,0,l),
(168,20,l),
(118,20,o),
(112,31,o),
(112,107,cs),
(112,512,ls),
(112,600,o),
(151,699,o),
(263,699,cs),
(351,699,o),
(409,640,o),
(409,504,cs),
(409,350,l),
(437,350,l),
(437,500,ls),
(437,659,o),
(367,724,o),
(264,724,cs)
);
}
);
width = 489;
},
{
layerId = m007;
shapes = (
{
closed = 1;
nodes = (
(142,724,o),
(82,627,o),
(82,510,cs),
(82,0,l),
(201,0,l),
(201,35,l),
(157,35,o),
(146,45,o),
(146,115,cs),
(146,508,ls),
(146,601,o),
(183,677,o),
(280,677,cs),
(361,677,o),
(411,634,o),
(411,504,cs),
(411,350,l),
(475,350,l),
(475,499,ls),
(475,659,o),
(399,724,o),
(281,724,cs)
);
}
);
width = 527;
},
{
layerId = m009;
shapes = (
{
closed = 1;
nodes = (
(148,724,o),
(78,634,o),
(78,500,cs),
(78,0,l),
(299,0,l),
(299,56,l),
(269,56,o),
(245,63,o),
(245,115,cs),
(245,498,ls),
(245,603,o),
(278,650,o),
(329,650,cs),
(393,650,o),
(419,615,o),
(419,504,cs),
(419,350,l),
(586,350,l),
(586,496,ls),
(586,660,o),
(491,724,o),
(331,724,cs)
);
}
);
width = 634;
}
);
note = uni0550;
unicode = 1360;
}
{
glyphname = uni0551;
kernRight = uni0551;
layers = (
{
layerId = m001;
shapes = (
{
closed = 1;
nodes = (
(291,390,l),
(366,411,o),
(441,458,o),
(441,564,cs),
(441,660,o),
(368,726,o),
(249,726,cs),
(100,726,o),
(51,625,o),
(51,564,cs),
(51,478,o),
(93,416,o),
(205,385,c),
(205,383,l),
(30,329,l),
(37,304,l),
(246,373,l),
(372,348,o),
(438,293,o),
(438,182,cs),
(438,82,o),
(352,16,o),
(241,16,cs),
(131,16,o),
(58,53,o),
(58,178,c),
(38,178,o),
(32,165,o),
(32,148,cs),
(32,44,o),
(116,-9,o),
(242,-9,cs),
(375,-9,o),
(466,70,o),
(466,185,cs),
(466,307,o),
(391,366,o),
(291,388,c)
);
},
{
closed = 1;
nodes = (
(79,611,o),
(118,701,o),
(249,701,cs),
(354,701,o),
(413,642,o),
(413,561,cs),
(413,471,o),
(357,434,o),
(244,399,c),
(112,434,o),
(79,484,o),
(79,564,cs)
);
}
);
width = 500;
},
{
layerId = m003;
shapes = (
{
closed = 1;
nodes = (
(342,394,l),
(454,423,o),
(508,475,o),
(508,562,cs),
(508,654,o),
(439,725,o),
(282,725,cs),
(107,725,o),
(52,631,o),
(52,558,cs),
(52,476,o),
(88,428,o),
(193,391,c),
(193,387,l),
(32,350,l),
(49,279,l),
(264,364,l),
(371,335,o),
(430,289,o),
(430,188,cs),
(430,92,o),
(370,38,o),
(270,38,cs),
(169,38,o),
(119,84,o),
(119,203,c),
(69,203,o),
(28,184,o),
(28,138,cs),
(28,56,o),
(109,-10,o),
(273,-10,cs),
(441,-10,o),
(537,72,o),
(537,187,cs),
(537,297,o),
(473,361,o),
(342,391,c)
);
},
{
closed = 1;
nodes = (
(150,617,o),
(182,677,o),
(281,677,cs),
(366,677,o),
(409,631,o),
(409,561,cs),
(409,490,o),
(372,444,o),
(275,413,c),
(175,444,o),
(150,490,o),
(150,558,cs)
);
}
);
width = 576;
},
{
layerId = m005;
shapes = (
{
closed = 1;
nodes = (
(406,399,l),
(565,438,o),
(593,498,o),
(593,560,cs),
(593,647,o),
(529,723,o),
(323,723,cs),
(114,723,o),
(52,638,o),
(52,551,cs),
(52,473,o),
(82,443,o),
(177,399,c),
(177,393,l),
(34,374,l),
(64,249,l),
(284,354,l),
(367,322,o),
(419,283,o),
(419,195,cs),
(419,104,o),
(393,66,o),
(306,66,cs),
(215,66,o),
(193,117,o),
(193,235,c),
(105,235,o),
(22,207,o),
(22,125,cs),
(22,71,o),
(98,-10,o),
(312,-10,cs),
(525,-10,o),
(626,74,o),
(626,190,cs),
(626,284,o),
(578,355,o),
(406,396,c)
);
},
{
closed = 1;
nodes = (
(241,625,o),
(263,647,o),
(323,647,cs),
(382,647,o),
(404,616,o),
(404,561,cs),
(404,514,o),
(391,457,o),
(315,431,c),
(255,457,o),
(241,498,o),
(241,551,cs)
);
}
);
width = 659;
},
{
layerId = m006;
shapes = (
{
closed = 1;
nodes = (
(235,389,l),
(296,412,o),
(354,463,o),
(354,564,cs),
(354,660,o),
(298,724,o),
(203,724,cs),
(86,724,o),
(48,625,o),
(48,564,cs),
(48,478,o),
(80,416,o),
(165,385,c),
(165,383,l),
(32,331,l),
(42,307,l),
(201,373,l),
(299,348,o),
(345,293,o),
(345,182,cs),
(345,82,o),
(281,15,o),
(197,15,cs),
(113,15,o),
(61,58,o),
(61,178,c),
(43,178,o),
(33,165,o),
(33,148,cs),
(33,44,o),
(97,-10,o),
(198,-10,cs),
(303,-10,o),
(373,70,o),
(373,185,cs),
(373,307,o),
(315,364,o),
(235,386,c)
);
},
{
closed = 1;
nodes = (
(76,611,o),
(105,699,o),
(203,699,cs),
(282,699,o),
(326,642,o),
(326,561,cs),
(326,471,o),
(285,434,o),
(199,399,c),
(100,434,o),
(76,484,o),
(76,564,cs)
);
}
);
width = 409;
},
{
layerId = m007;
shapes = (
{
closed = 1;
nodes = (
(267,387,l),
(348,414,o),
(397,471,o),
(397,563,cs),
(397,657,o),
(341,724,o),
(224,724,cs),
(90,724,o),
(48,628,o),
(48,561,cs),
(48,477,o),
(79,426,o),
(164,392,c),
(164,389,l),
(32,345,l),
(43,287,l),
(213,363,l),
(305,337,o),
(352,291,o),
(352,185,cs),
(352,87,o),
(298,35,o),
(216,35,cs),
(133,35,o),
(89,71,o),
(89,190,c),
(56,190,o),
(30,174,o),
(30,143,cs),
(30,50,o),
(95,-10,o),
(218,-10,cs),
(344,-10,o),
(419,71,o),
(419,186,cs),
(419,302,o),
(365,358,o),
(267,384,c)
);
},
{
closed = 1;
nodes = (
(110,614,o),
(137,679,o),
(223,679,cs),
(296,679,o),
(334,636,o),
(334,561,cs),
(334,481,o),
(300,443,o),
(218,410,c),
(131,443,o),
(110,487,o),
(110,561,cs)
);
}
);
width = 453;
},
{
layerId = m009;
shapes = (
{
closed = 1;
nodes = (
(356,397,l),
(494,434,o),
(520,492,o),
(520,560,cs),
(520,649,o),
(464,723,o),
(284,723,cs),
(101,723,o),
(46,636,o),
(46,553,cs),
(46,473,o),
(73,439,o),
(158,397,c),
(158,391,l),
(30,368,l),
(56,258,l),
(250,357,l),
(325,326,o),
(372,285,o),
(372,193,cs),
(372,100,o),
(347,54,o),
(269,54,cs),
(188,54,o),
(167,108,o),
(167,226,c),
(92,226,o),
(20,201,o),
(20,129,cs),
(20,67,o),
(88,-10,o),
(274,-10,cs),
(459,-10,o),
(549,74,o),
(549,190,cs),
(549,288,o),
(505,357,o),
(356,394,c)
);
},
{
closed = 1;
nodes = (
(209,623,o),
(229,659,o),
(283,659,cs),
(336,659,o),
(357,620,o),
(357,561,cs),
(357,508,o),
(345,453,o),
(276,426,c),
(222,453,o),
(209,496,o),
(209,553,cs)
);
}
);
width = 579;
}
);
note = uni0551;
unicode = 1361;
}
{
glyphname = uni0552;
kernLeft = uni0538;
kernRight = uni0552;
layers = (
{
layerId = m001;
shapes = (
{
closed = 1;
nodes = (
(112,511,l),
(169,511,ls),
(247,511,o),
(262,496,o),
(317,368,cs),
(381,219,o),
(394,214,o),
(452,214,cs),
(479,214,l),
(479,239,l),
(453,239,ls),
(408,239,o),
(400,245,o),
(342,379,cs),
(281,519,o),
(257,536,o),
(166,536,cs),
(112,536,l)
);
},
{
closed = 1;
nodes = (
(117,714,l),
(33,714,l),
(33,694,l),
(83,694,o),
(89,688,o),
(89,611,cs),
(89,0,l),
(173,0,l),
(173,20,l),
(123,20,o),
(117,26,o),
(117,103,cs)
);
}
);
width = 489;
},
{
layerId = m003;
shapes = (
{
closed = 1;
nodes = (
(201,472,l),
(248,472,ls),
(300,472,o),
(313,461,o),
(367,340,cs),
(423,215,o),
(451,201,o),
(524,201,cs),
(596,201,l),
(596,245,l),
(575,245,ls),
(528,245,o),
(517,254,o),
(461,377,cs),
(405,499,o),
(380,517,o),
(268,517,cs),
(201,517,l)
);
},
{
closed = 1;
nodes = (
(209,714,l),
(58,714,l),
(58,677,l),
(102,677,o),
(108,668,o),
(108,605,cs),
(108,0,l),
(260,0,l),
(260,37,l),
(216,37,o),
(209,46,o),
(209,109,cs)
);
}
);
width = 614;
},
{
layerId = m005;
shapes = (
{
closed = 1;
nodes = (
(292,423,l),
(327,423,ls),
(345,423,o),
(355,417,o),
(408,305,cs),
(453,210,o),
(501,183,o),
(594,183,cs),
(722,183,l),
(722,253,l),
(707,253,ls),
(658,253,o),
(644,265,o),
(591,374,cs),
(541,473,o),
(514,493,o),
(375,493,cs),
(292,493,l)
);
},
{
closed = 1;
nodes = (
(305,714,l),
(68,714,l),
(68,654,l),
(104,654,o),
(111,643,o),
(111,597,cs),
(111,0,l),
(348,0,l),
(348,60,l),
(313,60,o),
(305,71,o),
(305,117,cs)
);
}
);
width = 726;
},
{
layerId = m006;
shapes = (
{
closed = 1;
nodes = (
(109,511,l),
(151,511,ls),
(209,511,o),
(220,496,o),
(262,368,cs),
(311,219,o),
(322,214,o),
(369,214,cs),
(393,214,l),
(393,239,l),
(375,239,ls),
(340,239,o),
(333,245,o),
(289,379,cs),
(243,519,o),
(224,536,o),
(152,536,cs),
(109,536,l)
);
},
{
closed = 1;
nodes = (
(114,714,l),
(36,714,l),
(36,694,l),
(82,694,o),
(86,683,o),
(86,609,cs),
(86,0,l),
(164,0,l),
(164,20,l),
(118,20,o),
(114,31,o),
(114,105,cs)
);
}
);
width = 405;
},
{
layerId = m007;
shapes = (
{
closed = 1;
nodes = (
(142,484,l),
(181,484,ls),
(229,484,o),
(240,470,o),
(282,354,cs),
(331,218,o),
(346,207,o),
(397,207,cs),
(441,207,l),
(441,250,l),
(425,250,ls),
(388,250,o),
(381,257,o),
(337,378,cs),
(290,508,o),
(273,527,o),
(191,527,cs),
(142,527,l)
);
},
{
closed = 1;
nodes = (
(148,714,l),
(33,714,l),
(33,679,l),
(77,679,o),
(84,669,o),
(84,600,cs),
(84,0,l),
(199,0,l),
(199,35,l),
(157,35,o),
(148,45,o),
(148,114,cs)
);
}
);
width = 451;
},
{
layerId = m009;
shapes = (
{
closed = 1;
nodes = (
(237,436,l),
(266,436,ls),
(288,436,o),
(299,428,o),
(340,314,cs),
(377,211,o),
(414,188,o),
(479,188,cs),
(579,188,l),
(579,252,l),
(567,252,ls),
(527,252,o),
(517,262,o),
(474,374,cs),
(434,480,o),
(412,500,o),
(303,500,cs),
(237,500,l)
);
},
{
closed = 1;
nodes = (
(245,714,l),
(26,714,l),
(26,658,l),
(66,658,o),
(78,653,o),
(78,599,cs),
(78,0,l),
(299,0,l),
(299,56,l),
(269,56,o),
(245,63,o),
(245,115,cs)
);
}
);
width = 584;
}
);
note = uni0552;
unicode = 1362;
}
{
glyphname = uni0553;
kernLeft = uni0555;
kernRight = uni0555;
layers = (
{
layerId = m001;
shapes = (
{
closed = 1;
nodes = (
(477,134,o),
(557,208,o),
(557,363,cs),
(557,493,o),
(482,590,o),
(332,590,cs),
(310,590,l),
(310,714,l),
(230,714,l),
(230,694,l),
(273,694,o),
(282,692,o),
(282,605,cs),
(282,590,l),
(260,590,ls),
(110,590,o),
(35,493,o),
(35,363,cs),
(35,208,o),
(115,134,o),
(260,134,cs),
(282,134,l),
(282,0,l),
(362,0,l),
(362,20,l),
(315,20,o),
(310,24,o),
(310,101,cs),
(310,134,l),
(326,134,ls)
);
},
{
closed = 1;
nodes = (
(260,159,ls),
(125,159,o),
(63,226,o),
(63,363,cs),
(63,487,o),
(125,565,o),
(260,565,cs),
(282,565,l),
(282,159,l)
);
},
{
closed = 1;
nodes = (
(332,565,ls),
(467,565,o),
(529,487,o),
(529,363,cs),
(529,226,o),
(467,159,o),
(326,159,cs),
(310,159,l),
(310,565,l)
);
}
);
width = 592;
},
{
layerId = m003;
shapes = (
{
closed = 1;
nodes = (
(638,134,o),
(715,233,o),
(715,367,cs),
(715,497,o),
(635,590,o),
(467,590,cs),
(426,590,l),
(426,714,l),
(284,714,l),
(284,675,l),
(322,675,o),
(332,670,o),
(332,613,cs),
(332,590,l),
(292,590,ls),
(124,590,o),
(43,497,o),
(43,367,cs),
(43,233,o),
(121,134,o),
(305,134,cs),
(332,134,l),
(332,0,l),
(475,0,l),
(475,39,l),
(435,39,o),
(426,45,o),
(426,100,cs),
(426,134,l),
(451,134,ls)
);
},
{
closed = 1;
nodes = (
(306,178,ls),
(207,178,o),
(140,234,o),
(140,365,cs),
(140,483,o),
(204,546,o),
(299,546,cs),
(332,546,l),
(332,178,l)
);
},
{
closed = 1;
nodes = (
(460,546,ls),
(555,546,o),
(619,483,o),
(619,365,cs),
(619,234,o),
(552,178,o),
(450,178,cs),
(427,178,l),
(427,546,l)
);
}
);
width = 759;
},
{
layerId = m005;
shapes = (
{
closed = 1;
nodes = (
(811,134,o),
(886,264,o),
(886,373,cs),
(886,503,o),
(798,590,o),
(608,590,cs),
(543,590,l),
(543,714,l),
(322,714,l),
(322,652,l),
(353,652,o),
(365,642,o),
(365,624,cs),
(365,590,l),
(301,590,ls),
(110,590,o),
(22,503,o),
(22,373,cs),
(22,264,o),
(97,134,o),
(331,134,cs),
(365,134,l),
(365,0,l),
(588,0,l),
(588,62,l),
(556,62,o),
(543,71,o),
(543,100,cs),
(543,134,l),
(579,134,ls)
);
},
{
closed = 1;
nodes = (
(334,202,ls),
(280,202,o),
(207,244,o),
(207,368,cs),
(207,477,o),
(273,522,o),
(317,522,cs),
(365,522,l),
(365,202,l)
);
},
{
closed = 1;
nodes = (
(591,522,ls),
(635,522,o),
(701,477,o),
(701,368,cs),
(701,244,o),
(627,202,o),
(576,202,cs),
(543,202,l),
(543,522,l)
);
}
);
width = 908;
},
{
layerId = m006;
shapes = (
{
closed = 1;
nodes = (
(393,134,o),
(448,234,o),
(448,366,cs),
(448,508,o),
(382,590,o),
(266,590,cs),
(256,590,l),
(256,714,l),
(178,714,l),
(178,694,l),
(223,694,o),
(228,683,o),
(228,606,cs),
(228,590,l),
(218,590,ls),
(93,590,o),
(36,496,o),
(36,360,cs),
(36,222,o),
(94,134,o),
(216,134,cs),
(228,134,l),
(228,0,l),
(306,0,l),
(306,20,l),
(261,20,o),
(256,31,o),
(256,108,cs),
(256,134,l),
(268,134,ls)
);
},
{
closed = 1;
nodes = (
(221,159,ls),
(109,159,o),
(64,240,o),
(64,361,cs),
(64,479,o),
(109,565,o),
(218,565,cs),
(228,565,l),
(228,159,l)
);
},
{
closed = 1;
nodes = (
(266,565,ls),
(377,565,o),
(420,479,o),
(420,367,cs),
(420,240,o),
(372,159,o),
(267,159,cs),
(256,159,l),
(256,565,l)
);
}
);
width = 484;
},
{
layerId = m007;
shapes = (
{
closed = 1;
nodes = (
(468,134,o),
(526,238,o),
(526,367,cs),
(526,506,o),
(457,590,o),
(330,590,cs),
(311,590,l),
(311,714,l),
(199,714,l),
(199,679,l),
(242,679,o),
(250,669,o),
(250,604,cs),
(250,590,l),
(231,590,ls),
(97,590,o),
(35,497,o),
(35,363,cs),
(35,228,o),
(95,134,o),
(235,134,cs),
(250,134,l),
(250,0,l),
(362,0,l),
(362,35,l),
(317,35,o),
(311,46,o),
(311,110,cs),
(311,134,l),
(326,134,ls)
);
},
{
closed = 1;
nodes = (
(240,177,ls),
(137,177,o),
(95,240,o),
(95,363,cs),
(95,479,o),
(137,547,o),
(235,547,cs),
(250,547,l),
(250,177,l)
);
},
{
closed = 1;
nodes = (
(326,547,ls),
(425,547,o),
(466,479,o),
(466,367,cs),
(466,240,o),
(421,177,o),
(324,177,cs),
(311,177,l),
(311,547,l)
);
}
);
width = 561;
},
{
layerId = m009;
shapes = (
{
closed = 1;
nodes = (
(681,134,o),
(748,249,o),
(748,370,cs),
(748,500,o),
(673,590,o),
(512,590,cs),
(467,590,l),
(467,714,l),
(260,714,l),
(260,658,l),
(297,658,o),
(314,651,o),
(314,600,cs),
(314,590,l),
(267,590,ls),
(108,590,o),
(32,500,o),
(32,370,cs),
(32,247,o),
(99,134,o),
(289,134,cs),
(314,134,l),
(314,0,l),
(523,0,l),
(523,56,l),
(478,56,o),
(467,66,o),
(467,114,cs),
(467,134,l),
(491,134,ls)
);
},
{
closed = 1;
nodes = (
(293,195,ls),
(218,195,o),
(184,240,o),
(184,367,cs),
(184,479,o),
(218,529,o),
(284,529,cs),
(314,529,l),
(314,195,l)
);
},
{
closed = 1;
nodes = (
(496,529,ls),
(562,529,o),
(595,479,o),
(595,367,cs),
(595,240,o),
(558,195,o),
(486,195,cs),
(467,195,l),
(467,529,l)
);
}
);
width = 780;
}
);
note = uni0553;
unicode = 1363;
}
{
glyphname = uni0554;
kernLeft = uni0554;
layers = (
{
layerId = m001;
shapes = (
{
closed = 1;
nodes = (
(137,0,l),
(137,352,l),
(264,352,ls),
(376,352,o),
(460,413,o),
(460,537,cs),
(460,655,o),
(397,724,o),
(281,724,cs),
(173,724,o),
(109,651,o),
(109,520,cs),
(109,0,l)
);
},
{
closed = 1;
nodes = (
(137,377,l),
(137,520,ls),
(137,629,o),
(184,699,o),
(280,699,cs),
(384,699,o),
(432,637,o),
(432,535,cs),
(432,426,o),
(355,377,o),
(266,377,cs)
);
},
{
closed = 1;
nodes = (
(460,220,l),
(460,245,l),
(11,245,l),
(11,220,l)
);
}
);
width = 501;
},
{
layerId = m003;
shapes = (
{
closed = 1;
nodes = (
(202,0,l),
(202,348,l),
(301,348,ls),
(453,348,o),
(531,415,o),
(531,533,cs),
(531,658,o),
(460,724,o),
(317,724,cs),
(177,724,o),
(101,651,o),
(101,502,cs),
(101,0,l)
);
},
{
closed = 1;
nodes = (
(202,393,l),
(202,501,ls),
(202,629,o),
(237,678,o),
(317,678,cs),
(395,678,o),
(430,628,o),
(430,536,cs),
(430,441,o),
(373,393,o),
(290,393,cs)
);
},
{
closed = 1;
nodes = (
(528,211,l),
(528,256,l),
(18,256,l),
(18,211,l)
);
}
);
width = 585;
},
{
layerId = m005;
shapes = (
{
closed = 1;
nodes = (
(293,0,l),
(293,341,l),
(356,341,ls),
(559,341,o),
(629,417,o),
(629,527,cs),
(629,650,o),
(551,724,o),
(371,724,cs),
(191,724,o),
(99,649,o),
(99,507,cs),
(99,0,l)
);
},
{
closed = 1;
nodes = (
(293,411,l),
(293,503,ls),
(293,627,o),
(312,648,o),
(363,648,cs),
(416,648,o),
(435,616,o),
(435,536,cs),
(435,459,o),
(405,411,o),
(329,411,cs)
);
},
{
closed = 1;
nodes = (
(621,199,l),
(621,269,l),
(34,269,l),
(34,199,l)
);
}
);
width = 673;
},
{
layerId = m006;
shapes = (
{
closed = 1;
nodes = (
(112,0,l),
(112,353,l),
(207,353,ls),
(297,353,o),
(361,414,o),
(361,538,cs),
(361,656,o),
(312,724,o),
(220,724,cs),
(134,724,o),
(84,651,o),
(84,499,cs),
(84,0,l)
);
},
{
closed = 1;
nodes = (
(112,378,l),
(112,499,ls),
(112,629,o),
(147,699,o),
(220,699,cs),
(297,699,o),
(333,637,o),
(333,536,cs),
(333,427,o),
(276,378,o),
(208,378,cs)
);
},
{
closed = 1;
nodes = (
(355,220,l),
(355,245,l),
(12,245,l),
(12,220,l)
);
}
);
width = 403;
},
{
layerId = m007;
shapes = (
{
closed = 1;
nodes = (
(146,0,l),
(146,350,l),
(231,350,ls),
(344,350,o),
(407,415,o),
(407,536,cs),
(407,661,o),
(355,724,o),
(244,724,cs),
(140,724,o),
(82,650,o),
(82,501,cs),
(82,0,l)
);
},
{
closed = 1;
nodes = (
(146,393,l),
(146,500,ls),
(146,629,o),
(176,679,o),
(243,679,cs),
(312,679,o),
(343,633,o),
(343,536,cs),
(343,434,o),
(294,393,o),
(226,393,cs)
);
},
{
closed = 1;
nodes = (
(401,207,l),
(401,250,l),
(11,250,l),
(11,207,l)
);
}
);
width = 448;
},
{
layerId = m009;
shapes = (
{
closed = 1;
nodes = (
(245,0,l),
(245,342,l),
(301,342,ls),
(479,342,o),
(541,417,o),
(541,529,cs),
(541,652,o),
(471,724,o),
(315,724,cs),
(158,724,o),
(78,649,o),
(78,505,cs),
(78,0,l)
);
},
{
closed = 1;
nodes = (
(245,406,l),
(245,503,ls),
(245,631,o),
(262,660,o),
(311,660,cs),
(357,660,o),
(374,623,o),
(374,536,cs),
(374,454,o),
(346,406,o),
(279,406,cs)
);
},
{
closed = 1;
nodes = (
(534,201,l),
(534,265,l),
(10,265,l),
(10,201,l)
);
}
);
width = 577;
}
);
note = uni0554;
unicode = 1364;
}
{
glyphname = uni0555;
kernLeft = uni0555;
kernRight = uni0555;
layers = (
{
anchors = (
{
name = top;
pos = (329,714);
}
);
layerId = m001;
shapes = (
{
closed = 1;
nodes = (
(531,-10,o),
(613,135,o),
(613,358,cs),
(613,590,o),
(533,725,o),
(330,725,cs),
(143,725,o),
(44,592,o),
(44,359,cs),
(44,125,o),
(139,-10,o),
(329,-10,cs)
);
},
{
closed = 1;
nodes = (
(158,15,o),
(72,143,o),
(72,358,cs),
(72,573,o),
(158,700,o),
(330,700,cs),
(516,700,o),
(585,573,o),
(585,358,cs),
(585,145,o),
(510,15,o),
(329,15,cs)
);
}
);
width = 658;
},
{
anchors = (
{
name = top;
pos = (371,714);
}
);
layerId = m003;
shapes = (
{
closed = 1;
nodes = (
(582,-10,o),
(686,136,o),
(686,358,cs),
(686,584,o),
(583,725,o),
(372,725,cs),
(162,725,o),
(56,585,o),
(56,359,cs),
(56,132,o),
(160,-10,o),
(371,-10,cs)
);
},
{
closed = 1;
nodes = (
(227,37,o),
(163,156,o),
(163,358,cs),
(163,560,o),
(227,678,o),
(373,678,cs),
(524,678,o),
(579,560,o),
(579,358,cs),
(579,157,o),
(521,37,o),
(372,37,cs)
);
}
);
width = 742;
},
{
anchors = (
{
name = top;
pos = (407,714);
}
);
layerId = m005;
shapes = (
{
closed = 1;
nodes = (
(629,-10,o),
(761,138,o),
(761,358,cs),
(761,577,o),
(629,725,o),
(409,725,cs),
(168,725,o),
(54,577,o),
(54,359,cs),
(54,140,o),
(169,-10,o),
(408,-10,cs)
);
},
{
closed = 1;
nodes = (
(297,66,o),
(261,174,o),
(261,358,cs),
(261,542,o),
(297,649,o),
(409,649,cs),
(516,649,o),
(554,542,o),
(554,358,cs),
(554,173,o),
(518,66,o),
(408,66,cs)
);
}
);
width = 815;
},
{
anchors = (
{
name = top;
pos = (265,714);
}
);
layerId = m006;
shapes = (
{
closed = 1;
nodes = (
(404,-10,o),
(485,125,o),
(485,358,cs),
(485,610,o),
(414,725,o),
(265,725,cs),
(118,725,o),
(44,596,o),
(44,359,cs),
(44,137,o),
(116,-10,o),
(264,-10,cs)
);
},
{
closed = 1;
nodes = (
(137,15,o),
(72,153,o),
(72,358,cs),
(72,574,o),
(131,700,o),
(265,700,cs),
(406,700,o),
(457,574,o),
(457,358,cs),
(457,146,o),
(392,15,o),
(264,15,cs)
);
}
);
width = 530;
},
{
anchors = (
{
name = top;
pos = (285,714);
}
);
layerId = m007;
shapes = (
{
closed = 1;
nodes = (
(437,-10,o),
(525,128,o),
(525,358,cs),
(525,602,o),
(445,725,o),
(285,725,cs),
(124,725,o),
(44,592,o),
(44,359,cs),
(44,137,o),
(122,-10,o),
(284,-10,cs)
);
},
{
closed = 1;
nodes = (
(168,37,o),
(111,157,o),
(111,358,cs),
(111,567,o),
(163,678,o),
(286,678,cs),
(413,678,o),
(459,567,o),
(459,358,cs),
(459,152,o),
(403,37,o),
(285,37,cs)
);
}
);
width = 570;
},
{
anchors = (
{
name = top;
pos = (342,714);
}
);
layerId = m009;
shapes = (
{
closed = 1;
nodes = (
(533,-10,o),
(639,137,o),
(639,358,cs),
(639,580,o),
(533,725,o),
(344,725,cs),
(142,725,o),
(45,580,o),
(45,359,cs),
(45,137,o),
(142,-10,o),
(343,-10,cs)
);
},
{
closed = 1;
nodes = (
(254,58,o),
(221,169,o),
(221,358,cs),
(221,547,o),
(254,657,o),
(344,657,cs),
(432,657,o),
(464,547,o),
(464,358,cs),
(464,169,o),
(432,58,o),
(343,58,cs)
);
}
);
width = 684;
}
);
note = uni0555;
unicode = 1365;
}
{
glyphname = uni0556;
kernRight = uni0556;
layers = (
{
layerId = m001;
shapes = (
{
closed = 1;
nodes = (
(431,-10,o),
(519,72,o),
(519,189,cs),
(519,318,o),
(450,385,o),
(278,402,cs),
(126,417,o),
(86,471,o),
(86,564,cs),
(86,642,o),
(138,699,o),
(263,699,c),
(263,724,l),
(123,724,o),
(58,660,o),
(58,564,cs),
(58,457,o),
(117,392,o),
(267,377,cs),
(437,360,o),
(491,301,o),
(491,188,cs),
(491,83,o),
(418,15,o),
(273,15,cs),
(125,15,o),
(55,66,o),
(55,166,c),
(38,166,o),
(27,155,o),
(27,141,cs),
(27,57,o),
(102,-10,o),
(274,-10,cs)
);
},
{
closed = 1;
nodes = (
(263,5,l),
(291,5,l),
(291,724,l),
(263,724,l)
);
}
);
width = 552;
},
{
layerId = m003;
shapes = (
{
closed = 1;
nodes = (
(544,-10,o),
(624,76,o),
(624,189,cs),
(624,312,o),
(559,377,o),
(343,404,cs),
(185,424,o),
(156,467,o),
(156,553,cs),
(156,630,o),
(200,678,o),
(293,678,c),
(293,724,l),
(149,724,o),
(64,652,o),
(64,553,cs),
(64,439,o),
(116,385,o),
(303,362,cs),
(486,339,o),
(532,290,o),
(532,184,cs),
(532,91,o),
(479,35,o),
(320,35,cs),
(173,35,o),
(109,89,o),
(109,204,c),
(69,204,o),
(35,179,o),
(35,135,cs),
(35,61,o),
(116,-10,o),
(331,-10,cs)
);
},
{
closed = 1;
nodes = (
(293,5,l),
(386,5,l),
(386,724,l),
(293,724,l)
);
}
);
width = 672;
},
{
layerId = m005;
shapes = (
{
closed = 1;
nodes = (
(670,-10,o),
(740,82,o),
(740,189,cs),
(740,305,o),
(680,366,o),
(408,406,cs),
(242,430,o),
(226,462,o),
(226,538,cs),
(226,615,o),
(258,652,o),
(311,652,c),
(311,724,l),
(160,724,o),
(53,641,o),
(53,538,cs),
(53,416,o),
(95,378,o),
(330,344,cs),
(530,315,o),
(566,275,o),
(566,179,cs),
(566,101,o),
(539,60,o),
(361,60,cs),
(217,60,o),
(160,118,o),
(160,252,c),
(90,252,o),
(27,210,o),
(27,127,cs),
(27,67,o),
(115,-10,o),
(385,-10,cs)
);
},
{
closed = 1;
nodes = (
(311,5,l),
(487,5,l),
(487,724,l),
(311,724,l)
);
}
);
width = 778;
},
{
layerId = m006;
shapes = (
{
closed = 1;
nodes = (
(348,-10,o),
(415,72,o),
(415,189,cs),
(415,318,o),
(365,385,o),
(226,402,cs),
(109,416,o),
(80,471,o),
(80,564,cs),
(80,642,o),
(118,699,o),
(211,699,c),
(211,724,l),
(103,724,o),
(52,660,o),
(52,564,cs),
(52,457,o),
(94,392,o),
(215,377,cs),
(347,361,o),
(387,304,o),
(387,188,cs),
(387,83,o),
(333,15,o),
(221,15,cs),
(107,15,o),
(54,66,o),
(54,166,c),
(38,166,o),
(28,155,o),
(28,141,cs),
(28,57,o),
(86,-10,o),
(222,-10,cs)
);
},
{
closed = 1;
nodes = (
(211,5,l),
(239,5,l),
(239,724,l),
(211,724,l)
);
}
);
width = 451;
},
{
layerId = m007;
shapes = (
{
closed = 1;
nodes = (
(410,-10,o),
(478,74,o),
(478,189,cs),
(478,315,o),
(425,386,o),
(260,408,cs),
(136,425,o),
(110,467,o),
(110,558,cs),
(110,636,o),
(144,679,o),
(226,679,c),
(226,724,l),
(111,724,o),
(48,656,o),
(48,558,cs),
(48,448,o),
(92,384,o),
(234,365,cs),
(378,346,o),
(416,300,o),
(416,186,cs),
(416,86,o),
(368,35,o),
(246,35,cs),
(128,35,o),
(76,77,o),
(76,185,c),
(46,185,o),
(27,167,o),
(27,138,cs),
(27,59,o),
(90,-10,o),
(252,-10,cs)
);
},
{
closed = 1;
nodes = (
(226,5,l),
(285,5,l),
(285,724,l),
(226,724,l)
);
}
);
width = 511;
},
{
layerId = m009;
shapes = (
{
closed = 1;
nodes = (
(586,-10,o),
(658,80,o),
(658,189,cs),
(658,307,o),
(595,369,o),
(357,406,cs),
(214,428,o),
(196,455,o),
(196,542,cs),
(196,619,o),
(220,660,o),
(269,660,c),
(269,724,l),
(135,724,o),
(36,644,o),
(36,542,cs),
(36,423,o),
(85,380,o),
(290,349,cs),
(465,323,o),
(498,289,o),
(498,181,cs),
(498,95,o),
(468,54,o),
(317,54,cs),
(189,54,o),
(138,110,o),
(138,239,c),
(69,239,o),
(24,201,o),
(24,129,cs),
(24,65,o),
(101,-10,o),
(338,-10,cs)
);
},
{
closed = 1;
nodes = (
(269,5,l),
(418,5,l),
(418,724,l),
(269,724,l)
);
}
);
width = 682;
}
);
note = uni0556;
unicode = 1366;
}
{
glyphname = uni0559;
layers = (
{
layerId = m001;
shapes = (
{
closed = 1;
nodes = (
(122,577,l),
(77,577,o),
(61,603,o),
(61,632,cs),
(61,669,o),
(86,710,o),
(129,744,c),
(114,760,l),
(69,726,o),
(36,678,o),
(36,632,cs),
(36,582,o),
(64,549,o),
(122,549,c)
);
}
);
width = 166;
},
{
layerId = m003;
shapes = (
{
closed = 1;
nodes = (
(178,566,l),
(135,567,o),
(115,590,o),
(115,627,cs),
(115,665,o),
(138,699,o),
(185,724,c),
(167,760,l),
(93,728,o),
(48,668,o),
(48,599,cs),
(48,528,o),
(91,482,o),
(178,480,c)
);
}
);
width = 233;
},
{
layerId = m005;
shapes = (
{
closed = 1;
nodes = (
(224,551,l),
(184,555,o),
(157,574,o),
(157,621,cs),
(157,660,o),
(180,684,o),
(231,698,c),
(209,760,l),
(99,730,o),
(38,656,o),
(38,557,cs),
(38,458,o),
(99,396,o),
(224,393,c)
);
}
);
width = 269;
},
{
layerId = m006;
shapes = (
{
closed = 1;
nodes = (
(107,577,l),
(73,577,o),
(60,603,o),
(60,632,cs),
(60,669,o),
(79,710,o),
(112,744,c),
(101,760,l),
(63,726,o),
(37,678,o),
(37,632,cs),
(37,582,o),
(60,549,o),
(107,549,c)
);
}
);
width = 149;
},
{
layerId = m007;
shapes = (
{
closed = 1;
nodes = (
(130,571,l),
(95,572,o),
(79,597,o),
(79,630,cs),
(79,667,o),
(99,704,o),
(135,734,c),
(122,760,l),
(69,727,o),
(36,673,o),
(36,615,cs),
(36,555,o),
(67,516,o),
(130,515,c)
);
}
);
width = 172;
},
{
layerId = m009;
shapes = (
{
closed = 1;
nodes = (
(196,555,l),
(161,559,o),
(137,578,o),
(137,623,cs),
(137,662,o),
(158,688,o),
(202,705,c),
(183,760,l),
(88,730,o),
(35,660,o),
(35,568,cs),
(35,478,o),
(88,420,o),
(196,417,c)
);
}
);
width = 237;
}
);
note = uni0559;
unicode = 1369;
}
{
glyphname = uni055A;
layers = (
{
layerId = m001;
shapes = (
{
closed = 1;
nodes = (
(43,732,l),
(88,732,o),
(104,706,o),
(104,677,cs),
(104,640,o),
(79,599,o),
(36,565,c),
(51,549,l),
(96,583,o),
(129,631,o),
(129,677,cs),
(129,727,o),
(101,760,o),
(43,760,c)
);
}
);
width = 166;
},
{
layerId = m003;
shapes = (
{
closed = 1;
nodes = (
(55,675,l),
(98,673,o),
(118,650,o),
(118,615,cs),
(118,575,o),
(94,542,o),
(48,517,c),
(66,480,l),
(139,513,o),
(185,572,o),
(185,642,cs),
(185,713,o),
(142,759,o),
(55,760,c)
);
}
);
width = 233;
},
{
layerId = m005;
shapes = (
{
closed = 1;
nodes = (
(45,602,l),
(85,598,o),
(111,580,o),
(111,537,cs),
(111,493,o),
(89,469,o),
(38,455,c),
(59,393,l),
(170,423,o),
(231,497,o),
(231,597,cs),
(231,695,o),
(169,757,o),
(45,760,c)
);
}
);
width = 269;
},
{
layerId = m006;
shapes = (
{
closed = 1;
nodes = (
(42,732,l),
(77,732,o),
(89,706,o),
(89,677,cs),
(89,640,o),
(70,599,o),
(37,565,c),
(49,549,l),
(86,583,o),
(112,631,o),
(112,677,cs),
(112,727,o),
(90,760,o),
(42,760,c)
);
}
);
width = 149;
},
{
layerId = m007;
shapes = (
{
closed = 1;
nodes = (
(41,704,l),
(76,703,o),
(91,679,o),
(91,646,cs),
(91,608,o),
(72,571,o),
(36,541,c),
(50,515,l),
(102,548,o),
(135,602,o),
(135,660,cs),
(135,720,o),
(105,759,o),
(41,760,c)
);
}
);
width = 172;
},
{
layerId = m009;
shapes = (
{
closed = 1;
nodes = (
(41,622,l),
(76,619,o),
(100,600,o),
(100,559,cs),
(100,515,o),
(80,489,o),
(35,472,c),
(54,417,l),
(150,448,o),
(202,518,o),
(202,610,cs),
(202,700,o),
(149,757,o),
(41,760,c)
);
}
);
width = 237;
}
);
note = uni055A;
unicode = 1370;
}
{
glyphname = uni055B;
kernLeft = uni055B;
layers = (
{
layerId = m001;
shapes = (
{
closed = 1;
nodes = (
(71,603,l),
(102,679,o),
(126,745,o),
(143,806,c),
(139,814,l),
(113,814,l),
(108,789,o),
(95,735,o),
(80,693,cs),
(51,611,l),
(51,603,l)
);
}
);
width = 189;
},
{
layerId = m003;
shapes = (
{
closed = 1;
nodes = (
(128,603,l),
(158,673,o),
(181,742,o),
(199,803,c),
(192,814,l),
(119,814,l),
(116,788,o),
(105,742,o),
(94,700,cs),
(72,618,l),
(72,603,l)
);
}
);
width = 261;
},
{
layerId = m005;
shapes = (
{
closed = 1;
nodes = (
(144,603,l),
(172,666,o),
(195,737,o),
(213,798,c),
(203,814,l),
(71,814,l),
(68,786,o),
(62,742,o),
(54,698,cs),
(42,628,l),
(42,603,l)
);
}
);
width = 253;
},
{
layerId = m006;
shapes = (
{
closed = 1;
nodes = (
(74,603,l),
(98,679,o),
(116,745,o),
(129,806,c),
(126,814,l),
(102,814,l),
(98,789,o),
(88,735,o),
(77,693,cs),
(55,611,l),
(55,603,l)
);
}
);
width = 177;
},
{
layerId = m007;
shapes = (
{
closed = 1;
nodes = (
(88,603,l),
(112,676,o),
(131,743,o),
(144,804,c),
(140,814,l),
(93,814,l),
(89,788,o),
(80,737,o),
(70,695,cs),
(51,615,l),
(51,603,l)
);
}
);
width = 190;
},
{
layerId = m009;
shapes = (
{
closed = 1;
nodes = (
(128,603,l),
(152,668,o),
(173,739,o),
(189,800,c),
(180,814,l),
(67,814,l),
(64,786,o),
(57,743,o),
(51,700,cs),
(40,625,l),
(40,603,l)
);
}
);
width = 226;
}
);
note = uni055B;
unicode = 1371;
}
{
glyphname = uni055C;
kernLeft = uni055C;
layers = (
{
layerId = m001;
shapes = (
{
closed = 1;
nodes = (
(97,603,l),
(97,615,ls),
(97,654,o),
(112,671,o),
(149,694,cs),
(204,728,o),
(212,740,o),
(212,814,c),
(187,814,l),
(187,802,ls),
(187,748,o),
(177,738,o),
(135,712,cs),
(80,678,o),
(72,661,o),
(72,603,c)
);
}
);
width = 223;
},
{
layerId = m003;
shapes = (
{
closed = 1;
nodes = (
(162,603,l),
(162,615,ls),
(162,646,o),
(174,665,o),
(208,686,cs),
(266,721,o),
(275,740,o),
(275,814,c),
(208,814,l),
(208,796,ls),
(208,760,o),
(198,748,o),
(170,731,cs),
(110,694,o),
(95,674,o),
(95,603,c)
);
}
);
width = 289;
},
{
layerId = m005;
shapes = (
{
closed = 1;
nodes = (
(200,603,l),
(200,615,ls),
(200,635,o),
(208,657,o),
(238,675,cs),
(300,713,o),
(311,740,o),
(311,814,c),
(190,814,l),
(190,789,ls),
(190,777,o),
(181,761,o),
(170,755,cs),
(104,715,o),
(79,692,o),
(79,603,c)
);
}
);
width = 321;
},
{
layerId = m006;
shapes = (
{
closed = 1;
nodes = (
(96,603,l),
(96,615,ls),
(96,654,o),
(107,672,o),
(135,694,cs),
(178,728,o),
(184,740,o),
(184,814,c),
(161,814,l),
(161,802,ls),
(161,748,o),
(154,738,o),
(122,712,cs),
(79,678,o),
(73,661,o),
(73,603,c)
);
}
);
width = 195;
},
{
layerId = m007;
shapes = (
{
closed = 1;
nodes = (
(116,603,l),
(116,615,ls),
(116,650,o),
(126,669,o),
(154,690,cs),
(200,725,o),
(207,740,o),
(207,814,c),
(163,814,l),
(163,799,ls),
(163,756,o),
(156,742,o),
(129,722,cs),
(82,686,o),
(72,668,o),
(72,603,c)
);
}
);
width = 218;
},
{
layerId = m009;
shapes = (
{
closed = 1;
nodes = (
(175,603,l),
(175,615,ls),
(175,638,o),
(183,659,o),
(209,678,cs),
(263,717,o),
(273,740,o),
(273,814,c),
(169,814,l),
(169,791,ls),
(169,773,o),
(160,757,o),
(150,749,cs),
(93,707,o),
(71,687,o),
(71,603,c)
);
}
);
width = 283;
}
);
note = uni055C;
unicode = 1372;
}
{
glyphname = uni055D;
layers = (
{
layerId = m001;
shapes = (
{
closed = 1;
nodes = (
(137,611,l),
(108,693,ls),
(93,735,o),
(80,789,o),
(75,814,c),
(49,814,l),
(45,806,l),
(62,745,o),
(86,679,o),
(117,603,c),
(137,603,l)
);
}
);
width = 189;
},
{
layerId = m003;
shapes = (
{
closed = 1;
nodes = (
(189,618,l),
(167,700,ls),
(156,742,o),
(145,788,o),
(141,814,c),
(69,814,l),
(62,803,l),
(80,742,o),
(103,673,o),
(133,603,c),
(189,603,l)
);
}
);
width = 261;
},
{
layerId = m005;
shapes = (
{
closed = 1;
nodes = (
(210,628,l),
(198,698,ls),
(190,742,o),
(184,786,o),
(181,814,c),
(49,814,l),
(39,798,l),
(57,737,o),
(80,666,o),
(108,603,c),
(210,603,l)
);
}
);
width = 253;
},
{
layerId = m006;
shapes = (
{
closed = 1;
nodes = (
(121,611,l),
(100,693,ls),
(89,735,o),
(79,789,o),
(75,814,c),
(51,814,l),
(48,806,l),
(61,745,o),
(80,679,o),
(103,603,c),
(122,603,l)
);
}
);
width = 177;
},
{
layerId = m007;
shapes = (
{
closed = 1;
nodes = (
(137,614,l),
(119,695,ls),
(110,737,o),
(100,788,o),
(97,814,c),
(50,814,l),
(45,804,l),
(59,743,o),
(78,676,o),
(102,603,c),
(138,603,l)
);
}
);
width = 190;
},
{
layerId = m009;
shapes = (
{
closed = 1;
nodes = (
(185,624,l),
(174,700,ls),
(168,743,o),
(162,786,o),
(160,814,c),
(46,814,l),
(37,800,l),
(53,739,o),
(73,668,o),
(98,603,c),
(186,603,l)
);
}
);
width = 226;
}
);
note = uni055D;
unicode = 1373;
}
{
glyphname = uni055E;
kernLeft = uni055E;
layers = (
{
layerId = m001;
shapes = (
{
closed = 1;
nodes = (
(91,681,l),
(91,764,o),
(135,799,o),
(202,799,cs),
(238,799,o),
(259,784,o),
(259,752,cs),
(259,723,o),
(246,713,o),
(210,713,cs),
(197,713,o),
(188,715,o),
(179,718,c),
(179,696,o),
(190,688,o),
(217,688,cs),
(260,688,o),
(287,710,o),
(287,752,cs),
(287,796,o),
(259,824,o),
(202,824,cs),
(119,824,o),
(66,774,o),
(66,681,c)
);
}
);
width = 310;
},
{
layerId = m003;
shapes = (
{
closed = 1;
nodes = (
(164,616,l),
(164,706,o),
(193,776,o),
(262,776,cs),
(294,776,o),
(314,759,o),
(314,730,cs),
(314,700,o),
(297,685,o),
(263,685,cs),
(246,685,o),
(234,689,o),
(223,694,c),
(223,656,o),
(251,634,o),
(297,634,cs),
(358,634,o),
(395,669,o),
(395,726,cs),
(395,786,o),
(345,827,o),
(268,827,cs),
(158,827,o),
(84,745,o),
(84,616,c)
);
}
);
width = 425;
},
{
layerId = m005;
shapes = (
{
closed = 1;
nodes = (
(231,533,l),
(231,631,o),
(241,747,o),
(313,747,cs),
(340,747,o),
(357,728,o),
(357,702,cs),
(357,671,o),
(336,650,o),
(305,650,cs),
(284,650,o),
(266,656,o),
(254,663,c),
(254,605,o),
(303,565,o),
(372,565,cs),
(458,565,o),
(508,617,o),
(508,692,cs),
(508,774,o),
(429,830,o),
(327,830,cs),
(183,830,o),
(81,708,o),
(81,533,c)
);
}
);
width = 537;
},
{
layerId = m006;
shapes = (
{
closed = 1;
nodes = (
(89,681,l),
(89,764,o),
(122,799,o),
(173,799,cs),
(201,799,o),
(216,784,o),
(216,752,cs),
(216,723,o),
(206,713,o),
(179,713,cs),
(168,713,o),
(161,715,o),
(154,718,c),
(154,696,o),
(164,688,o),
(187,688,cs),
(221,688,o),
(244,710,o),
(244,752,cs),
(244,796,o),
(220,824,o),
(174,824,cs),
(108,824,o),
(64,774,o),
(64,681,c)
);
}
);
width = 266;
},
{
layerId = m007;
shapes = (
{
closed = 1;
nodes = (
(118,649,l),
(118,744,o),
(147,788,o),
(199,788,cs),
(226,788,o),
(241,772,o),
(241,741,cs),
(241,712,o),
(229,699,o),
(202,699,cs),
(189,699,o),
(180,702,o),
(172,706,c),
(172,676,o),
(190,661,o),
(223,661,cs),
(267,661,o),
(296,690,o),
(296,739,cs),
(296,791,o),
(263,825,o),
(203,825,cs),
(122,825,o),
(66,759,o),
(66,649,c)
);
}
);
width = 319;
},
{
layerId = m009;
shapes = (
{
closed = 1;
nodes = (
(201,556,l),
(201,688,o),
(219,755,o),
(273,755,cs),
(298,755,o),
(313,737,o),
(313,710,cs),
(313,679,o),
(295,659,o),
(266,659,cs),
(248,659,o),
(233,665,o),
(222,672,c),
(222,619,o),
(265,585,o),
(324,585,cs),
(398,585,o),
(443,632,o),
(443,701,cs),
(443,778,o),
(384,829,o),
(286,829,cs),
(160,829,o),
(71,718,o),
(71,556,c)
);
}
);
width = 469;
}
);
note = uni055E;
unicode = 1374;
}
{
glyphname = uni055F;
layers = (
{
layerId = m001;
shapes = (
{
closed = 1;
nodes = (
(320,612,l),
(320,637,l),
(156,637,ls),
(93,637,o),
(74,660,o),
(74,693,cs),
(74,731,o),
(99,752,o),
(134,752,cs),
(148,752,o),
(162,748,o),
(172,743,c),
(172,764,o),
(159,777,o),
(131,777,cs),
(85,777,o),
(46,745,o),
(46,693,cs),
(46,643,o),
(81,612,o),
(151,612,cs)
);
}
);
width = 356;
},
{
layerId = m003;
shapes = (
{
closed = 1;
nodes = (
(376,607,l),
(376,660,l),
(224,660,ls),
(159,660,o),
(137,679,o),
(137,714,cs),
(137,748,o),
(159,766,o),
(195,766,cs),
(213,766,o),
(232,761,o),
(244,756,c),
(244,792,o),
(217,821,o),
(169,821,cs),
(105,821,o),
(62,780,o),
(62,714,cs),
(62,646,o),
(111,607,o),
(211,607,cs)
);
}
);
width = 423;
},
{
layerId = m005;
shapes = (
{
closed = 1;
nodes = (
(415,601,l),
(415,689,l),
(276,689,ls),
(210,689,o),
(184,703,o),
(184,742,cs),
(184,769,o),
(203,784,o),
(239,784,cs),
(262,784,o),
(288,779,o),
(303,772,c),
(303,828,o),
(256,877,o),
(185,877,cs),
(98,877,o),
(49,825,o),
(49,742,cs),
(49,651,o),
(116,601,o),
(254,601,cs)
);
}
);
width = 451;
},
{
layerId = m006;
shapes = (
{
closed = 1;
nodes = (
(262,612,l),
(262,637,l),
(137,637,ls),
(89,637,o),
(74,660,o),
(74,693,cs),
(74,731,o),
(93,752,o),
(120,752,cs),
(131,752,o),
(142,748,o),
(150,743,c),
(150,764,o),
(139,777,o),
(115,777,cs),
(78,777,o),
(47,745,o),
(47,693,cs),
(47,643,o),
(76,612,o),
(133,612,cs)
);
}
);
width = 298;
},
{
layerId = m007;
shapes = (
{
closed = 1;
nodes = (
(288,610,l),
(288,648,l),
(164,648,ls),
(113,648,o),
(96,670,o),
(96,704,cs),
(96,739,o),
(115,759,o),
(143,759,cs),
(156,759,o),
(170,755,o),
(180,749,c),
(180,778,o),
(161,799,o),
(127,799,cs),
(80,799,o),
(46,762,o),
(46,704,cs),
(46,645,o),
(83,610,o),
(156,610,cs)
);
}
);
width = 324;
},
{
layerId = m009;
shapes = (
{
closed = 1;
nodes = (
(365,603,l),
(365,681,l),
(241,681,ls),
(183,681,o),
(160,697,o),
(160,735,cs),
(160,763,o),
(177,779,o),
(209,779,cs),
(229,779,o),
(252,774,o),
(265,768,c),
(265,818,o),
(224,861,o),
(163,861,cs),
(87,861,o),
(44,812,o),
(44,735,cs),
(44,649,o),
(102,603,o),
(222,603,cs)
);
}
);
width = 398;
}
);
note = uni055F;
unicode = 1375;
}
{
glyphname = uni0560;
kernLeft = uni057D;
kernRight = uni0561;
layers = (
{
anchors = (
{
name = top;
pos = (413,492);
}
);
layerId = m001;
shapes = (
{
closed = 1;
nodes = (
(189,20,l),
(127,20,o),
(124,24,o),
(124,94,cs),
(124,290,ls),
(124,387,o),
(173,473,o),
(273,473,cs),
(367,473,o),
(401,418,o),
(401,321,cs),
(401,0,l),
(494,0,l),
(494,20,l),
(433,20,o),
(429,24,o),
(429,94,cs),
(429,305,ls),
(429,399,o),
(474,474,o),
(580,474,cs),
(670,474,o),
(706,419,o),
(706,321,cs),
(706,0,l),
(799,0,l),
(799,20,l),
(738,20,o),
(734,24,o),
(734,94,cs),
(734,317,ls),
(734,434,o),
(687,498,o),
(580,498,cs),
(491,498,o),
(443,451,o),
(422,397,c),
(419,397,l),
(404,451,o),
(370,498,o),
(279,498,cs),
(209,498,o),
(153,466,o),
(128,399,c),
(123,399,l),
(120,492,l),
(31,492,l),
(31,472,l),
(92,472,o),
(96,467,o),
(96,398,cs),
(96,0,l),
(189,0,l)
);
}
);
userData = {
com.schriftgestaltung.Glyphs.category = Letter;
};
width = 824;
},
{
anchors = (
{
name = top;
pos = (435,492);
}
);
layerId = m003;
shapes = (
{
closed = 1;
nodes = (
(239,39,l),
(189,39,o),
(186,47,o),
(186,99,cs),
(186,276,ls),
(186,365,o),
(219,443,o),
(297,443,cs),
(366,443,o),
(391,392,o),
(391,301,cs),
(391,0,l),
(543,0,l),
(543,39,l),
(493,39,o),
(489,45,o),
(489,99,cs),
(489,289,ls),
(489,374,o),
(522,444,o),
(602,444,cs),
(673,444,o),
(695,392,o),
(695,301,cs),
(695,0,l),
(846,0,l),
(846,39,l),
(797,39,o),
(792,43,o),
(792,95,cs),
(792,314,ls),
(792,441,o),
(744,502,o),
(640,502,cs),
(571,502,o),
(515,476,o),
(483,410,c),
(477,410,l),
(457,467,o),
(413,502,o),
(333,502,cs),
(268,502,o),
(221,483,o),
(188,411,c),
(183,411,l),
(174,492,l),
(34,492,l),
(34,455,l),
(83,455,o),
(88,448,o),
(88,399,cs),
(88,0,l),
(239,0,l)
);
}
);
userData = {
com.schriftgestaltung.Glyphs.category = Letter;
};
width = 872;
},
{
anchors = (
{
name = top;
pos = (461,492);
}
);
layerId = m005;
shapes = (
{
closed = 1;
nodes = (
(293,62,l),
(256,62,o),
(253,76,o),
(253,105,cs),
(253,258,ls),
(253,336,o),
(266,405,o),
(317,405,cs),
(354,405,o),
(368,358,o),
(368,275,cs),
(368,0,l),
(594,0,l),
(594,62,l),
(560,62,o),
(554,73,o),
(554,105,cs),
(554,269,ls),
(554,342,o),
(573,405,o),
(619,405,cs),
(665,405,o),
(669,358,o),
(669,275,cs),
(669,0,l),
(895,0,l),
(895,62,l),
(861,62,o),
(856,67,o),
(856,97,cs),
(856,311,ls),
(856,451,o),
(805,507,o),
(707,507,cs),
(661,507,o),
(595,498,o),
(550,428,c),
(539,428,l),
(513,488,o),
(467,507,o),
(403,507,cs),
(342,507,o),
(298,494,o),
(253,427,c),
(248,427,l),
(233,492,l),
(27,492,l),
(27,434,l),
(62,434,o),
(67,424,o),
(67,401,cs),
(67,0,l),
(293,0,l)
);
}
);
userData = {
com.schriftgestaltung.Glyphs.category = Letter;
};
width = 918;
},
{
anchors = (
{
name = top;
pos = (331,492);
}
);
layerId = m006;
shapes = (
{
closed = 1;
nodes = (
(165,20,l),
(116,20,o),
(113,26,o),
(113,98,cs),
(113,293,ls),
(113,390,o),
(146,477,o),
(229,477,cs),
(291,477,o),
(317,432,o),
(317,324,cs),
(317,0,l),
(397,0,l),
(397,20,l),
(348,20,o),
(345,26,o),
(345,96,cs),
(345,308,ls),
(345,400,o),
(372,477,o),
(458,477,cs),
(524,477,o),
(549,422,o),
(549,324,cs),
(549,0,l),
(629,0,l),
(629,20,l),
(579,20,o),
(577,23,o),
(577,91,cs),
(577,324,ls),
(577,444,o),
(537,502,o),
(460,502,cs),
(405,502,o),
(360,472,o),
(339,406,c),
(337,406,l),
(324,469,o),
(290,502,o),
(231,502,cs),
(174,502,o),
(136,473,o),
(114,411,c),
(112,411,l),
(109,492,l),
(33,492,l),
(33,472,l),
(80,472,o),
(85,465,o),
(85,392,cs),
(85,0,l),
(165,0,l)
);
}
);
userData = {
com.schriftgestaltung.Glyphs.category = Letter;
};
width = 655;
},
{
anchors = (
{
name = top;
pos = (355,492);
}
);
layerId = m007;
shapes = (
{
closed = 1;
nodes = (
(196,29,l),
(150,29,o),
(145,36,o),
(145,104,cs),
(145,285,ls),
(145,383,o),
(173,452,o),
(245,452,cs),
(301,452,o),
(323,415,o),
(323,313,cs),
(323,0,l),
(437,0,l),
(437,29,l),
(391,29,o),
(386,36,o),
(386,104,cs),
(386,299,ls),
(386,392,o),
(411,452,o),
(485,452,cs),
(543,452,o),
(565,407,o),
(565,313,cs),
(565,0,l),
(679,0,l),
(679,35,l),
(632,35,o),
(628,40,o),
(628,106,cs),
(628,321,ls),
(628,445,o),
(585,502,o),
(504,502,cs),
(445,502,o),
(400,474,o),
(380,413,c),
(378,413,l),
(363,473,o),
(328,502,o),
(268,502,cs),
(205,502,o),
(167,472,o),
(146,417,c),
(143,417,l),
(138,492,l),
(31,492,l),
(31,458,l),
(77,458,o),
(82,449,o),
(82,382,cs),
(82,0,l),
(196,0,l)
);
}
);
userData = {
com.schriftgestaltung.Glyphs.category = Letter;
};
width = 704;
},
{
anchors = (
{
name = top;
pos = (423,492);
}
);
layerId = m009;
shapes = (
{
closed = 1;
nodes = (
(282,56,l),
(245,56,o),
(234,65,o),
(234,121,cs),
(234,262,ls),
(234,363,o),
(250,415,o),
(291,415,cs),
(329,415,o),
(340,366,o),
(340,281,cs),
(340,0,l),
(550,0,l),
(550,56,l),
(513,56,o),
(502,65,o),
(502,126,cs),
(502,274,ls),
(502,370,o),
(520,415,o),
(560,415,cs),
(598,415,o),
(611,366,o),
(611,281,cs),
(611,0,l),
(821,0,l),
(821,56,l),
(781,56,o),
(773,65,o),
(773,126,cs),
(773,313,ls),
(773,448,o),
(721,502,o),
(629,502,cs),
(557,502,o),
(515,478,o),
(497,432,c),
(493,432,l),
(474,486,o),
(435,502,o),
(372,502,cs),
(291,502,o),
(256,468,o),
(235,433,c),
(230,433,l),
(219,492,l),
(24,492,l),
(24,436,l),
(67,436,o),
(72,424,o),
(72,371,cs),
(72,0,l),
(282,0,l)
);
}
);
userData = {
com.schriftgestaltung.Glyphs.category = Letter;
};
width = 843;
}
);
note = uni0561;
unicode = 1376;
}
{
glyphname = uni0561;
kernLeft = uni057D;
kernRight = uni0561;
layers = (
{
anchors = (
{
name = top;
pos = (409,492);
}
);
layerId = m001;
shapes = (
{
closed = 1;
nodes = (
(635,472,l),
(697,472,o),
(700,468,o),
(700,398,cs),
(700,202,ls),
(700,105,o),
(651,19,o),
(551,19,cs),
(457,19,o),
(423,74,o),
(423,171,cs),
(423,492,l),
(330,492,l),
(330,472,l),
(391,472,o),
(395,468,o),
(395,398,cs),
(395,187,ls),
(395,93,o),
(350,18,o),
(244,18,cs),
(154,18,o),
(118,73,o),
(118,171,cs),
(118,492,l),
(25,492,l),
(25,472,l),
(86,472,o),
(90,468,o),
(90,398,cs),
(90,175,ls),
(90,58,o),
(137,-6,o),
(244,-6,cs),
(333,-6,o),
(381,41,o),
(402,95,c),
(405,95,l),
(420,41,o),
(454,-6,o),
(545,-6,cs),
(615,-6,o),
(671,26,o),
(696,93,c),
(701,93,l),
(704,0,l),
(793,0,l),
(793,20,l),
(732,20,o),
(728,25,o),
(728,94,cs),
(728,492,l),
(635,492,l)
);
}
);
width = 824;
},
{
anchors = (
{
name = top;
pos = (432,492);
}
);
layerId = m003;
shapes = (
{
closed = 1;
nodes = (
(633,453,l),
(683,453,o),
(686,445,o),
(686,393,cs),
(686,216,ls),
(686,127,o),
(653,49,o),
(575,49,cs),
(506,49,o),
(481,100,o),
(481,191,cs),
(481,492,l),
(329,492,l),
(329,453,l),
(379,453,o),
(383,447,o),
(383,393,cs),
(383,203,ls),
(383,118,o),
(350,48,o),
(270,48,cs),
(199,48,o),
(177,100,o),
(177,191,cs),
(177,492,l),
(26,492,l),
(26,453,l),
(75,453,o),
(80,449,o),
(80,397,cs),
(80,178,ls),
(80,51,o),
(128,-10,o),
(232,-10,cs),
(301,-10,o),
(357,16,o),
(389,82,c),
(395,82,l),
(415,25,o),
(459,-10,o),
(539,-10,cs),
(604,-10,o),
(651,9,o),
(684,81,c),
(689,81,l),
(698,0,l),
(838,0,l),
(838,37,l),
(789,37,o),
(784,44,o),
(784,93,cs),
(784,492,l),
(633,492,l)
);
}
);
width = 872;
},
{
anchors = (
{
name = top;
pos = (457,492);
}
);
layerId = m005;
shapes = (
{
closed = 1;
nodes = (
(625,430,l),
(662,430,o),
(665,416,o),
(665,387,cs),
(665,234,ls),
(665,156,o),
(652,87,o),
(601,87,cs),
(564,87,o),
(550,134,o),
(550,217,cs),
(550,492,l),
(324,492,l),
(324,430,l),
(358,430,o),
(364,419,o),
(364,387,cs),
(364,223,ls),
(364,150,o),
(345,87,o),
(299,87,cs),
(253,87,o),
(249,134,o),
(249,217,cs),
(249,492,l),
(23,492,l),
(23,430,l),
(57,430,o),
(62,425,o),
(62,395,cs),
(62,181,ls),
(62,41,o),
(113,-15,o),
(211,-15,cs),
(257,-15,o),
(323,-6,o),
(368,64,c),
(379,64,l),
(405,4,o),
(451,-15,o),
(515,-15,cs),
(576,-15,o),
(620,-2,o),
(665,65,c),
(670,65,l),
(685,0,l),
(891,0,l),
(891,58,l),
(856,58,o),
(851,68,o),
(851,91,cs),
(851,492,l),
(625,492,l)
);
}
);
width = 918;
},
{
anchors = (
{
name = top;
pos = (324,492);
}
);
layerId = m006;
shapes = (
{
closed = 1;
nodes = (
(490,472,l),
(539,472,o),
(542,466,o),
(542,394,cs),
(542,199,ls),
(542,102,o),
(509,15,o),
(426,15,cs),
(364,15,o),
(338,60,o),
(338,168,cs),
(338,492,l),
(258,492,l),
(258,472,l),
(307,472,o),
(310,466,o),
(310,396,cs),
(310,184,ls),
(310,92,o),
(283,15,o),
(197,15,cs),
(131,15,o),
(106,70,o),
(106,168,cs),
(106,492,l),
(26,492,l),
(26,472,l),
(76,472,o),
(78,469,o),
(78,401,cs),
(78,168,ls),
(78,48,o),
(118,-10,o),
(195,-10,cs),
(250,-10,o),
(295,20,o),
(316,86,c),
(318,86,l),
(331,23,o),
(365,-10,o),
(424,-10,cs),
(481,-10,o),
(519,19,o),
(541,81,c),
(543,81,l),
(546,0,l),
(622,0,l),
(622,20,l),
(575,20,o),
(570,27,o),
(570,100,cs),
(570,492,l),
(490,492,l)
);
}
);
width = 655;
},
{
anchors = (
{
name = top;
pos = (350,492);
}
);
layerId = m007;
shapes = (
{
closed = 1;
nodes = (
(508,463,l),
(554,463,o),
(559,456,o),
(559,388,cs),
(559,207,ls),
(559,109,o),
(531,40,o),
(459,40,cs),
(403,40,o),
(381,77,o),
(381,179,cs),
(381,492,l),
(267,492,l),
(267,463,l),
(313,463,o),
(318,456,o),
(318,388,cs),
(318,193,ls),
(318,100,o),
(293,40,o),
(219,40,cs),
(161,40,o),
(139,85,o),
(139,179,cs),
(139,492,l),
(25,492,l),
(25,457,l),
(72,457,o),
(76,452,o),
(76,386,cs),
(76,171,ls),
(76,47,o),
(119,-10,o),
(200,-10,cs),
(259,-10,o),
(304,18,o),
(324,79,c),
(326,79,l),
(341,19,o),
(376,-10,o),
(436,-10,cs),
(499,-10,o),
(537,20,o),
(558,75,c),
(561,75,l),
(566,0,l),
(673,0,l),
(673,34,l),
(627,34,o),
(622,43,o),
(622,110,cs),
(622,492,l),
(508,492,l)
);
}
);
width = 704;
},
{
anchors = (
{
name = top;
pos = (422,492);
}
);
layerId = m009;
shapes = (
{
closed = 1;
nodes = (
(561,436,l),
(598,436,o),
(609,427,o),
(609,371,cs),
(609,230,ls),
(609,129,o),
(593,77,o),
(552,77,cs),
(514,77,o),
(503,126,o),
(503,211,cs),
(503,492,l),
(293,492,l),
(293,436,l),
(330,436,o),
(341,427,o),
(341,366,cs),
(341,218,ls),
(341,122,o),
(323,77,o),
(283,77,cs),
(245,77,o),
(232,126,o),
(232,211,cs),
(232,492,l),
(22,492,l),
(22,436,l),
(62,436,o),
(70,427,o),
(70,366,cs),
(70,179,ls),
(70,44,o),
(122,-10,o),
(214,-10,cs),
(286,-10,o),
(328,14,o),
(346,60,c),
(350,60,l),
(369,6,o),
(408,-10,o),
(471,-10,cs),
(552,-10,o),
(587,24,o),
(608,59,c),
(613,59,l),
(624,0,l),
(819,0,l),
(819,56,l),
(776,56,o),
(771,68,o),
(771,121,cs),
(771,492,l),
(561,492,l)
);
}
);
width = 843;
}
);
note = uni0561;
unicode = 1377;
}
{
glyphname = uni0562;
kernLeft = uni0568;
layers = (
{
layerId = m001;
shapes = (
{
closed = 1;
nodes = (
(128,290,ls),
(128,379,o),
(159,477,o),
(260,477,cs),
(347,477,o),
(377,429,o),
(377,325,cs),
(377,218,l),
(470,218,l),
(470,238,l),
(409,238,o),
(405,242,o),
(405,312,cs),
(405,325,ls),
(405,442,o),
(362,502,o),
(263,502,cs),
(197,502,o),
(157,471,o),
(131,410,c),
(127,410,l),
(124,492,l),
(30,492,l),
(30,472,l),
(96,472,o),
(100,467,o),
(100,398,cs),
(100,-265,l),
(193,-265,l),
(193,-245,l),
(132,-245,o),
(128,-241,o),
(128,-171,cs)
);
},
{
closed = 1;
nodes = (
(404,0,l),
(404,25,l),
(110,25,l),
(110,0,l)
);
}
);
width = 495;
},
{
layerId = m003;
shapes = (
{
closed = 1;
nodes = (
(186,276,ls),
(186,361,o),
(207,443,o),
(288,443,cs),
(357,443,o),
(380,395,o),
(380,301,cs),
(380,214,l),
(532,214,l),
(532,253,l),
(482,253,o),
(478,259,o),
(478,306,cs),
(478,323,ls),
(478,443,o),
(426,502,o),
(327,502,cs),
(263,502,o),
(221,483,o),
(187,416,c),
(183,416,l),
(174,492,l),
(32,492,l),
(32,453,l),
(79,453,o),
(88,446,o),
(88,394,cs),
(88,-265,l),
(239,-265,l),
(239,-226,l),
(190,-226,o),
(186,-220,o),
(186,-167,cs)
);
},
{
closed = 1;
nodes = (
(495,0,l),
(495,45,l),
(175,45,l),
(175,0,l)
);
}
);
width = 557;
},
{
layerId = m005;
shapes = (
{
closed = 1;
nodes = (
(253,258,ls),
(253,338,o),
(263,400,o),
(319,400,cs),
(365,400,o),
(379,351,o),
(379,270,cs),
(379,209,l),
(604,209,l),
(604,271,l),
(569,271,o),
(565,282,o),
(565,298,cs),
(565,321,ls),
(565,445,o),
(503,502,o),
(404,502,cs),
(342,502,o),
(289,484,o),
(254,424,c),
(249,424,l),
(233,492,l),
(29,492,l),
(29,430,l),
(52,430,o),
(67,420,o),
(67,389,cs),
(67,-265,l),
(293,-265,l),
(293,-203,l),
(259,-203,o),
(253,-192,o),
(253,-161,cs)
);
},
{
closed = 1;
nodes = (
(603,0,l),
(603,70,l),
(250,70,l),
(250,0,l)
);
}
);
width = 627;
},
{
layerId = m006;
shapes = (
{
closed = 1;
nodes = (
(113,289,ls),
(113,423,o),
(168,475,o),
(236,475,cs),
(308,475,o),
(335,415,o),
(335,322,cs),
(335,218,l),
(415,218,l),
(415,238,l),
(372,238,o),
(363,244,o),
(363,291,cs),
(363,321,ls),
(363,444,o),
(325,500,o),
(234,500,cs),
(171,500,o),
(139,464,o),
(114,415,c),
(112,415,l),
(109,492,l),
(33,492,l),
(33,472,l),
(80,472,o),
(85,467,o),
(85,397,cs),
(85,-232,l),
(165,-232,l),
(165,-212,l),
(121,-212,o),
(113,-209,o),
(113,-136,cs)
);
},
{
closed = 1;
nodes = (
(366,0,l),
(366,25,l),
(92,25,l),
(92,0,l)
);
}
);
width = 441;
},
{
layerId = m007;
shapes = (
{
closed = 1;
nodes = (
(145,281,ls),
(145,401,o),
(189,450,o),
(250,450,cs),
(313,450,o),
(335,401,o),
(335,310,cs),
(335,216,l),
(446,216,l),
(446,251,l),
(406,251,o),
(398,258,o),
(398,302,cs),
(398,324,ls),
(398,444,o),
(358,501,o),
(268,501,cs),
(202,501,o),
(170,465,o),
(146,416,c),
(143,416,l),
(138,492,l),
(30,492,l),
(30,457,l),
(76,457,o),
(82,450,o),
(82,385,cs),
(82,-234,l),
(197,-234,l),
(197,-199,l),
(153,-199,o),
(145,-194,o),
(145,-126,cs)
);
},
{
closed = 1;
nodes = (
(407,0,l),
(407,43,l),
(124,43,l),
(124,0,l)
);
}
);
width = 471;
},
{
layerId = m009;
shapes = (
{
closed = 1;
nodes = (
(235,258,ls),
(235,338,o),
(248,412,o),
(290,412,cs),
(326,412,o),
(335,362,o),
(335,277,cs),
(335,210,l),
(535,210,l),
(535,266,l),
(503,266,o),
(497,274,o),
(497,309,cs),
(497,332,ls),
(497,444,o),
(451,502,o),
(362,502,cs),
(289,502,o),
(257,467,o),
(236,419,c),
(232,419,l),
(221,492,l),
(20,492,l),
(20,436,l),
(62,436,o),
(72,426,o),
(72,372,cs),
(72,-240,l),
(286,-240,l),
(286,-184,l),
(244,-184,o),
(235,-174,o),
(235,-119,cs)
);
},
{
closed = 1;
nodes = (
(527,0,l),
(527,64,l),
(217,64,l),
(217,0,l)
);
}
);
width = 557;
}
);
note = uni0562;
unicode = 1378;
}
{
glyphname = uni0563;
kernLeft = uni0563;
kernRight = uni0564;
layers = (
{
layerId = m001;
shapes = (
{
closed = 1;
nodes = (
(377,393,l),
(374,393,l),
(351,461,o),
(307,502,o),
(230,502,cs),
(107,502,o),
(44,418,o),
(44,243,cs),
(44,66,o),
(108,-10,o),
(219,-10,cs),
(307,-10,o),
(352,35,o),
(376,101,c),
(378,101,l),
(376,83,o),
(376,35,o),
(376,-31,cs),
(376,-265,l),
(469,-265,l),
(469,-245,l),
(409,-245,o),
(404,-241,o),
(404,-167,cs),
(404,492,l),
(380,492,l)
);
},
{
closed = 1;
nodes = (
(120,15,o),
(72,85,o),
(72,242,cs),
(72,398,o),
(122,477,o),
(233,477,cs),
(331,477,o),
(376,382,o),
(376,243,cs),
(376,58,o),
(299,15,o),
(222,15,cs)
);
},
{
closed = 1;
nodes = (
(524,0,l),
(524,28,l),
(394,28,l),
(394,0,l)
);
}
);
width = 530;
},
{
layerId = m003;
shapes = (
{
closed = 1;
nodes = (
(399,409,l),
(393,409,l),
(366,471,o),
(323,502,o),
(255,502,cs),
(128,502,o),
(61,414,o),
(61,246,cs),
(61,74,o),
(129,-9,o),
(249,-9,cs),
(319,-9,o),
(360,24,o),
(390,85,c),
(396,85,l),
(391,40,o),
(390,1,o),
(390,-44,cs),
(390,-265,l),
(540,-265,l),
(540,-228,l),
(493,-228,o),
(488,-222,o),
(488,-165,cs),
(488,492,l),
(411,492,l)
);
},
{
closed = 1;
nodes = (
(188,43,o),
(159,123,o),
(159,245,cs),
(159,366,o),
(189,449,o),
(277,449,cs),
(356,449,o),
(393,379,o),
(393,245,cs),
(393,93,o),
(341,43,o),
(273,43,cs)
);
},
{
closed = 1;
nodes = (
(607,0,l),
(607,46,l),
(460,46,l),
(460,0,l)
);
}
);
width = 612;
},
{
layerId = m005;
shapes = (
{
closed = 1;
nodes = (
(399,429,l),
(390,429,l),
(358,483,o),
(315,502,o),
(259,502,cs),
(127,502,o),
(55,409,o),
(55,249,cs),
(55,85,o),
(128,-9,o),
(259,-9,cs),
(307,-9,o),
(343,11,o),
(379,64,c),
(390,64,l),
(383,-15,o),
(381,-43,o),
(381,-62,cs),
(381,-265,l),
(604,-265,l),
(604,-207,l),
(573,-207,o),
(567,-199,o),
(567,-162,cs),
(567,492,l),
(423,492,l)
);
},
{
closed = 1;
nodes = (
(250,78,o),
(244,172,o),
(244,248,cs),
(244,325,o),
(248,414,o),
(308,414,cs),
(361,414,o),
(390,374,o),
(390,247,cs),
(390,138,o),
(369,78,o),
(311,78,cs)
);
},
{
closed = 1;
nodes = (
(686,0,l),
(686,70,l),
(518,70,l),
(518,0,l)
);
}
);
width = 692;
},
{
layerId = m006;
shapes = (
{
closed = 1;
nodes = (
(304,404,l),
(302,404,l),
(284,472,o),
(250,502,o),
(192,502,cs),
(97,502,o),
(48,418,o),
(48,243,cs),
(48,66,o),
(98,-10,o),
(184,-10,cs),
(250,-10,o),
(284,24,o),
(303,90,c),
(305,90,l),
(303,72,o),
(303,29,o),
(303,-31,cs),
(303,-232,l),
(387,-232,l),
(387,-212,l),
(335,-212,o),
(331,-208,o),
(331,-134,cs),
(331,492,l),
(308,492,l)
);
},
{
closed = 1;
nodes = (
(111,15,o),
(76,85,o),
(76,242,cs),
(76,398,o),
(112,477,o),
(196,477,cs),
(269,477,o),
(303,382,o),
(303,243,cs),
(303,52,o),
(246,15,o),
(188,15,cs)
);
},
{
closed = 1;
nodes = (
(423,0,l),
(423,25,l),
(321,25,l),
(321,0,l)
);
}
);
width = 429;
},
{
layerId = m007;
shapes = (
{
closed = 1;
nodes = (
(313,415,l),
(309,415,l),
(288,473,o),
(253,502,o),
(195,502,cs),
(97,502,o),
(44,416,o),
(44,244,cs),
(44,70,o),
(98,-10,o),
(188,-10,cs),
(252,-10,o),
(285,19,o),
(308,79,c),
(311,79,l),
(308,47,o),
(308,13,o),
(308,-38,cs),
(308,-234,l),
(425,-234,l),
(425,-200,l),
(379,-200,o),
(371,-195,o),
(371,-129,cs),
(371,492,l),
(321,492,l)
);
},
{
closed = 1;
nodes = (
(136,36,o),
(108,104,o),
(108,243,cs),
(108,382,o),
(136,456,o),
(212,456,cs),
(278,456,o),
(308,380,o),
(308,244,cs),
(308,73,o),
(263,36,o),
(207,36,cs)
);
},
{
closed = 1;
nodes = (
(467,0,l),
(467,43,l),
(353,43,l),
(353,0,l)
);
}
);
width = 473;
},
{
layerId = m009;
shapes = (
{
closed = 1;
nodes = (
(339,423,l),
(331,423,l),
(302,479,o),
(264,502,o),
(205,502,cs),
(98,502,o),
(34,411,o),
(34,248,cs),
(34,82,o),
(99,-9,o),
(199,-9,cs),
(258,-9,o),
(290,9,o),
(322,70,c),
(330,70,l),
(323,0,o),
(323,-31,o),
(323,-57,cs),
(323,-240,l),
(534,-240,l),
(534,-188,l),
(505,-188,o),
(486,-181,o),
(486,-137,cs),
(486,492,l),
(359,492,l)
);
},
{
closed = 1;
nodes = (
(207,67,o),
(200,159,o),
(200,247,cs),
(200,336,o),
(205,426,o),
(257,426,cs),
(305,426,o),
(323,376,o),
(323,247,cs),
(323,135,o),
(312,67,o),
(260,67,cs)
);
},
{
closed = 1;
nodes = (
(591,0,l),
(591,63,l),
(443,63,l),
(443,0,l)
);
}
);
width = 597;
}
);
note = uni0563;
unicode = 1379;
}
{
glyphname = uni0564;
kernLeft = uni0578;
kernRight = uni0564;
layers = (
{
layerId = m001;
shapes = (
{
closed = 1;
nodes = (
(425,317,ls),
(425,442,o),
(382,502,o),
(278,502,cs),
(212,502,o),
(167,480,o),
(131,405,c),
(127,405,l),
(124,492,l),
(30,492,l),
(30,472,l),
(96,472,o),
(100,467,o),
(100,398,cs),
(100,0,l),
(193,0,l),
(193,20,l),
(132,20,o),
(128,24,o),
(128,94,cs),
(128,290,ls),
(128,379,o),
(159,477,o),
(275,477,cs),
(367,477,o),
(397,414,o),
(397,325,cs),
(397,-265,l),
(490,-265,l),
(490,-245,l),
(429,-245,o),
(425,-241,o),
(425,-171,cs)
);
},
{
closed = 1;
nodes = (
(545,0,l),
(545,28,l),
(425,28,l),
(425,0,l)
);
}
);
width = 551;
},
{
layerId = m003;
shapes = (
{
closed = 1;
nodes = (
(487,313,ls),
(487,443,o),
(435,502,o),
(334,502,cs),
(270,502,o),
(226,487,o),
(187,414,c),
(183,414,l),
(174,492,l),
(32,492,l),
(32,453,l),
(79,453,o),
(88,446,o),
(88,394,cs),
(88,0,l),
(239,0,l),
(239,39,l),
(190,39,o),
(186,45,o),
(186,98,cs),
(186,276,ls),
(186,361,o),
(207,443,o),
(295,443,cs),
(366,443,o),
(389,388,o),
(389,301,cs),
(389,-266,l),
(540,-266,l),
(540,-227,l),
(491,-227,o),
(487,-220,o),
(487,-166,cs)
);
},
{
closed = 1;
nodes = (
(606,0,l),
(606,46,l),
(464,46,l),
(464,0,l)
);
}
);
width = 610;
},
{
layerId = m005;
shapes = (
{
closed = 1;
nodes = (
(559,307,ls),
(559,445,o),
(497,502,o),
(400,502,cs),
(337,502,o),
(295,497,o),
(254,425,c),
(249,425,l),
(233,492,l),
(29,492,l),
(29,430,l),
(52,430,o),
(67,420,o),
(67,389,cs),
(67,0,l),
(293,0,l),
(293,62,l),
(259,62,o),
(253,73,o),
(253,104,cs),
(253,258,ls),
(253,338,o),
(263,400,o),
(315,400,cs),
(360,400,o),
(373,355,o),
(373,270,cs),
(373,-266,l),
(599,-266,l),
(599,-204,l),
(563,-204,o),
(559,-194,o),
(559,-160,cs)
);
},
{
closed = 1;
nodes = (
(679,0,l),
(679,70,l),
(508,70,l),
(508,0,l)
);
}
);
width = 685;
},
{
layerId = m006;
shapes = (
{
closed = 1;
nodes = (
(363,321,ls),
(363,444,o),
(325,500,o),
(234,500,cs),
(171,500,o),
(139,464,o),
(114,415,c),
(112,415,l),
(109,492,l),
(33,492,l),
(33,472,l),
(80,472,o),
(85,467,o),
(85,397,cs),
(85,0,l),
(165,0,l),
(165,20,l),
(121,20,o),
(113,23,o),
(113,96,cs),
(113,289,ls),
(113,423,o),
(168,475,o),
(236,475,cs),
(308,475,o),
(335,415,o),
(335,322,cs),
(335,-232,l),
(415,-232,l),
(415,-212,l),
(372,-212,o),
(363,-206,o),
(363,-136,cs)
);
},
{
closed = 1;
nodes = (
(455,0,l),
(455,25,l),
(353,25,l),
(353,0,l)
);
}
);
width = 461;
},
{
layerId = m007;
shapes = (
{
closed = 1;
nodes = (
(398,318,ls),
(398,444,o),
(358,501,o),
(268,501,cs),
(202,501,o),
(170,465,o),
(146,416,c),
(143,416,l),
(138,492,l),
(30,492,l),
(30,457,l),
(76,457,o),
(82,450,o),
(82,385,cs),
(82,0,l),
(197,0,l),
(197,35,l),
(153,35,o),
(145,40,o),
(145,108,cs),
(145,281,ls),
(145,401,o),
(189,451,o),
(250,451,cs),
(313,451,o),
(335,401,o),
(335,310,cs),
(335,-234,l),
(449,-234,l),
(449,-199,l),
(406,-199,o),
(398,-192,o),
(398,-124,cs)
);
},
{
closed = 1;
nodes = (
(493,0,l),
(493,43,l),
(379,43,l),
(379,0,l)
);
}
);
width = 499;
},
{
layerId = m009;
shapes = (
{
closed = 1;
nodes = (
(497,309,ls),
(497,444,o),
(451,502,o),
(362,502,cs),
(289,502,o),
(257,467,o),
(236,419,c),
(232,419,l),
(221,492,l),
(20,492,l),
(20,436,l),
(62,436,o),
(72,426,o),
(72,372,cs),
(72,0,l),
(286,0,l),
(286,56,l),
(244,56,o),
(235,66,o),
(235,121,cs),
(235,258,ls),
(235,338,o),
(248,412,o),
(290,412,cs),
(326,412,o),
(334,362,o),
(334,277,cs),
(334,-240,l),
(545,-240,l),
(545,-184,l),
(503,-184,o),
(497,-176,o),
(497,-114,cs)
);
},
{
closed = 1;
nodes = (
(602,0,l),
(602,63,l),
(454,63,l),
(454,0,l)
);
}
);
width = 606;
}
);
note = uni0564;
unicode = 1380;
}
{
glyphname = uni0565;
kernLeft = uni0587;
kernRight = uni0565;
layers = (
{
layerId = m001;
shapes = (
{
closed = 1;
nodes = (
(385,316,l),
(385,202,ls),
(385,104,o),
(336,15,o),
(237,15,cs),
(143,15,o),
(116,86,o),
(116,181,cs),
(116,760,l),
(25,760,l),
(25,740,l),
(84,740,o),
(88,736,o),
(88,666,cs),
(88,184,ls),
(88,52,o),
(136,-10,o),
(236,-10,cs),
(319,-10,o),
(353,33,o),
(382,91,c),
(386,91,l),
(389,0,l),
(478,0,l),
(478,20,l),
(418,20,o),
(413,25,o),
(413,94,cs),
(413,316,l)
);
},
{
closed = 1;
nodes = (
(484,467,l),
(484,492,l),
(104,492,l),
(104,467,l)
);
}
);
width = 515;
},
{
layerId = m003;
shapes = (
{
closed = 1;
nodes = (
(381,318,l),
(381,216,ls),
(381,127,o),
(351,47,o),
(271,47,cs),
(199,47,o),
(178,106,o),
(178,196,cs),
(178,760,l),
(27,760,l),
(27,721,l),
(76,721,o),
(80,715,o),
(80,660,cs),
(80,182,ls),
(80,48,o),
(134,-12,o),
(233,-12,cs),
(305,-12,o),
(344,12,o),
(379,80,c),
(384,80,l),
(392,0,l),
(532,0,l),
(532,39,l),
(488,39,o),
(478,46,o),
(478,98,cs),
(478,318,l)
);
},
{
closed = 1;
nodes = (
(527,447,l),
(527,492,l),
(158,492,l),
(158,447,l)
);
}
);
width = 566;
},
{
layerId = m005;
shapes = (
{
closed = 1;
nodes = (
(368,320,l),
(368,234,ls),
(368,156,o),
(364,88,o),
(307,88,cs),
(263,88,o),
(248,131,o),
(248,214,cs),
(248,760,l),
(22,760,l),
(22,698,l),
(58,698,o),
(62,687,o),
(62,653,cs),
(62,179,ls),
(62,43,o),
(123,-14,o),
(222,-14,cs),
(279,-14,o),
(324,-14,o),
(368,65,c),
(373,65,l),
(389,0,l),
(594,0,l),
(594,62,l),
(570,62,o),
(554,72,o),
(554,103,cs),
(554,320,l)
);
},
{
closed = 1;
nodes = (
(575,422,l),
(575,492,l),
(221,492,l),
(221,422,l)
);
}
);
width = 621;
},
{
layerId = m006;
shapes = (
{
closed = 1;
nodes = (
(330,319,l),
(330,203,ls),
(330,104,o),
(292,15,o),
(208,15,cs),
(138,15,o),
(106,70,o),
(106,183,cs),
(106,760,l),
(26,760,l),
(26,740,l),
(70,740,o),
(78,735,o),
(78,667,cs),
(78,184,ls),
(78,44,o),
(126,-10,o),
(206,-10,cs),
(267,-10,o),
(304,26,o),
(328,77,c),
(332,77,l),
(334,0,l),
(410,0,l),
(410,20,l),
(365,20,o),
(358,25,o),
(358,101,cs),
(358,319,l)
);
},
{
closed = 1;
nodes = (
(398,467,l),
(398,492,l),
(86,492,l),
(86,467,l)
);
}
);
width = 443;
},
{
layerId = m007;
shapes = (
{
closed = 1;
nodes = (
(331,320,l),
(331,210,ls),
(331,113,o),
(299,40,o),
(226,40,cs),
(165,40,o),
(139,87,o),
(139,193,cs),
(139,760,l),
(25,760,l),
(25,725,l),
(69,725,o),
(76,719,o),
(76,652,cs),
(76,185,ls),
(76,47,o),
(122,-10,o),
(208,-10,cs),
(268,-10,o),
(305,24,o),
(329,75,c),
(333,75,l),
(341,0,l),
(444,0,l),
(444,35,l),
(400,35,o),
(394,40,o),
(394,111,cs),
(394,320,l)
);
},
{
closed = 1;
nodes = (
(430,449,l),
(430,492,l),
(114,492,l),
(114,449,l)
);
}
);
width = 475;
},
{
layerId = m009;
shapes = (
{
closed = 1;
nodes = (
(333,324,l),
(333,230,ls),
(333,138,o),
(318,80,o),
(279,80,cs),
(244,80,o),
(234,137,o),
(234,222,cs),
(234,760,l),
(22,760,l),
(22,704,l),
(65,704,o),
(70,696,o),
(70,633,cs),
(70,188,ls),
(70,54,o),
(110,-10,o),
(212,-10,cs),
(271,-10,o),
(309,17,o),
(333,69,c),
(337,69,l),
(361,0,l),
(543,0,l),
(543,56,l),
(499,56,o),
(495,61,o),
(495,118,cs),
(495,324,l)
);
},
{
closed = 1;
nodes = (
(521,428,l),
(521,492,l),
(193,492,l),
(193,428,l)
);
}
);
width = 567;
}
);
note = uni0565;
unicode = 1381;
}
{
glyphname = uni0566;
kernLeft = uni0563;
kernRight = uni0566;
layers = (
{
layerId = m001;
shapes = (
{
closed = 1;
nodes = (
(377,393,l),
(374,393,l),
(351,461,o),
(307,502,o),
(230,502,cs),
(107,502,o),
(44,418,o),
(44,243,cs),
(44,66,o),
(108,-10,o),
(219,-10,cs),
(307,-10,o),
(352,35,o),
(376,101,c),
(378,101,l),
(376,83,o),
(376,35,o),
(376,-31,cs),
(376,-265,l),
(404,-265,l),
(404,492,l),
(380,492,l)
);
},
{
closed = 1;
nodes = (
(120,15,o),
(72,85,o),
(72,242,cs),
(72,398,o),
(122,477,o),
(233,477,cs),
(331,477,o),
(376,382,o),
(376,243,cs),
(376,58,o),
(299,15,o),
(222,15,cs)
);
},
{
closed = 1;
nodes = (
(524,-265,l),
(524,-237,l),
(394,-237,l),
(394,-265,l)
);
}
);
width = 500;
},
{
layerId = m003;
shapes = (
{
closed = 1;
nodes = (
(399,409,l),
(393,409,l),
(366,471,o),
(323,502,o),
(255,502,cs),
(128,502,o),
(61,414,o),
(61,246,cs),
(61,74,o),
(129,-9,o),
(249,-9,cs),
(319,-9,o),
(360,24,o),
(390,85,c),
(396,85,l),
(391,40,o),
(390,1,o),
(390,-44,cs),
(390,-265,l),
(488,-265,l),
(488,492,l),
(411,492,l)
);
},
{
closed = 1;
nodes = (
(188,43,o),
(159,123,o),
(159,245,cs),
(159,366,o),
(189,449,o),
(277,449,cs),
(356,449,o),
(393,379,o),
(393,245,cs),
(393,93,o),
(341,43,o),
(273,43,cs)
);
},
{
closed = 1;
nodes = (
(619,-265,l),
(619,-219,l),
(472,-219,l),
(472,-265,l)
);
}
);
width = 599;
},
{
layerId = m005;
shapes = (
{
closed = 1;
nodes = (
(399,429,l),
(390,429,l),
(358,483,o),
(315,502,o),
(259,502,cs),
(127,502,o),
(55,409,o),
(55,249,cs),
(55,85,o),
(128,-9,o),
(259,-9,cs),
(307,-9,o),
(343,11,o),
(379,64,c),
(390,64,l),
(383,-15,o),
(381,-43,o),
(381,-62,cs),
(381,-265,l),
(567,-265,l),
(567,492,l),
(423,492,l)
);
},
{
closed = 1;
nodes = (
(250,78,o),
(244,172,o),
(244,248,cs),
(244,325,o),
(248,414,o),
(308,414,cs),
(361,414,o),
(390,374,o),
(390,247,cs),
(390,138,o),
(369,78,o),
(311,78,cs)
);
},
{
closed = 1;
nodes = (
(701,-265,l),
(701,-195,l),
(544,-195,l),
(544,-265,l)
);
}
);
width = 676;
},
{
layerId = m006;
shapes = (
{
closed = 1;
nodes = (
(304,404,l),
(302,404,l),
(284,472,o),
(250,502,o),
(192,502,cs),
(97,502,o),
(48,418,o),
(48,243,cs),
(48,66,o),
(98,-10,o),
(184,-10,cs),
(250,-10,o),
(284,24,o),
(303,90,c),
(305,90,l),
(303,72,o),
(303,29,o),
(303,-31,cs),
(303,-232,l),
(331,-232,l),
(331,492,l),
(308,492,l)
);
},
{
closed = 1;
nodes = (
(111,15,o),
(76,85,o),
(76,242,cs),
(76,398,o),
(112,477,o),
(196,477,cs),
(269,477,o),
(303,382,o),
(303,243,cs),
(303,52,o),
(246,15,o),
(188,15,cs)
);
},
{
closed = 1;
nodes = (
(438,-232,l),
(438,-207,l),
(321,-207,l),
(321,-232,l)
);
}
);
width = 423;
},
{
layerId = m007;
shapes = (
{
closed = 1;
nodes = (
(313,415,l),
(309,415,l),
(288,473,o),
(253,502,o),
(195,502,cs),
(97,502,o),
(44,416,o),
(44,244,cs),
(44,70,o),
(98,-10,o),
(188,-10,cs),
(252,-10,o),
(285,19,o),
(308,79,c),
(311,79,l),
(308,47,o),
(308,13,o),
(308,-38,cs),
(308,-234,l),
(371,-234,l),
(371,492,l),
(321,492,l)
);
},
{
closed = 1;
nodes = (
(136,36,o),
(108,104,o),
(108,243,cs),
(108,382,o),
(136,456,o),
(212,456,cs),
(278,456,o),
(308,380,o),
(308,244,cs),
(308,73,o),
(263,36,o),
(207,36,cs)
);
},
{
closed = 1;
nodes = (
(478,-234,l),
(478,-191,l),
(353,-191,l),
(353,-234,l)
);
}
);
width = 463;
},
{
layerId = m009;
shapes = (
{
closed = 1;
nodes = (
(339,423,l),
(331,423,l),
(302,479,o),
(264,502,o),
(205,502,cs),
(98,502,o),
(34,411,o),
(34,248,cs),
(34,82,o),
(99,-9,o),
(199,-9,cs),
(258,-9,o),
(290,9,o),
(322,70,c),
(330,70,l),
(323,0,o),
(323,-31,o),
(323,-57,cs),
(323,-240,l),
(486,-240,l),
(486,492,l),
(359,492,l)
);
},
{
closed = 1;
nodes = (
(207,67,o),
(200,159,o),
(200,247,cs),
(200,336,o),
(205,426,o),
(257,426,cs),
(305,426,o),
(323,376,o),
(323,247,cs),
(323,135,o),
(312,67,o),
(260,67,cs)
);
},
{
closed = 1;
nodes = (
(588,-240,l),
(588,-177,l),
(443,-177,l),
(443,-240,l)
);
}
);
width = 568;
}
);
note = uni0566;
unicode = 1382;
}
{
glyphname = uni0567;
kernLeft = uni056B;
kernRight = uni0567;
layers = (
{
anchors = (
{
name = top;
pos = (206,760);
}
);
layerId = m001;
shapes = (
{
closed = 1;
nodes = (
(354,492,l),
(116,492,l),
(116,760,l),
(25,760,l),
(25,740,l),
(84,740,o),
(88,736,o),
(88,666,cs),
(88,13,l),
(104,0,l),
(116,0,l),
(148,21,o),
(208,28,o),
(241,28,cs),
(296,28,o),
(325,10,o),
(325,-29,cs),
(325,-81,o),
(258,-107,o),
(158,-107,c),
(158,-121,o),
(170,-129,o),
(190,-129,cs),
(286,-129,o),
(353,-92,o),
(353,-31,cs),
(353,24,o),
(318,53,o),
(241,53,cs),
(203,53,o),
(150,46,o),
(116,24,c),
(116,467,l),
(354,467,l)
);
}
);
width = 390;
},
{
anchors = (
{
name = top;
pos = (264,760);
}
);
layerId = m003;
shapes = (
{
closed = 1;
nodes = (
(438,492,l),
(181,492,l),
(181,760,l),
(30,760,l),
(30,723,l),
(78,723,o),
(83,716,o),
(83,667,cs),
(83,11,l),
(97,0,l),
(106,0,l),
(149,21,o),
(211,31,o),
(258,31,cs),
(318,31,o),
(349,12,o),
(349,-29,cs),
(349,-84,o),
(296,-113,o),
(190,-113,c),
(190,-138,o),
(220,-161,o),
(266,-161,cs),
(360,-161,o),
(435,-113,o),
(435,-31,cs),
(435,39,o),
(383,83,o),
(291,83,cs),
(255,83,o),
(211,76,o),
(181,60,c),
(181,447,l),
(438,447,l)
);
}
);
width = 484;
},
{
anchors = (
{
name = top;
pos = (332,760);
}
);
layerId = m005;
shapes = (
{
closed = 1;
nodes = (
(539,492,l),
(256,492,l),
(256,760,l),
(30,760,l),
(30,700,l),
(63,700,o),
(70,690,o),
(70,667,cs),
(70,9,l),
(81,0,l),
(88,0,l),
(143,21,o),
(208,34,o),
(274,34,cs),
(339,34,o),
(372,14,o),
(372,-29,cs),
(372,-87,o),
(338,-120,o),
(224,-120,c),
(224,-161,o),
(277,-202,o),
(356,-202,cs),
(447,-202,o),
(533,-141,o),
(533,-31,cs),
(533,58,o),
(460,121,o),
(348,121,cs),
(314,121,o),
(283,114,o),
(256,106,c),
(256,422,l),
(539,422,l)
);
}
);
width = 583;
},
{
anchors = (
{
name = top;
pos = (174,760);
}
);
layerId = m006;
shapes = (
{
closed = 1;
nodes = (
(290,492,l),
(106,492,l),
(106,760,l),
(26,760,l),
(26,740,l),
(70,740,o),
(78,735,o),
(78,667,cs),
(78,13,l),
(90,0,l),
(99,0,l),
(124,21,o),
(171,28,o),
(197,28,cs),
(240,28,o),
(262,10,o),
(262,-29,cs),
(262,-81,o),
(212,-104,o),
(135,-104,c),
(135,-118,o),
(145,-129,o),
(163,-129,cs),
(237,-129,o),
(290,-92,o),
(290,-31,cs),
(290,24,o),
(261,53,o),
(200,53,cs),
(171,53,o),
(132,46,o),
(106,24,c),
(106,467,l),
(290,467,l)
);
}
);
width = 326;
},
{
anchors = (
{
name = top;
pos = (206,760);
}
);
layerId = m007;
shapes = (
{
closed = 1;
nodes = (
(337,492,l),
(139,492,l),
(139,760,l),
(25,760,l),
(25,725,l),
(69,725,o),
(76,719,o),
(76,652,cs),
(76,12,l),
(87,0,l),
(96,0,l),
(127,21,o),
(176,29,o),
(211,29,cs),
(257,29,o),
(281,11,o),
(281,-29,cs),
(281,-82,o),
(236,-108,o),
(153,-108,c),
(153,-128,o),
(172,-145,o),
(203,-145,cs),
(280,-145,o),
(338,-103,o),
(338,-31,cs),
(338,42,o),
(301,76,o),
(230,76,cs),
(201,76,o),
(165,69,o),
(139,50,c),
(139,449,l),
(337,449,l)
);
}
);
width = 374;
},
{
anchors = (
{
name = top;
pos = (296,760);
}
);
layerId = m009;
shapes = (
{
closed = 1;
nodes = (
(471,492,l),
(234,492,l),
(234,760,l),
(22,760,l),
(22,704,l),
(65,704,o),
(70,696,o),
(70,633,cs),
(70,9,l),
(79,0,l),
(86,0,l),
(134,21,o),
(191,33,o),
(249,33,cs),
(306,33,o),
(335,14,o),
(335,-29,cs),
(335,-86,o),
(304,-118,o),
(204,-118,c),
(204,-155,o),
(249,-191,o),
(317,-191,cs),
(402,-191,o),
(477,-134,o),
(477,-31,cs),
(477,53,o),
(414,111,o),
(316,111,cs),
(286,111,o),
(258,104,o),
(234,94,c),
(234,428,l),
(471,428,l)
);
}
);
width = 511;
}
);
note = uni0567;
unicode = 1383;
}
{
glyphname = uni0568;
kernLeft = uni0568;
kernRight = uni056B;
layers = (
{
layerId = m001;
shapes = (
{
closed = 1;
nodes = (
(425,317,ls),
(425,442,o),
(382,502,o),
(278,502,cs),
(212,502,o),
(167,480,o),
(131,405,c),
(127,405,l),
(124,492,l),
(30,492,l),
(30,472,l),
(96,472,o),
(100,467,o),
(100,398,cs),
(100,-265,l),
(128,-265,l),
(128,290,ls),
(128,379,o),
(159,477,o),
(275,477,cs),
(367,477,o),
(397,414,o),
(397,325,cs),
(397,0,l),
(490,0,l),
(490,20,l),
(429,20,o),
(425,24,o),
(425,94,cs)
);
},
{
closed = 1;
nodes = (
(500,-265,l),
(500,-240,l),
(110,-240,l),
(110,-265,l)
);
}
);
width = 525;
},
{
layerId = m003;
shapes = (
{
closed = 1;
nodes = (
(487,313,ls),
(487,443,o),
(435,502,o),
(334,502,cs),
(270,502,o),
(226,489,o),
(187,414,c),
(183,414,l),
(174,492,l),
(32,492,l),
(32,453,l),
(79,453,o),
(88,446,o),
(88,394,cs),
(88,-265,l),
(186,-265,l),
(186,276,ls),
(186,361,o),
(207,443,o),
(295,443,cs),
(366,443,o),
(389,388,o),
(389,301,cs),
(389,0,l),
(540,0,l),
(540,39,l),
(491,39,o),
(487,45,o),
(487,100,cs)
);
},
{
closed = 1;
nodes = (
(545,-265,l),
(545,-220,l),
(98,-220,l),
(98,-265,l)
);
}
);
width = 572;
},
{
layerId = m005;
shapes = (
{
closed = 1;
nodes = (
(559,307,ls),
(559,445,o),
(497,502,o),
(400,502,cs),
(337,502,o),
(291,492,o),
(254,425,c),
(249,425,l),
(233,492,l),
(29,492,l),
(29,430,l),
(52,430,o),
(67,420,o),
(67,389,cs),
(67,-265,l),
(253,-265,l),
(253,258,ls),
(253,338,o),
(263,400,o),
(315,400,cs),
(360,400,o),
(373,355,o),
(373,270,cs),
(373,0,l),
(599,0,l),
(599,62,l),
(563,62,o),
(559,73,o),
(559,107,cs)
);
},
{
closed = 1;
nodes = (
(596,-265,l),
(596,-195,l),
(77,-195,l),
(77,-265,l)
);
}
);
width = 618;
},
{
layerId = m006;
shapes = (
{
closed = 1;
nodes = (
(363,321,ls),
(363,444,o),
(325,500,o),
(234,500,cs),
(171,500,o),
(139,464,o),
(114,415,c),
(112,415,l),
(109,492,l),
(33,492,l),
(33,472,l),
(80,472,o),
(85,467,o),
(85,397,cs),
(85,-232,l),
(113,-232,l),
(113,289,ls),
(113,423,o),
(168,475,o),
(236,475,cs),
(308,475,o),
(335,415,o),
(335,322,cs),
(335,0,l),
(415,0,l),
(415,20,l),
(372,20,o),
(363,26,o),
(363,73,cs)
);
},
{
closed = 1;
nodes = (
(376,-232,l),
(376,-207,l),
(92,-207,l),
(92,-232,l)
);
}
);
width = 441;
},
{
layerId = m007;
shapes = (
{
closed = 1;
nodes = (
(398,324,ls),
(398,444,o),
(358,501,o),
(268,501,cs),
(202,501,o),
(170,465,o),
(146,416,c),
(143,416,l),
(138,492,l),
(30,492,l),
(30,457,l),
(76,457,o),
(82,450,o),
(82,385,cs),
(82,-234,l),
(145,-234,l),
(145,281,ls),
(145,401,o),
(189,451,o),
(250,451,cs),
(313,451,o),
(335,401,o),
(335,310,cs),
(335,0,l),
(449,0,l),
(449,35,l),
(407,35,o),
(398,42,o),
(398,92,cs)
);
},
{
closed = 1;
nodes = (
(417,-234,l),
(417,-191,l),
(124,-191,l),
(124,-234,l)
);
}
);
width = 474;
},
{
layerId = m009;
shapes = (
{
closed = 1;
nodes = (
(497,332,ls),
(497,444,o),
(451,502,o),
(362,502,cs),
(289,502,o),
(257,467,o),
(236,419,c),
(232,419,l),
(221,492,l),
(20,492,l),
(20,436,l),
(62,436,o),
(72,426,o),
(72,372,cs),
(72,-240,l),
(235,-240,l),
(235,258,ls),
(235,338,o),
(248,412,o),
(290,412,cs),
(325,412,o),
(334,362,o),
(334,277,cs),
(334,0,l),
(545,0,l),
(545,56,l),
(507,56,o),
(497,64,o),
(497,124,cs)
);
},
{
closed = 1;
nodes = (
(537,-240,l),
(537,-176,l),
(217,-176,l),
(217,-240,l)
);
}
);
width = 567;
}
);
note = uni0568;
unicode = 1384;
}
{
glyphname = uni0569;
kernLeft = uni0568;
layers = (
{
layerId = m001;
shapes = (
{
closed = 1;
nodes = (
(196,-265,l),
(196,-245,l),
(131,-245,o),
(126,-240,o),
(126,-167,cs),
(126,243,ls),
(126,382,o),
(176,477,o),
(274,477,cs),
(375,477,o),
(420,389,o),
(420,243,cs),
(420,66,o),
(394,15,o),
(343,15,cs),
(299,15,o),
(273,43,o),
(273,120,cs),
(273,178,o),
(297,224,o),
(365,224,cs),
(405,224,o),
(456,213,o),
(486,194,c),
(498,215,l),
(455,239,o),
(409,249,o),
(363,249,cs),
(291,249,o),
(245,207,o),
(245,120,cs),
(245,32,o),
(282,-10,o),
(343,-10,cs),
(412,-10,o),
(448,47,o),
(448,244,cs),
(448,409,o),
(390,502,o),
(277,502,cs),
(200,502,o),
(151,461,o),
(128,393,c),
(125,393,l),
(122,492,l),
(29,492,l),
(29,472,l),
(89,472,o),
(98,467,o),
(98,398,cs),
(98,-265,l)
);
}
);
width = 510;
},
{
layerId = m003;
shapes = (
{
closed = 1;
nodes = (
(253,-265,l),
(253,-228,l),
(202,-228,o),
(197,-222,o),
(197,-160,cs),
(197,250,ls),
(197,371,o),
(244,449,o),
(341,449,cs),
(437,449,o),
(480,382,o),
(480,245,cs),
(480,77,o),
(463,35,o),
(421,35,cs),
(387,35,o),
(365,63,o),
(365,130,cs),
(365,188,o),
(387,227,o),
(440,227,cs),
(490,227,o),
(563,214,o),
(622,189,c),
(637,228,l),
(572,257,o),
(501,272,o),
(426,272,cs),
(335,272,o),
(278,221,o),
(278,135,cs),
(278,40,o),
(325,-10,o),
(414,-10,cs),
(528,-10,o),
(576,71,o),
(576,244,cs),
(576,408,o),
(496,502,o),
(369,502,cs),
(289,502,o),
(231,469,o),
(199,408,c),
(194,408,l),
(186,492,l),
(44,492,l),
(44,455,l),
(92,455,o),
(100,447,o),
(100,387,cs),
(100,-265,l)
);
}
);
width = 653;
},
{
layerId = m005;
shapes = (
{
closed = 1;
nodes = (
(318,-265,l),
(318,-207,l),
(285,-207,o),
(280,-199,o),
(280,-150,cs),
(280,258,ls),
(280,358,o),
(322,413,o),
(419,413,cs),
(508,413,o),
(548,372,o),
(548,247,cs),
(548,90,o),
(539,60,o),
(513,60,cs),
(491,60,o),
(475,88,o),
(475,142,cs),
(475,202,o),
(493,231,o),
(526,231,cs),
(589,231,o),
(691,214,o),
(787,183,c),
(806,246,l),
(712,280,o),
(610,301,o),
(499,301,cs),
(383,301,o),
(312,239,o),
(312,153,cs),
(312,51,o),
(372,-10,o),
(495,-10,cs),
(667,-10,o),
(731,102,o),
(731,244,cs),
(731,406,o),
(623,502,o),
(478,502,cs),
(393,502,o),
(325,479,o),
(280,427,c),
(275,427,l),
(260,492,l),
(55,492,l),
(55,432,l),
(88,432,o),
(93,421,o),
(93,372,cs),
(93,-265,l)
);
}
);
width = 816;
},
{
layerId = m006;
shapes = (
{
closed = 1;
nodes = (
(168,-232,l),
(168,-212,l),
(116,-212,o),
(112,-208,o),
(112,-134,cs),
(112,243,ls),
(112,387,o),
(151,477,o),
(227,477,cs),
(308,477,o),
(339,398,o),
(339,242,c),
(339,65,o),
(320,15,o),
(281,15,cs),
(248,15,o),
(228,43,o),
(228,120,cs),
(228,178,o),
(247,224,o),
(298,224,cs),
(334,224,o),
(370,213,o),
(396,194,c),
(406,215,l),
(371,239,o),
(338,249,o),
(295,249,cs),
(238,249,o),
(200,207,o),
(200,120,cs),
(200,32,o),
(231,-10,o),
(280,-10,cs),
(338,-10,o),
(367,45,o),
(367,242,cs),
(367,417,o),
(323,502,o),
(228,502,cs),
(170,502,o),
(131,467,o),
(113,399,c),
(111,399,l),
(107,492,l),
(32,492,l),
(32,472,l),
(84,472,o),
(84,468,o),
(84,394,cs),
(84,-232,l)
);
}
);
width = 418;
},
{
layerId = m007;
shapes = (
{
closed = 1;
nodes = (
(198,-234,l),
(198,-200,l),
(152,-200,o),
(144,-195,o),
(144,-129,cs),
(144,244,ls),
(144,379,o),
(178,456,o),
(261,456,cs),
(341,456,o),
(374,388,o),
(374,243,cs),
(374,78,o),
(359,33,o),
(323,33,cs),
(293,33,o),
(274,61,o),
(274,125,cs),
(274,193,o),
(293,225,o),
(333,225,cs),
(374,225,o),
(429,213,o),
(470,192,c),
(481,230,l),
(434,256,o),
(382,268,o),
(330,268,cs),
(262,268,o),
(219,224,o),
(219,127,cs),
(219,36,o),
(254,-10,o),
(323,-10,cs),
(399,-10,o),
(436,58,o),
(436,243,cs),
(436,415,o),
(375,502,o),
(274,502,cs),
(204,502,o),
(166,470,o),
(143,405,c),
(139,405,l),
(131,492,l),
(29,492,l),
(29,457,l),
(78,457,o),
(81,451,o),
(81,386,cs),
(81,-234,l)
);
}
);
width = 493;
},
{
layerId = m009;
shapes = (
{
closed = 1;
nodes = (
(283,-240,l),
(283,-188,l),
(254,-188,o),
(235,-181,o),
(235,-137,cs),
(235,247,ls),
(235,371,o),
(268,426,o),
(355,426,cs),
(449,426,o),
(473,371,o),
(473,247,cs),
(473,86,o),
(469,54,o),
(442,54,cs),
(422,54,o),
(407,81,o),
(407,138,cs),
(407,198,o),
(424,229,o),
(454,229,cs),
(509,229,o),
(598,214,o),
(680,185,c),
(696,241,l),
(615,274,o),
(526,293,o),
(430,293,cs),
(329,293,o),
(272,234,o),
(272,148,cs),
(272,48,o),
(320,-10,o),
(447,-10,cs),
(575,-10,o),
(633,86,o),
(633,247,cs),
(633,410,o),
(538,502,o),
(395,502,cs),
(317,502,o),
(266,479,o),
(227,423,c),
(219,423,l),
(199,492,l),
(20,492,l),
(20,436,l),
(62,436,o),
(72,426,o),
(72,386,cs),
(72,-240,l)
);
}
);
width = 706;
}
);
note = uni0569;
unicode = 1385;
}
{
glyphname = uni056A;
kernLeft = uni0563;
layers = (
{
layerId = m001;
shapes = (
{
closed = 1;
nodes = (
(246,492,ls),
(145,492,o),
(44,420,o),
(44,242,cs),
(44,74,o),
(109,-10,o),
(230,-10,cs),
(365,-10,o),
(408,91,o),
(408,238,cs),
(408,760,l),
(310,760,l),
(310,740,l),
(376,740,o),
(380,735,o),
(380,666,cs),
(380,492,l)
);
},
{
closed = 1;
nodes = (
(380,467,l),
(380,239,ls),
(380,112,o),
(351,15,o),
(231,15,cs),
(122,15,o),
(72,104,o),
(72,244,cs),
(72,408,o),
(171,467,o),
(246,467,cs)
);
},
{
closed = 1;
nodes = (
(400,467,l),
(513,467,l),
(513,492,l),
(400,492,l)
);
}
);
width = 518;
},
{
layerId = m003;
shapes = (
{
closed = 1;
nodes = (
(299,492,ls),
(151,490,o),
(56,414,o),
(56,244,cs),
(56,81,o),
(133,-9,o),
(267,-9,cs),
(410,-9,o),
(487,91,o),
(487,244,cs),
(487,760,l),
(333,760,l),
(333,723,l),
(385,723,o),
(389,716,o),
(389,664,cs),
(389,492,l)
);
},
{
closed = 1;
nodes = (
(389,447,l),
(389,243,ls),
(389,128,o),
(369,36,o),
(273,36,cs),
(188,36,o),
(155,130,o),
(155,245,cs),
(155,395,o),
(217,447,o),
(302,447,cs)
);
},
{
closed = 1;
nodes = (
(478,447,l),
(604,447,l),
(604,492,l),
(478,492,l)
);
}
);
width = 610;
},
{
layerId = m005;
shapes = (
{
closed = 1;
nodes = (
(336,492,ls),
(129,488,o),
(41,406,o),
(41,247,cs),
(41,91,o),
(133,-9,o),
(284,-9,cs),
(436,-9,o),
(557,91,o),
(557,251,cs),
(557,760,l),
(331,760,l),
(331,700,l),
(365,700,o),
(371,693,o),
(371,662,cs),
(371,492,l)
);
},
{
closed = 1;
nodes = (
(371,422,l),
(371,248,ls),
(371,148,o),
(362,62,o),
(296,62,cs),
(240,62,o),
(230,163,o),
(230,245,cs),
(230,379,o),
(245,422,o),
(343,422,cs)
);
},
{
closed = 1;
nodes = (
(547,422,l),
(691,422,l),
(691,492,l),
(547,492,l)
);
}
);
width = 695;
},
{
layerId = m006;
shapes = (
{
closed = 1;
nodes = (
(221,492,ls),
(121,492,o),
(48,425,o),
(48,253,cs),
(48,77,o),
(107,-10,o),
(197,-10,cs),
(307,-10,o),
(345,70,o),
(345,237,cs),
(345,760,l),
(265,760,l),
(265,740,l),
(312,740,o),
(317,735,o),
(317,665,cs),
(317,492,l)
);
},
{
closed = 1;
nodes = (
(317,467,l),
(317,239,ls),
(317,103,o),
(294,15,o),
(197,15,cs),
(120,15,o),
(76,105,o),
(76,255,cs),
(76,409,o),
(138,467,o),
(221,467,cs)
);
},
{
closed = 1;
nodes = (
(335,467,l),
(433,467,l),
(433,492,l),
(335,492,l)
);
}
);
width = 439;
},
{
layerId = m007;
shapes = (
{
closed = 1;
nodes = (
(240,492,ls),
(121,492,o),
(44,423,o),
(44,252,cs),
(44,79,o),
(106,-10,o),
(215,-10,cs),
(333,-10,o),
(384,76,o),
(384,242,cs),
(384,760,l),
(271,760,l),
(271,726,l),
(313,726,o),
(322,720,o),
(322,657,cs),
(322,492,l)
);
},
{
closed = 1;
nodes = (
(321,449,l),
(321,241,ls),
(321,110,o),
(295,35,o),
(215,35,cs),
(140,35,o),
(107,108,o),
(107,253,cs),
(107,403,o),
(161,449,o),
(242,449,cs)
);
},
{
closed = 1;
nodes = (
(371,449,l),
(477,449,l),
(477,492,l),
(371,492,l)
);
}
);
width = 482;
},
{
layerId = m009;
shapes = (
{
closed = 1;
nodes = (
(233,492,ls),
(122,492,o),
(34,419,o),
(34,251,cs),
(34,84,o),
(124,-10,o),
(267,-10,cs),
(427,-10,o),
(498,92,o),
(498,255,cs),
(498,760,l),
(289,760,l),
(289,704,l),
(318,704,o),
(337,697,o),
(337,653,cs),
(337,492,l)
);
},
{
closed = 1;
nodes = (
(337,428,l),
(337,247,ls),
(337,130,o),
(322,54,o),
(272,54,cs),
(220,54,o),
(199,117,o),
(199,249,cs),
(199,384,o),
(229,428,o),
(275,428,cs)
);
},
{
closed = 1;
nodes = (
(476,428,l),
(603,428,l),
(603,492,l),
(476,492,l)
);
}
);
width = 607;
}
);
note = uni056A;
unicode = 1386;
}
